<?xml version="1.0" encoding="UTF-8"?>
<svg id="uuid-972e2274-0b4a-4819-92e4-f53379d91122" data-name="Layer 2" xmlns="http://www.w3.org/2000/svg" viewBox="0 0 1184.62 124.66">
  <g id="uuid-6e818720-360b-4087-abb8-4a3a973fecad" data-name="Layer 1">
    <g id="uuid-fee94cfb-3031-4570-a765-d7fa0b0935c2" data-name="uuid-f5d4cf27-05e4-482a-8efd-89fda8c9c607">
      <g>
        <path d="M249.31,45.32c-1.23,1.02-1.85,2.36-1.85,4.05s.76,3.01,2.27,4.01,5,2.15,10.49,3.5c5.49,1.34,9.72,3.38,12.76,6.07,3.03,2.71,4.54,6.65,4.54,11.81s-1.94,9.38-5.81,12.6c-3.89,3.22-8.98,4.84-15.33,4.84-9.15,0-17.37-3.38-24.68-10.16l7.69-9.42c6.23,5.44,11.97,8.17,17.25,8.17,2.36,0,4.21-.51,5.58-1.53,1.34-1.02,2.01-2.38,2.01-4.12s-.72-3.1-2.15-4.12-4.26-2.04-8.5-3.1c-6.71-1.6-11.62-3.68-14.75-6.23s-4.65-6.58-4.65-12.06,1.97-9.7,5.9-12.66c3.94-2.96,8.84-4.47,14.75-4.47,3.84,0,7.71.67,11.55,1.99s7.2,3.2,10.07,5.6l-6.53,9.42c-5-3.8-10.19-5.7-15.51-5.7-2.15,0-3.84.51-5.07,1.53h-.02Z" style="fill: #231f20; stroke-width: 0px;"/>
        <path d="M337.2,44.95v46.56h-12.87v-46.56h-16.35v-11.14h45.57v11.14h-16.35Z" style="fill: #231f20; stroke-width: 0px;"/>
        <path d="M424.65,91.52l-5.37-12.48h-24.2l-5.37,12.48h-13.71l24.94-57.72h12.48l24.94,57.72h-13.71ZM407.24,50.97l-7.27,16.76h14.45l-7.18-16.76Z" style="fill: #231f20; stroke-width: 0px;"/>
        <path d="M495.09,91.52h-25.26v-57.72h22.46c3.91,0,7.27.46,10.12,1.41,2.82.93,4.98,2.2,6.39,3.8,2.59,2.96,3.89,6.32,3.89,10.07,0,4.51-1.46,7.87-4.38,10.07-1,.76-1.69,1.25-2.06,1.44-.39.19-1.07.51-2.06.95,3.57.76,6.44,2.38,8.54,4.84,2.13,2.45,3.17,5.49,3.17,9.12,0,4.01-1.37,7.57-4.12,10.65-3.2,3.59-8.75,5.37-16.67,5.37h-.02ZM482.7,57.16h6.11c3.57,0,6.23-.39,7.96-1.16s2.59-2.43,2.59-5-.79-4.26-2.38-5.07-4.28-1.23-8.08-1.23h-6.18v12.46h-.02ZM482.7,80.61h8.84c3.68,0,6.46-.46,8.29-1.37,1.85-.9,2.76-2.71,2.76-5.37s-.97-4.42-2.94-5.28c-1.94-.86-5.07-1.27-9.38-1.27h-7.59v13.29h.02Z" style="fill: #231f20; stroke-width: 0px;"/>
        <path d="M551.49,91.52v-57.72h12.87v46.24h24.61v11.48h-37.49Z" style="fill: #231f20; stroke-width: 0px;"/>
        <path d="M664.75,33.79v11.48h-28.73v11.88h25.84v10.97h-25.84v11.97h29.64v11.39h-42.53v-57.72h41.61l.02.02Z" style="fill: #231f20; stroke-width: 0px;"/>
        <path d="M761.97,45.32c-1.23,1.02-1.85,2.36-1.85,4.05s.76,3.01,2.27,4.01c1.5,1,5,2.15,10.49,3.5,5.49,1.34,9.72,3.38,12.76,6.07,3.03,2.71,4.54,6.65,4.54,11.81s-1.94,9.38-5.81,12.6c-3.89,3.22-8.98,4.84-15.33,4.84-9.15,0-17.37-3.38-24.68-10.16l7.69-9.42c6.23,5.44,11.97,8.17,17.25,8.17,2.36,0,4.21-.51,5.58-1.53,1.34-1.02,2.01-2.38,2.01-4.12s-.72-3.1-2.15-4.12-4.26-2.04-8.5-3.1c-6.71-1.6-11.62-3.68-14.75-6.23s-4.65-6.58-4.65-12.06,1.97-9.7,5.9-12.66c3.94-2.96,8.84-4.47,14.75-4.47,3.84,0,7.71.67,11.55,1.99s7.2,3.2,10.07,5.6l-6.53,9.42c-5-3.8-10.19-5.7-15.54-5.7-2.15,0-3.84.51-5.07,1.53Z" style="fill: #231f20; stroke-width: 0px;"/>
        <path d="M849.89,44.95v46.56h-12.87v-46.56h-16.35v-11.14h45.59v11.14h-16.37Z" style="fill: #231f20; stroke-width: 0px;"/>
        <path d="M915.69,76.6c2.15,2.66,5.05,4.01,8.66,4.01s6.51-1.34,8.64-4.01c2.11-2.66,3.17-6.32,3.17-10.95v-31.86h12.87v32.28c0,8.36-2.32,14.8-6.95,19.29-4.63,4.49-10.53,6.74-17.76,6.74s-13.15-2.25-17.8-6.76c-4.65-4.51-6.97-10.93-6.97-19.24v-32.28h12.87v31.86c0,4.63,1.07,8.27,3.22,10.95l.05-.02Z" style="fill: #231f20; stroke-width: 0px;"/>
        <path d="M1031.29,41.34c5.51,5.05,8.27,12.04,8.27,21.02s-2.69,16.07-8.06,21.3c-5.37,5.23-13.54,7.85-24.57,7.85h-19.73v-57.72h20.4c10.28,0,18.2,2.52,23.71,7.55h-.02ZM1021.82,75.66c3.17-2.96,4.75-7.29,4.75-12.97s-1.57-10.03-4.75-13.08-8.03-4.58-14.59-4.58h-7.18v35.08h8.17c5.88,0,10.42-1.48,13.59-4.45Z" style="fill: #231f20; stroke-width: 0px;"/>
        <path d="M1075.45,33.79h12.87v57.72h-12.87v-57.72Z" style="fill: #231f20; stroke-width: 0px;"/>
        <path d="M1175.86,83.55c-5.83,5.7-13.01,8.54-21.56,8.54s-15.72-2.85-21.56-8.54c-5.83-5.7-8.75-12.78-8.75-21.25s2.92-15.56,8.75-21.25c5.83-5.7,13.01-8.54,21.56-8.54s15.72,2.85,21.56,8.54c5.83,5.7,8.75,12.78,8.75,21.25s-2.92,15.56-8.75,21.25ZM1171.49,62.32c0-5.14-1.64-9.54-4.95-13.17s-7.36-5.44-12.18-5.44-8.87,1.81-12.18,5.44-4.95,8.03-4.95,13.17,1.64,9.52,4.95,13.13,7.36,5.42,12.18,5.42,8.87-1.81,12.18-5.42c3.31-3.61,4.95-7.99,4.95-13.13Z" style="fill: #231f20; stroke-width: 0px;"/>
      </g>
      <g>
        <path d="M54.97,10.81C49.32,4.37,42.19.88,33.71.12c-4.57-.41-9,.26-13.46,2.01.65.77,1.09,1.31,1.54,1.83,14.18,16.13,28.37,32.27,42.55,48.4,9.93,11.3,19.93,22.54,29.75,33.94,5.57,6.46,2.17,15.99-6.13,17.78-2.1.45-4.13-.08-6.29-.43-1.36,6.68-3.83,12.82-7.6,18.54,5.02,2.35,11.91,3.08,17.58,1.95,23.9-4.75,33.77-32.84,17.81-51.28-18.02-20.82-36.33-41.37-54.51-62.06h.02Z" style="fill: #231f20; stroke-width: 0px;"/>
        <path d="M14.54,28.66c-3.51-4-7.04-7.98-10.72-12.16-.46.94-.84,1.61-1.12,2.32C-2.31,31.42-.21,42.8,8.69,52.94c12.52,14.27,25.08,28.51,37.62,42.76,3.92,4.46,7.84,8.91,11.92,13.54.42-.73.69-1.17.93-1.64,5.43-10.78,3.77-23.89-4.24-33.02-13.44-15.32-26.92-30.62-40.38-45.92Z" style="fill: #231f20; stroke-width: 0px;"/>
        <path d="M117.29,31.17c-.64-11.78-5.52-20.79-15.48-26.75-8.05-4.82-16.6-5.61-25.85-2.75,8.87,10.08,17.45,19.84,25.94,29.49h15.4-.01Z" style="fill: #231f20; stroke-width: 0px;"/>
        <path d="M0,93.5c.6,11.58,5.36,20.52,15.04,26.51,8.12,5.03,16.84,5.93,26.27,2.96-8.84-10.04-17.42-19.8-25.93-29.47H0Z" style="fill: #231f20; stroke-width: 0px;"/>
      </g>
    </g>
  </g>
</svg>