<?xml version="1.0" encoding="UTF-8"?>
<svg id="uuid-f23e0ce1-3173-455a-9c14-6a61bd64d91c" data-name="Layer 2" xmlns="http://www.w3.org/2000/svg" viewBox="0 0 117.29 124.66">
  <g id="uuid-44d43861-a78d-47d7-bf01-1dff80c9741e" data-name="Layer 1">
    <g>
      <path d="M54.97,10.81C49.32,4.37,42.19.88,33.71.12c-4.57-.41-9,.26-13.46,2.01.65.77,1.09,1.31,1.54,1.83,14.18,16.13,28.37,32.27,42.55,48.4,9.93,11.3,19.93,22.54,29.75,33.94,5.57,6.46,2.17,15.99-6.13,17.78-2.1.45-4.13-.08-6.29-.43-1.36,6.68-3.83,12.82-7.6,18.54,5.02,2.35,11.91,3.08,17.58,1.95,23.9-4.75,33.77-32.84,17.81-51.28-18.02-20.82-36.33-41.37-54.51-62.06Z" style="fill: #231f20; stroke-width: 0px;"/>
      <path d="M14.54,28.66c-3.51-4-7.04-7.98-10.72-12.16-.46.94-.84,1.61-1.12,2.32C-2.31,31.42-.21,42.8,8.69,52.94c12.52,14.27,25.08,28.51,37.62,42.76,3.92,4.46,7.84,8.91,11.92,13.54.42-.73.69-1.17.93-1.64,5.43-10.78,3.77-23.89-4.24-33.02-13.44-15.32-26.92-30.62-40.38-45.92Z" style="fill: #231f20; stroke-width: 0px;"/>
      <path d="M117.29,31.17c-.64-11.78-5.52-20.79-15.48-26.75-8.05-4.82-16.6-5.61-25.85-2.75,8.87,10.08,17.45,19.84,25.94,29.49h15.4Z" style="fill: #231f20; stroke-width: 0px;"/>
      <path d="M0,93.5c.6,11.58,5.36,20.52,15.04,26.51,8.12,5.03,16.84,5.93,26.27,2.96-8.84-10.04-17.42-19.8-25.93-29.47H0Z" style="fill: #231f20; stroke-width: 0px;"/>
    </g>
  </g>
</svg>