<?xml version="1.0" encoding="UTF-8"?>
<svg id="uuid-c6eba22e-1fa3-4607-94a7-2eaf8ab73ac1" data-name="Layer 2" xmlns="http://www.w3.org/2000/svg" viewBox="0 0 346.03 178.56">
  <g id="uuid-11388634-08f6-4838-b47b-f6d5406a9edd" data-name="Layer 1">
    <g>
      <g>
        <path d="M6.4,161.55c-.45.37-.67.86-.67,1.47s.27,1.09.82,1.45c.55.36,1.82.78,3.81,1.27,1.99.49,3.53,1.22,4.63,2.2,1.1.98,1.65,2.41,1.65,4.29s-.7,3.4-2.11,4.57c-1.41,1.17-3.26,1.75-5.56,1.75-3.32,0-6.31-1.23-8.96-3.69l2.79-3.42c2.26,1.98,4.35,2.97,6.27,2.97.86,0,1.53-.18,2.02-.55.49-.37.74-.87.74-1.5s-.26-1.13-.78-1.5c-.52-.37-1.55-.74-3.09-1.12-2.44-.58-4.22-1.33-5.35-2.26s-1.69-2.39-1.69-4.38.71-3.52,2.14-4.6c1.43-1.08,3.21-1.62,5.35-1.62,1.4,0,2.8.24,4.2.72,1.4.48,2.62,1.16,3.66,2.04l-2.37,3.42c-1.82-1.38-3.7-2.07-5.64-2.07-.78,0-1.39.19-1.84.56Z" style="fill: #231f20; stroke-width: 0px;"/>
        <path d="M38.32,161.41v16.91h-4.68v-16.91h-5.94v-4.05h16.55v4.05h-5.94Z" style="fill: #231f20; stroke-width: 0px;"/>
        <path d="M70.07,178.32l-1.95-4.53h-8.78l-1.95,4.53h-4.98l9.05-20.96h4.53l9.05,20.96h-4.98ZM63.74,163.6l-2.64,6.09h5.25l-2.61-6.09Z" style="fill: #231f20; stroke-width: 0px;"/>
        <path d="M95.64,178.32h-9.17v-20.96h8.16c1.42,0,2.64.17,3.67.51,1.03.34,1.8.8,2.32,1.38.94,1.08,1.41,2.3,1.41,3.66,0,1.64-.53,2.86-1.59,3.66-.36.28-.61.45-.75.52-.14.07-.39.18-.75.34,1.3.28,2.33.86,3.1,1.75s1.15,1.99,1.15,3.31c0,1.46-.5,2.75-1.5,3.87-1.16,1.3-3.18,1.95-6.06,1.95ZM91.15,165.85h2.22c1.3,0,2.26-.14,2.89-.42s.94-.89.94-1.81-.29-1.54-.87-1.84-1.56-.45-2.94-.45h-2.25v4.53ZM91.15,174.37h3.21c1.34,0,2.34-.16,3.01-.49.67-.33,1-.98,1-1.95s-.36-1.61-1.06-1.92c-.71-.31-1.84-.46-3.4-.46h-2.76v4.83Z" style="fill: #231f20; stroke-width: 0px;"/>
        <path d="M116.12,178.32v-20.96h4.68v16.79h8.93v4.17h-13.61Z" style="fill: #231f20; stroke-width: 0px;"/>
        <path d="M157.26,157.37v4.17h-10.43v4.32h9.38v3.99h-9.38v4.35h10.76v4.14h-15.44v-20.96h15.11Z" style="fill: #231f20; stroke-width: 0px;"/>
        <path d="M192.56,161.55c-.45.37-.67.86-.67,1.47s.27,1.09.82,1.45c.55.36,1.82.78,3.81,1.27,1.99.49,3.53,1.22,4.63,2.2s1.65,2.41,1.65,4.29-.71,3.4-2.11,4.57c-1.41,1.17-3.26,1.75-5.56,1.75-3.32,0-6.31-1.23-8.96-3.69l2.79-3.42c2.26,1.98,4.35,2.97,6.27,2.97.86,0,1.53-.18,2.02-.55.49-.37.73-.87.73-1.5s-.26-1.13-.78-1.5c-.52-.37-1.55-.74-3.09-1.12-2.44-.58-4.22-1.33-5.35-2.26s-1.69-2.39-1.69-4.38.71-3.52,2.14-4.6c1.43-1.08,3.21-1.62,5.35-1.62,1.4,0,2.8.24,4.2.72,1.4.48,2.62,1.16,3.66,2.04l-2.37,3.42c-1.82-1.38-3.7-2.07-5.64-2.07-.78,0-1.39.19-1.84.56Z" style="fill: #231f20; stroke-width: 0px;"/>
        <path d="M224.48,161.41v16.91h-4.68v-16.91h-5.94v-4.05h16.55v4.05h-5.94Z" style="fill: #231f20; stroke-width: 0px;"/>
        <path d="M248.38,172.91c.78.97,1.83,1.45,3.15,1.45s2.36-.48,3.13-1.45c.77-.97,1.15-2.29,1.15-3.97v-11.57h4.68v11.72c0,3.04-.84,5.37-2.52,7-1.68,1.63-3.83,2.44-6.45,2.44s-4.77-.82-6.46-2.46c-1.69-1.64-2.53-3.97-2.53-6.99v-11.72h4.68v11.57c0,1.68.39,3,1.17,3.97Z" style="fill: #231f20; stroke-width: 0px;"/>
        <path d="M290.35,160.11c2,1.83,3,4.37,3,7.63s-.97,5.84-2.92,7.74-4.92,2.85-8.92,2.85h-7.17v-20.96h7.41c3.74,0,6.61.91,8.61,2.74ZM286.92,172.57c1.15-1.08,1.72-2.65,1.72-4.71s-.57-3.64-1.72-4.75c-1.15-1.11-2.91-1.66-5.29-1.66h-2.61v12.74h2.97c2.14,0,3.78-.54,4.93-1.62Z" style="fill: #231f20; stroke-width: 0px;"/>
        <path d="M306.39,157.37h4.68v20.96h-4.68v-20.96Z" style="fill: #231f20; stroke-width: 0px;"/>
        <path d="M342.85,175.43c-2.12,2.07-4.73,3.1-7.83,3.1s-5.71-1.03-7.83-3.1c-2.12-2.07-3.18-4.64-3.18-7.72s1.06-5.65,3.18-7.72,4.73-3.1,7.83-3.1,5.71,1.03,7.83,3.1c2.12,2.07,3.18,4.64,3.18,7.72s-1.06,5.65-3.18,7.72ZM341.26,167.73c0-1.87-.6-3.46-1.8-4.78s-2.67-1.98-4.42-1.98-3.22.66-4.42,1.98-1.8,2.91-1.8,4.78.6,3.46,1.8,4.77,2.67,1.96,4.42,1.96,3.22-.66,4.42-1.96,1.8-2.9,1.8-4.77Z" style="fill: #231f20; stroke-width: 0px;"/>
      </g>
      <g>
        <path d="M169.34,10.81c-5.65-6.43-12.78-9.93-21.26-10.69-4.57-.41-9,.26-13.46,2.01.65.77,1.09,1.31,1.54,1.83,14.18,16.13,28.37,32.27,42.55,48.4,9.93,11.3,19.93,22.54,29.75,33.94,5.57,6.46,2.17,15.99-6.13,17.78-2.1.45-4.13-.08-6.29-.43-1.36,6.68-3.83,12.82-7.6,18.54,5.02,2.35,11.91,3.08,17.58,1.95,23.9-4.75,33.77-32.84,17.81-51.28-18.02-20.82-36.33-41.37-54.51-62.06Z" style="fill: #231f20; stroke-width: 0px;"/>
        <path d="M128.91,28.66c-3.51-4-7.04-7.98-10.72-12.16-.46.94-.84,1.61-1.12,2.32-5.01,12.6-2.91,23.97,5.99,34.12,12.52,14.27,25.08,28.51,37.62,42.76,3.92,4.46,7.84,8.91,11.92,13.54.42-.73.69-1.17.93-1.64,5.43-10.78,3.77-23.89-4.24-33.02-13.44-15.32-26.92-30.62-40.38-45.92Z" style="fill: #231f20; stroke-width: 0px;"/>
        <path d="M231.66,31.17c-.64-11.78-5.52-20.79-15.48-26.75-8.05-4.82-16.6-5.61-25.85-2.75,8.87,10.08,17.45,19.84,25.94,29.49h15.4Z" style="fill: #231f20; stroke-width: 0px;"/>
        <path d="M114.37,93.5c.6,11.58,5.36,20.52,15.04,26.51,8.12,5.03,16.84,5.93,26.27,2.96-8.84-10.04-17.42-19.8-25.93-29.47h-15.39Z" style="fill: #231f20; stroke-width: 0px;"/>
      </g>
    </g>
  </g>
</svg>