<svg
	class="size-full rounded-xl"
	width="590"
	height="468"
	viewBox="0 0 590 468"
  preserveAspectRatio="xMidYMid slice"
	fill="none"
	xmlns="http://www.w3.org/2000/svg"
	xmlns:xlink="http://www.w3.org/1999/xlink">
	<g clip-path="url(#clip0_308_28304)">
		<rect width="590" height="468" rx="12" fill="#A4AFB5"></rect>
		<g opacity="0.1">
			<path
				d="M-17.1464 447.873H-52.376L-32.376 503.081H603.47V447.873V142.545H493.724V447.873H446.272V359.197H396.896V447.873H379.187V132.469H306.205V322.92H292.097V259.437H231.926V435.781H159.083V291.682H117.39V359.197H85.5227H66.3767V248.352H-17.1464V447.873Z"
				fill="#414141"></path>
			<path
				d="M-17.1464 447.873H-52.376L-32.376 503.081H603.47V447.873V142.545H493.724V447.873H446.272V359.197H396.896V447.873H379.187V132.469H306.205V322.92H292.097V259.437H231.926V435.781H159.083V291.682H117.39V359.197H85.5227H66.3767V248.352H-17.1464V447.873Z"
				fill="url(#pattern0)"></path>
		</g>
		<path d="M136.851 60.3889L470.054 -3.9624" stroke="#262625" stroke-width="2"
		></path>
		<path
			fill-rule="evenodd"
			clip-rule="evenodd"
			d="M-37.8134 63.0516C-39.0431 66.1435 -39.6559 69.5387 -39.5059 73.0784C-38.9358 86.5236 -27.5742 96.9611 -14.129 96.391C-4.61206 95.9875 3.39787 90.1773 7.06389 82.0484C23.8441 84.6431 37.3659 81.4558 40.9825 72.7903C41.8436 70.7271 42.089 68.4831 41.7789 66.125C44.9129 65.3655 47.1998 62.5309 47.1792 59.211C47.2681 59.2082 47.3571 59.2049 47.4462 59.2011C60.0486 58.6668 70.0085 48.6515 70.7383 36.326C73.3513 37.1427 76.1474 37.5295 79.0399 37.4069C85.7148 37.1239 91.6483 34.1812 95.8617 29.6444C97.9659 30.9979 100.494 31.7381 103.184 31.6241C106.725 31.4739 109.862 29.8721 112.044 27.4169C114.026 31.4122 118.226 34.0789 122.969 33.8778C129.361 33.6068 134.33 28.2299 134.108 21.8477C142.423 19.3031 148.305 11.3972 147.919 2.30495C147.462 -8.4935 138.337 -16.8763 127.538 -16.4184C122.347 -16.1984 117.714 -13.9754 114.353 -10.5264C111.125 -13.071 107.005 -14.5168 102.575 -14.3291C97.4844 -14.1132 92.9832 -11.7817 89.8837 -8.2185C87.6594 -9.46261 85.2237 -10.3668 82.6499 -10.8639C79.5948 -22.4894 70.476 -33.5767 57.1916 -40.0665C35.6306 -50.5997 11.2611 -45.0333 2.76091 -27.6336C-1.06459 -19.803 -1.02394 -10.9102 2.14314 -2.53708C-16.3636 -8.86365 -33.6586 -6.4956 -38.7586 3.94391C-41.4616 9.47685 -40.2707 16.3183 -36.1177 23.1215C-45.2091 23.9848 -51.8996 27.3168 -54.2842 33.0303C-57.8292 41.5243 -50.9392 53.0817 -37.8134 63.0516Z"
			fill="#A4AFB5"></path>
		<path
			d="M-37.8134 63.0516L-37.3487 63.2364L-37.2083 62.8833L-37.5109 62.6534L-37.8134 63.0516ZM7.06389 82.0484L7.1403 81.5542L6.76445 81.4961L6.6081 81.8428L7.06389 82.0484ZM40.9825 72.7903L41.4439 72.9829L40.9825 72.7903ZM41.7789 66.125L41.6611 65.6391L41.2246 65.7449L41.2832 66.1902L41.7789 66.125ZM47.1792 59.211L47.1634 58.7112L46.6762 58.7266L46.6792 59.2141L47.1792 59.211ZM70.7383 36.326L70.8874 35.8488L70.277 35.658L70.2392 36.2965L70.7383 36.326ZM95.8617 29.6444L96.1322 29.2239L95.7802 28.9974L95.4953 29.3041L95.8617 29.6444ZM112.044 27.4169L112.492 27.1947L112.163 26.5308L111.67 27.0847L112.044 27.4169ZM134.108 21.8477L133.962 21.3696L133.595 21.4818L133.608 21.865L134.108 21.8477ZM114.353 -10.5264L114.044 -10.1337L114.397 -9.85514L114.712 -10.1775L114.353 -10.5264ZM89.8837 -8.2185L89.6396 -7.78212L89.9943 -7.58377L90.261 -7.89036L89.8837 -8.2185ZM82.6499 -10.8639L82.1664 -10.7369L82.2463 -10.4327L82.5551 -10.373L82.6499 -10.8639ZM57.1916 -40.0665L56.9721 -39.6172L57.1916 -40.0665ZM2.76091 -27.6336L3.21017 -27.4142L2.76091 -27.6336ZM2.14314 -2.53708L1.98141 -2.06396L2.98666 -1.72031L2.61081 -2.71397L2.14314 -2.53708ZM-38.7586 3.94391L-39.2079 3.72443L-39.2079 3.72444L-38.7586 3.94391ZM-36.1177 23.1215L-36.0704 23.6192L-35.2741 23.5436L-35.6909 22.8609L-36.1177 23.1215ZM-54.2842 33.0303L-53.8227 33.2229L-54.2842 33.0303ZM-39.0063 73.0572C-39.1534 69.5893 -38.553 66.2642 -37.3487 63.2364L-38.2779 62.8668C-39.5332 66.0229 -40.1585 69.4882 -40.0054 73.0996L-39.0063 73.0572ZM-14.1501 95.8915C-27.3195 96.4498 -38.448 86.2266 -39.0063 73.0572L-40.0054 73.0996C-39.4237 86.8207 -27.8289 97.4723 -14.1078 96.8906L-14.1501 95.8915ZM6.6081 81.8428C3.01675 89.8062 -4.82924 95.4963 -14.1501 95.8915L-14.1078 96.8906C-4.39486 96.4788 3.77902 90.5484 7.51969 82.2539L6.6081 81.8428ZM40.5211 72.5977C38.796 76.7311 34.6816 79.6239 28.8327 81.1583C22.9888 82.6914 15.4864 82.8448 7.1403 81.5542L6.98749 82.5425C15.4216 83.8467 23.0702 83.7039 29.0864 82.1256C35.0976 80.5486 39.5524 77.515 41.4439 72.9829L40.5211 72.5977ZM41.2832 66.1902C41.5832 68.472 41.3441 70.6257 40.5211 72.5977L41.4439 72.9829C42.3431 70.8284 42.5947 68.4941 42.2746 66.0598L41.2832 66.1902ZM46.6792 59.2141C46.6984 62.2985 44.5733 64.9334 41.6611 65.6391L41.8966 66.611C45.2525 65.7977 47.7013 62.7634 47.6792 59.2079L46.6792 59.2141ZM47.4251 58.7015C47.3377 58.7052 47.2505 58.7085 47.1634 58.7112L47.195 59.7107C47.2857 59.7079 47.3765 59.7045 47.4674 59.7006L47.4251 58.7015ZM70.2392 36.2965C69.5244 48.3685 59.7686 58.1782 47.4251 58.7015L47.4674 59.7006C60.3287 59.1554 70.4926 48.9345 71.2374 36.3556L70.2392 36.2965ZM79.0188 36.9073C76.1847 37.0275 73.4461 36.6485 70.8874 35.8488L70.5891 36.8033C73.2564 37.6369 76.1101 38.0315 79.0611 37.9064L79.0188 36.9073ZM95.4953 29.3041C91.3678 33.7484 85.5568 36.6301 79.0188 36.9073L79.0611 37.9064C85.8727 37.6176 91.9287 34.614 96.2281 29.9846L95.4953 29.3041ZM103.162 31.1245C100.579 31.2341 98.1525 30.5235 96.1322 29.2239L95.5912 30.0649C97.7793 31.4724 100.409 32.2422 103.205 32.1236L103.162 31.1245ZM111.67 27.0847C109.574 29.4429 106.563 30.9804 103.162 31.1245L103.205 32.1236C106.887 31.9675 110.149 30.3013 112.418 27.7491L111.67 27.0847ZM122.948 33.3782C118.409 33.5706 114.389 31.0194 112.492 27.1947L111.596 27.6391C113.663 31.8049 118.043 34.5871 122.99 34.3773L122.948 33.3782ZM133.608 21.865C133.82 27.973 129.065 33.1189 122.948 33.3782L122.99 34.3773C129.657 34.0947 134.839 28.4869 134.608 21.8304L133.608 21.865ZM147.42 2.32613C147.795 11.1854 142.064 18.89 133.962 21.3696L134.255 22.3258C142.781 19.7163 148.814 11.6091 148.419 2.28377L147.42 2.32613ZM127.559 -15.9189C138.082 -16.365 146.974 -8.19643 147.42 2.32613L148.419 2.28377C147.949 -8.79058 138.591 -17.3875 127.517 -16.918L127.559 -15.9189ZM114.712 -10.1775C117.987 -13.5387 122.501 -15.7044 127.559 -15.9189L127.517 -16.918C122.193 -16.6923 117.442 -14.412 113.995 -10.8754L114.712 -10.1775ZM102.596 -13.8295C106.902 -14.012 110.906 -12.6071 114.044 -10.1337L114.663 -10.9191C111.344 -13.5349 107.107 -15.0217 102.554 -14.8286L102.596 -13.8295ZM90.261 -7.89036C93.2741 -11.3543 97.6484 -13.6197 102.596 -13.8295L102.554 -14.8286C97.3204 -14.6067 92.6923 -12.2092 89.5065 -8.54665L90.261 -7.89036ZM82.5551 -10.373C85.0756 -9.88619 87.461 -9.00069 89.6396 -7.78212L90.1278 -8.65489C87.8578 -9.92453 85.3718 -10.8475 82.7448 -11.3549L82.5551 -10.373ZM56.9721 -39.6172C70.141 -33.1838 79.1523 -22.206 82.1664 -10.7369L83.1335 -10.991C80.0373 -22.7728 70.8109 -33.9695 57.411 -40.5157L56.9721 -39.6172ZM3.21017 -27.4142C11.5476 -44.4805 35.5645 -50.0755 56.9721 -39.6172L57.411 -40.5157C35.6967 -51.1238 10.9747 -45.586 2.31167 -27.8531L3.21017 -27.4142ZM2.61081 -2.71397C-0.515298 -10.9787 -0.545728 -19.726 3.21017 -27.4142L2.31167 -27.8531C-1.58344 -19.88 -1.53257 -10.8416 1.67548 -2.36019L2.61081 -2.71397ZM-38.3094 4.16338C-35.8583 -0.853825 -30.4443 -3.99716 -23.2601 -5.08955C-16.0826 -6.18091 -7.21466 -5.20766 1.98141 -2.06396L2.30489 -3.0102C-7.00576 -6.19306 -16.0387 -7.19908 -23.4104 -6.07819C-30.7754 -4.95831 -36.5589 -1.69787 -39.2079 3.72443L-38.3094 4.16338ZM-35.6909 22.8609C-39.7979 16.1332 -40.9073 9.48134 -38.3094 4.16338L-39.2079 3.72444C-42.0159 9.47235 -40.7435 16.5034 -36.5444 23.382L-35.6909 22.8609ZM-53.8227 33.2229C-51.5475 27.7712 -45.1039 24.4771 -36.0704 23.6192L-36.1649 22.6237C-45.3142 23.4926 -52.2518 26.8624 -54.7456 32.8377L-53.8227 33.2229ZM-37.5109 62.6534C-44.0386 57.6953 -48.9879 52.3623 -51.8644 47.2426C-54.7429 42.1192 -55.5137 37.2745 -53.8227 33.2229L-54.7456 32.8377C-56.5996 37.2801 -55.6979 42.461 -52.7362 47.7324C-49.7725 53.0074 -44.714 58.438 -38.1158 63.4498L-37.5109 62.6534Z"
			fill="#262625"></path>
		<path
			fill-rule="evenodd"
			clip-rule="evenodd"
			d="M30.2553 193.219C28.9105 194.873 27.8846 196.83 27.2972 199.022C25.0662 207.349 30.0073 215.907 38.3336 218.138C44.2273 219.717 50.2372 217.703 54.0371 213.438C63.7944 218.243 72.6695 218.889 76.5421 214.287C77.4642 213.192 78.0446 211.867 78.3075 210.367C80.3684 210.504 82.3096 209.21 82.9339 207.177C82.9888 207.193 83.044 207.208 83.0992 207.223C90.9036 209.314 98.9118 205.104 101.722 197.711C103.163 198.711 104.797 199.484 106.589 199.964C110.722 201.072 114.912 200.412 118.358 198.448C119.384 199.678 120.787 200.616 122.452 201.062C124.646 201.65 126.87 201.272 128.675 200.19C129.12 203.012 131.175 205.448 134.113 206.235C138.071 207.296 142.139 204.963 143.228 201.02C148.797 201.059 153.908 197.356 155.417 191.726C157.209 185.039 153.24 178.165 146.553 176.374C143.338 175.512 140.081 175.982 137.365 177.445C135.88 175.27 133.64 173.596 130.897 172.861C127.744 172.017 124.546 172.578 121.968 174.161C120.848 172.974 119.533 171.954 118.055 171.157C118.419 163.466 114.973 154.941 108.099 148.426C96.9432 137.852 80.9822 136.579 72.4494 145.582C68.6091 149.634 66.9279 155.076 67.2572 160.801C57.1605 153.384 46.136 151.513 41.0163 156.915C38.303 159.778 37.7183 164.187 38.9513 169.142C33.2298 167.925 28.502 168.678 25.9487 171.712C22.1527 176.223 24.1462 184.608 30.2553 193.219Z"
			fill="#A4AFB5"></path>
		<path
			d="M30.2553 193.219L30.6432 193.535L30.883 193.24L30.6631 192.93L30.2553 193.219ZM54.0371 213.438L54.258 212.99L53.9168 212.822L53.6638 213.106L54.0371 213.438ZM76.5421 214.287L76.1596 213.965L76.1596 213.965L76.5421 214.287ZM78.3075 210.367L78.3407 209.868L77.8925 209.838L77.815 210.281L78.3075 210.367ZM82.9339 207.177L83.0685 206.696L82.599 206.565L82.4559 207.031L82.9339 207.177ZM101.722 197.711L102.008 197.3L101.482 196.936L101.255 197.533L101.722 197.711ZM118.358 198.448L118.742 198.127L118.474 197.806L118.11 198.013L118.358 198.448ZM128.675 200.19L129.169 200.112L129.054 199.38L128.418 199.761L128.675 200.19ZM143.228 201.02L143.232 200.52L142.848 200.517L142.746 200.887L143.228 201.02ZM137.365 177.445L136.952 177.727L137.206 178.099L137.602 177.885L137.365 177.445ZM121.968 174.161L121.605 174.504L121.884 174.8L122.23 174.587L121.968 174.161ZM118.055 171.157L117.556 171.133L117.541 171.447L117.818 171.597L118.055 171.157ZM108.099 148.426L108.443 148.063L108.099 148.426ZM72.4494 145.582L72.8123 145.926L72.4494 145.582ZM67.2572 160.801L66.9612 161.204L67.8174 161.833L67.7564 160.773L67.2572 160.801ZM41.0163 156.915L41.3792 157.259L41.0163 156.915ZM38.9513 169.142L38.8473 169.631L39.6296 169.797L39.4365 169.021L38.9513 169.142ZM25.9487 171.712L26.3313 172.034L25.9487 171.712ZM27.7802 199.152C28.3489 197.029 29.342 195.135 30.6432 193.535L29.8673 192.904C28.479 194.611 27.4202 196.632 26.8142 198.893L27.7802 199.152ZM38.463 217.655C30.4035 215.496 25.6206 207.211 27.7802 199.152L26.8142 198.893C24.5117 207.486 29.6112 216.319 38.2042 218.621L38.463 217.655ZM53.6638 213.106C49.9847 217.235 44.1672 219.184 38.463 217.655L38.2042 218.621C44.2874 220.251 50.4897 218.171 54.4104 213.771L53.6638 213.106ZM76.1596 213.965C74.3624 216.101 71.3589 217.074 67.5201 216.891C63.6866 216.708 59.0967 215.373 54.258 212.99L53.8162 213.887C58.7348 216.309 63.461 217.699 67.4725 217.89C71.4788 218.081 74.8493 217.076 76.9247 214.609L76.1596 213.965ZM77.815 210.281C77.5654 211.705 77.018 212.945 76.1596 213.965L76.9247 214.609C77.9104 213.438 78.5239 212.029 78.8 210.453L77.815 210.281ZM82.4559 207.031C81.9008 208.838 80.1738 209.99 78.3407 209.868L78.2744 210.866C80.5631 211.018 82.7185 209.582 83.4119 207.324L82.4559 207.031ZM83.2287 206.74C83.1751 206.725 83.1217 206.711 83.0685 206.696L82.7993 207.659C82.856 207.675 82.9128 207.69 82.9698 207.706L83.2287 206.74ZM101.255 197.533C98.5347 204.689 90.7827 208.764 83.2287 206.74L82.9698 207.706C91.0245 209.864 99.289 205.519 102.19 197.889L101.255 197.533ZM106.718 199.481C104.983 199.017 103.401 198.268 102.008 197.3L101.437 198.122C102.924 199.155 104.611 199.952 106.459 200.447L106.718 199.481ZM118.11 198.013C114.775 199.915 110.719 200.553 106.718 199.481L106.459 200.447C110.725 201.59 115.05 200.909 118.605 198.882L118.11 198.013ZM122.582 200.579C121.019 200.16 119.704 199.282 118.742 198.127L117.974 198.768C119.064 200.075 120.555 201.071 122.323 201.545L122.582 200.579ZM128.418 199.761C126.725 200.776 124.639 201.13 122.582 200.579L122.323 201.545C124.652 202.169 127.016 201.768 128.932 200.619L128.418 199.761ZM134.242 205.753C131.502 205.018 129.584 202.746 129.169 200.112L128.181 200.268C128.655 203.278 130.848 205.878 133.983 206.718L134.242 205.753ZM142.746 200.887C141.73 204.566 137.935 206.742 134.242 205.753L133.983 206.718C138.207 207.85 142.548 205.361 143.71 201.153L142.746 200.887ZM154.934 191.597C153.486 197.002 148.579 200.558 143.232 200.52L143.225 201.52C149.016 201.561 154.331 197.711 155.9 191.856L154.934 191.597ZM146.424 176.857C152.844 178.577 156.654 185.176 154.934 191.597L155.9 191.856C157.763 184.902 153.636 177.754 146.682 175.891L146.424 176.857ZM137.602 177.885C140.21 176.48 143.337 176.03 146.424 176.857L146.682 175.891C143.34 174.995 139.951 175.484 137.128 177.005L137.602 177.885ZM130.767 173.344C133.39 174.047 135.532 175.647 136.952 177.727L137.778 177.163C136.228 174.893 133.889 173.146 131.026 172.378L130.767 173.344ZM122.23 174.587C124.695 173.073 127.753 172.537 130.767 173.344L131.026 172.378C127.735 171.497 124.396 172.083 121.707 173.735L122.23 174.587ZM117.818 171.597C119.248 172.369 120.52 173.355 121.605 174.504L122.332 173.818C121.175 172.593 119.818 171.54 118.293 170.717L117.818 171.597ZM107.755 148.789C114.536 155.215 117.912 163.604 117.556 171.133L118.555 171.18C118.926 163.328 115.41 154.666 108.443 148.063L107.755 148.789ZM72.8123 145.926C81.0899 137.192 96.7231 138.333 107.755 148.789L108.443 148.063C97.1632 137.372 80.8745 135.966 72.0865 145.238L72.8123 145.926ZM67.7564 160.773C67.4337 155.163 69.0811 149.863 72.8123 145.926L72.0865 145.238C68.1371 149.405 66.4221 154.99 66.758 160.83L67.7564 160.773ZM41.3792 157.259C43.784 154.721 47.6262 153.839 52.1941 154.545C56.7552 155.25 61.9616 157.531 66.9612 161.204L67.5532 160.398C62.4561 156.654 57.102 154.291 52.3468 153.557C47.5983 152.823 43.3684 153.706 40.6534 156.571L41.3792 157.259ZM39.4365 169.021C38.2249 164.152 38.8305 159.948 41.3792 157.259L40.6534 156.571C37.7755 159.607 37.2118 164.222 38.4661 169.262L39.4365 169.021ZM26.3313 172.034C28.7019 169.217 33.1827 168.426 38.8473 169.631L39.0552 168.652C33.2769 167.424 28.3021 168.139 25.5661 171.39L26.3313 172.034ZM30.6631 192.93C27.6342 188.661 25.646 184.474 24.8768 180.825C24.1068 177.172 24.5696 174.128 26.3313 172.034L25.5661 171.39C23.5318 173.808 23.0933 177.212 23.8983 181.031C24.7042 184.855 26.7673 189.167 29.8475 193.509L30.6631 192.93Z"
			fill="#262625"></path>
		<path
			fill-rule="evenodd"
			clip-rule="evenodd"
			d="M544.37 5.01045C543.569 7.02685 543.169 9.24103 543.267 11.5494C543.639 20.3183 551.049 27.1255 559.817 26.7537C566.024 26.4905 571.248 22.7012 573.639 17.3997C584.583 19.0919 593.401 17.0131 595.76 11.3616C596.322 10.0159 596.482 8.5523 596.279 7.01427C598.323 6.51895 599.815 4.6704 599.801 2.50526C599.859 2.50342 599.918 2.50128 599.976 2.49881C608.195 2.15034 614.691 -4.38178 615.167 -12.4205C616.871 -11.8879 618.695 -11.6356 620.581 -11.7155C624.934 -11.9001 628.804 -13.8192 631.552 -16.778C632.924 -15.8952 634.573 -15.4125 636.327 -15.4869C638.637 -15.5848 640.682 -16.6294 642.106 -18.2306C643.398 -15.6249 646.138 -13.8857 649.231 -14.0169C653.4 -14.1936 656.64 -17.7002 656.496 -21.8625C661.919 -23.5219 665.755 -28.6782 665.504 -34.6083C665.205 -41.651 659.254 -47.1182 652.211 -46.8196C648.826 -46.6761 645.804 -45.2262 643.613 -42.9769C641.507 -44.6366 638.819 -45.5796 635.931 -45.4571C632.61 -45.3164 629.675 -43.7959 627.653 -41.472C626.203 -42.2834 624.614 -42.8732 622.936 -43.1974C620.943 -50.7794 614.996 -58.0104 606.332 -62.243C592.27 -69.1126 576.376 -65.4823 570.833 -54.1344C568.338 -49.0272 568.364 -43.2272 570.43 -37.7662C558.36 -41.8924 547.08 -40.3481 543.754 -33.5394C541.991 -29.9309 542.768 -25.469 545.476 -21.032C539.547 -20.469 535.183 -18.2959 533.628 -14.5695C531.316 -9.02975 535.81 -1.49189 544.37 5.01045Z"
			fill="#A4AFB5"></path>
		<path
			d="M544.37 5.01045L544.835 5.19522L544.976 4.84212L544.673 4.61228L544.37 5.01045ZM573.639 17.3997L573.716 16.9056L573.34 16.8475L573.183 17.1942L573.639 17.3997ZM595.76 11.3616L596.221 11.5542L595.76 11.3616ZM596.279 7.01427L596.162 6.52834L595.725 6.63413L595.784 7.07948L596.279 7.01427ZM599.801 2.50526L599.786 2.00551L599.298 2.02092L599.301 2.50833L599.801 2.50526ZM615.167 -12.4205L615.316 -12.8978L614.705 -13.0886L614.667 -12.4501L615.167 -12.4205ZM631.552 -16.778L631.822 -17.1985L631.47 -17.4249L631.186 -17.1182L631.552 -16.778ZM642.106 -18.2306L642.554 -18.4528L642.224 -19.1166L641.732 -18.5628L642.106 -18.2306ZM656.496 -21.8625L656.35 -22.3407L655.983 -22.2285L655.996 -21.8452L656.496 -21.8625ZM643.613 -42.9769L643.303 -42.5842L643.656 -42.3056L643.971 -42.6279L643.613 -42.9769ZM627.653 -41.472L627.409 -41.0357L627.764 -40.8373L628.031 -41.1439L627.653 -41.472ZM622.936 -43.1974L622.452 -43.0703L622.532 -42.7661L622.841 -42.7064L622.936 -43.1974ZM606.332 -62.243L606.551 -62.6922L606.332 -62.243ZM570.833 -54.1344L570.383 -54.3538L570.833 -54.1344ZM570.43 -37.7662L570.268 -37.2931L571.273 -36.9494L570.897 -37.9431L570.43 -37.7662ZM543.754 -33.5394L543.304 -33.7589L543.754 -33.5394ZM545.476 -21.032L545.523 -20.5343L546.32 -20.6099L545.903 -21.2925L545.476 -21.032ZM533.628 -14.5695L534.089 -14.377L534.089 -14.377L533.628 -14.5695ZM543.766 11.5282C543.672 9.29155 544.059 7.14748 544.835 5.19522L543.906 4.82567C543.078 6.90623 542.666 9.1905 542.767 11.5705L543.766 11.5282ZM559.796 26.2541C551.303 26.6142 544.126 20.0212 543.766 11.5282L542.767 11.5705C543.151 20.6153 550.794 27.6367 559.839 27.2532L559.796 26.2541ZM573.183 17.1942C570.867 22.3301 565.807 25.9993 559.796 26.2541L559.839 27.2532C566.241 26.9818 571.629 23.0724 574.095 17.6053L573.183 17.1942ZM595.299 11.169C594.203 13.7954 591.578 15.6576 587.792 16.6509C584.011 17.6429 579.143 17.7449 573.716 16.9056L573.563 17.8939C579.079 18.7467 584.092 18.6554 588.046 17.6182C591.994 16.5823 594.959 14.5793 596.221 11.5542L595.299 11.169ZM595.784 7.07948C595.976 8.54127 595.822 9.91456 595.299 11.169L596.221 11.5542C596.821 10.1172 596.987 8.56333 596.775 6.94906L595.784 7.07948ZM599.301 2.50833C599.313 4.4379 597.984 6.08678 596.162 6.52834L596.397 7.5002C598.663 6.95112 600.316 4.90289 600.301 2.50218L599.301 2.50833ZM599.954 1.99926C599.898 2.00165 599.842 2.00373 599.786 2.00551L599.817 3.00501C599.877 3.00312 599.937 3.0009 599.997 2.99836L599.954 1.99926ZM614.667 -12.4501C614.207 -4.66478 607.915 1.66177 599.954 1.99926L599.997 2.99836C608.475 2.63892 615.175 -4.09878 615.666 -12.391L614.667 -12.4501ZM620.56 -12.2151C618.732 -12.1376 616.966 -12.3821 615.316 -12.8978L615.017 -11.9433C616.776 -11.3937 618.657 -11.1335 620.602 -11.216L620.56 -12.2151ZM631.186 -17.1182C628.524 -14.252 624.776 -12.3939 620.56 -12.2151L620.602 -11.216C625.092 -11.4064 629.084 -13.3864 631.918 -16.4377L631.186 -17.1182ZM636.306 -15.9864C634.658 -15.9165 633.111 -16.3697 631.822 -17.1985L631.281 -16.3575C632.738 -15.4207 634.488 -14.9084 636.348 -14.9873L636.306 -15.9864ZM641.732 -18.5628C640.395 -17.0586 638.475 -16.0784 636.306 -15.9864L636.348 -14.9873C638.799 -15.0912 640.97 -16.2002 642.479 -17.8984L641.732 -18.5628ZM649.21 -14.5164C646.321 -14.3939 643.762 -16.0177 642.554 -18.4528L641.658 -18.0084C643.035 -15.2322 645.954 -13.3775 649.252 -13.5173L649.21 -14.5164ZM655.996 -21.8452C656.131 -17.9571 653.104 -14.6815 649.21 -14.5164L649.252 -13.5173C653.695 -13.7057 657.149 -17.4433 656.996 -21.8799L655.996 -21.8452ZM665.004 -34.5872C665.246 -28.89 661.56 -23.9351 656.35 -22.3407L656.642 -21.3844C662.277 -23.1088 666.265 -28.4664 666.003 -34.6295L665.004 -34.5872ZM652.233 -46.32C658.999 -46.6069 664.717 -41.3539 665.004 -34.5872L666.003 -34.6295C665.693 -41.9481 659.509 -47.6294 652.19 -47.3191L652.233 -46.32ZM643.971 -42.6279C646.077 -44.7896 648.979 -46.1821 652.233 -46.32L652.19 -47.3191C648.672 -47.17 645.532 -45.6629 643.254 -43.3258L643.971 -42.6279ZM635.952 -44.9576C638.717 -45.0748 641.288 -44.1727 643.303 -42.5842L643.922 -43.3695C641.726 -45.1005 638.922 -46.0844 635.909 -45.9567L635.952 -44.9576ZM628.031 -41.1439C629.966 -43.3684 632.774 -44.8229 635.952 -44.9576L635.909 -45.9567C632.446 -45.8099 629.384 -44.2233 627.276 -41.8002L628.031 -41.1439ZM622.841 -42.7064C624.466 -42.3925 626.004 -41.8215 627.409 -41.0357L627.897 -41.9084C626.401 -42.7454 624.762 -43.3538 623.03 -43.6883L622.841 -42.7064ZM606.112 -61.7937C614.661 -57.6175 620.5 -50.496 622.452 -43.0703L623.419 -43.3245C621.385 -51.0628 615.331 -58.4032 606.551 -62.6922L606.112 -61.7937ZM571.282 -53.9149C576.663 -64.9295 592.204 -68.5884 606.112 -61.7937L606.551 -62.6922C592.336 -69.6368 576.09 -66.035 570.383 -54.3538L571.282 -53.9149ZM570.897 -37.9431C568.873 -43.2957 568.856 -48.9502 571.282 -53.9149L570.383 -54.3538C567.819 -49.1042 567.855 -43.1586 569.962 -37.5893L570.897 -37.9431ZM544.203 -33.32C545.767 -36.5217 549.234 -38.5514 553.888 -39.2591C558.535 -39.9657 564.29 -39.3366 570.268 -37.2931L570.592 -38.2393C564.499 -40.322 558.579 -40.9839 553.738 -40.2477C548.903 -39.5126 545.067 -37.3658 543.304 -33.7589L544.203 -33.32ZM545.903 -21.2925C543.24 -25.6541 542.545 -29.9264 544.203 -33.32L543.304 -33.7589C541.437 -29.9354 542.295 -25.2839 545.049 -20.7715L545.903 -21.2925ZM534.089 -14.377C535.535 -17.8414 539.652 -19.9767 545.523 -20.5343L545.429 -21.5298C539.442 -20.9612 534.831 -18.7503 533.166 -14.7621L534.089 -14.377ZM544.673 4.61228C540.428 1.38791 537.219 -2.07334 535.358 -5.38542C533.495 -8.70114 533.015 -11.8024 534.089 -14.377L533.166 -14.7621C531.929 -11.7969 532.54 -8.35932 534.486 -4.89558C536.434 -1.4282 539.752 2.13065 544.068 5.40862L544.673 4.61228Z"
			fill="#262625"></path>
		<path d="M278.16 62.0824L470.054 -3.9624" stroke="#262625" stroke-width="2"
		></path>
		<path d="M538.664 62.0824L463.658 -3.9624" stroke="#262625" stroke-width="2"
		></path>
		<path d="M603.47 58.6742L463.657 -3.9624" stroke="#262625" stroke-width="2"
		></path>
		<path
			d="M483.655 86.4636L491.874 81.2963C492.004 81.2148 492.173 81.3034 492.181 81.4565L493.111 101.718H483.655L483.655 86.4636Z"
			fill="#262625"
			stroke="#A4AFB5"></path>
		<path
			d="M592.269 115.735L608.584 101.804H491.673L482.653 115.735H592.269Z"
			fill="#414141"></path>
		<path
			d="M592.269 115.735L608.584 101.804H491.673L482.653 115.735H592.269Z"
			fill="url(#pattern1)"></path>
		<path
			d="M592.269 115.735L608.584 101.804H491.673L482.653 115.735H592.269Z"
			stroke="#A4AFB5"></path>
		<path
			d="M446.211 101.339L435.882 107.249L435.549 470.228H446.211V101.339Z"
			fill="#262625"></path>
		<path
			d="M446.211 101.339L435.882 107.249L435.549 470.228H446.211V101.339Z"
			fill="#414141"></path>
		<path
			d="M446.211 101.339L435.882 107.249L435.549 470.228H446.211V101.339Z"
			fill="url(#pattern2)"></path>
		<path d="M446.092 101.289H492.96V497.311H446.092V101.289Z" fill="#262625"
		></path>
		<path
			d="M446.092 101.289H492.96V497.311H446.092V101.289ZM446.092 101.289L435.739 107.306V480.147"
			stroke="#A4AFB5"></path>
		<path
			d="M447.42 101.289H492.295L446.924 148.115H492.295L446.924 194.941H492.295L446.924 241.767H492.295"
			stroke="#A4AFB5"></path>
		<path
			d="M447.42 241.767H492.295L446.924 288.593H492.295L446.924 335.419H492.295L446.924 382.245H492.295"
			stroke="#A4AFB5"></path>
		<path
			d="M447.42 382.245H492.295L446.924 429.071H492.295L446.924 475.897H492.295L446.924 522.724H492.295"
			stroke="#A4AFB5"></path>
		<path
			d="M445.463 102.439L435.549 153.16L446.924 148.16L435.549 199.98L446.924 194.98L435.549 246.801L446.924 241.801"
			stroke="#A4AFB5"></path>
		<path
			d="M435.673 246.801L446.924 241.801L435.549 293.621L446.924 288.621L435.549 340.442L446.924 335.442L435.549 387.262L446.924 382.262"
			stroke="#A4AFB5"></path>
		<path
			d="M435.673 387.262L446.924 382.262L435.549 434.083L446.924 429.083L435.549 480.903L446.924 475.903L435.549 522.724H446.924"
			stroke="#A4AFB5"></path>
		<path
			d="M423.986 249.445L515.668 249.445L503.258 256.473L493.463 258.033V254.129L446.33 254.657L429.013 257.898L411.647 256.473L423.986 249.445Z"
			fill="#262625"></path>
		<path
			d="M493.096 255.659L510.531 252.685L498.121 259.712L493.096 259.712L493.096 255.659Z"
			fill="#262625"></path>
		<path
			d="M424.324 126.348H531.663C535.529 126.348 538.663 129.482 538.663 133.348V187.713L516.873 218.396V249.079H424.324V126.348Z"
			fill="#262625"
			stroke="#A4AFB5"></path>
		<path d="M517.119 249.13L503.944 256.596" stroke="#A4AFB5"></path>
		<path
			d="M413.114 255.46L406.915 259.564L405.944 259.844L435.215 260.171V255.459L413.114 255.46Z"
			fill="#262625"></path>
		<path
			d="M404.982 139.433L424.556 126.087L424.761 248.869L404.982 260.068V139.433Z"
			fill="#414141"></path>
		<path
			d="M404.982 139.433L424.556 126.087L424.761 248.869L404.982 260.068V139.433Z"
			fill="url(#pattern3)"></path>
		<path
			d="M404.982 260.068V141.547C404.982 140.225 405.636 138.988 406.729 138.242L423.932 126.513C424.197 126.332 424.557 126.521 424.557 126.842L424.761 248.869L404.982 260.068ZM404.982 260.068H435.817"
			stroke="#A4AFB5"></path>
		<path d="M505.783 255.555L498.166 260.078H492.879" stroke="#A4AFB5"></path>
		<path d="M446.062 258.008V254.146" stroke="#A4AFB5"></path>
		<path
			d="M435.525 257.198L445.975 254.206H493.015V257.837V260.314"
			stroke="#A4AFB5"></path>
		<path d="M516.89 218.35H424.764L405.138 229.779" stroke="#A4AFB5"></path>
		<rect
			x="430.797"
			y="132.469"
			width="101.445"
			height="52.6008"
			rx="4"
			fill="#262625"
			stroke="#A4AFB5"></rect>
		<ellipse
			cx="14.5619"
			cy="40.4147"
			rx="14.5619"
			ry="40.4147"
			transform="matrix(0.219862 0.975531 -0.959101 0.283065 518.215 133.128)"
			stroke="#777981"></ellipse>
		<ellipse
			cx="14.5928"
			cy="40.3087"
			rx="14.5928"
			ry="40.3087"
			transform="matrix(-0.241513 0.970398 -0.955018 -0.296548 524.673 156.562)"
			stroke="#777981"></ellipse>
		<path
			d="M464.151 -18.478L446.177 101.813H493.015L464.151 -18.478Z"
			fill="#262625"
			stroke="#A4AFB5"></path>
		<path
			d="M462.51 -5.74902L435.908 107.22L446.238 101.85L464.243 -5.74902H462.51Z"
			fill="#414141"></path>
		<path
			d="M462.51 -5.74902L435.908 107.22L446.238 101.85L464.243 -5.74902H462.51Z"
			fill="url(#pattern4)"></path>
		<path
			d="M462.51 -5.74902L435.908 107.22L446.238 101.85L464.243 -5.74902H462.51Z"
			stroke="#A4AFB5"></path>
		<path
			d="M446.355 101.898L483.941 64.9957L456.265 43.1275L472.153 15.4507"
			stroke="#A4AFB5"></path>
		<path
			d="M436.158 106.592L450.48 76.1013L446.784 61.318L456.139 42.9544L455.215 25.2837"
			stroke="#A4AFB5"></path>
		<path
			d="M505.783 51.8164V101.579H564.096V51.8164L505.783 51.8164Z"
			fill="#262625"
			stroke="#A4AFB5"></path>
		<path
			d="M496.041 58.9602L505.755 52V84.1241L496.041 87.3365V58.9602Z"
			fill="#414141"></path>
		<path
			d="M496.041 58.9602L505.755 52V84.1241L496.041 87.3365V58.9602Z"
			fill="url(#pattern5)"></path>
		<path
			d="M496.041 58.9602L505.755 52V84.1241L496.041 87.3365V58.9602Z"
			stroke="#A4AFB5"></path>
		<path
			d="M567.842 58.9602L577.556 52V84.1241L567.842 87.3365V58.9602Z"
			fill="#262625"
			stroke="#A4AFB5"></path>
		<path
			d="M577.556 51.8164V101.579H618.711V51.8164L577.556 51.8164Z"
			fill="#262625"
			stroke="#A4AFB5"></path>
		<path
			d="M94.874 101.579H440.33H446.212L404.499 59.8662H136.587L94.874 101.579Z"
			fill="#262625"
			stroke="#A4AFB5"></path>
		<path
			d="M435.745 115.087L446.337 101.706L94.6855 101.605L106.399 115.087H435.745Z"
			fill="#414141"></path>
		<path
			d="M435.745 115.087L446.337 101.706L94.6855 101.605L106.399 115.087H435.745Z"
			fill="url(#pattern6)"></path>
		<path
			d="M435.745 115.087L446.337 101.706L94.6855 101.605L106.399 115.087H435.745Z"
			stroke="#A4AFB5"></path>
		<path
			d="M492.295 101.579H837.751H843.632L801.92 81.2793L492.295 81.2793V101.579Z"
			fill="#262625"
			stroke="#A4AFB5"></path>
		<path d="M492.412 91.2471H592.579" stroke="#A4AFB5"></path>
		<path d="M511.745 81.3862V101.887" stroke="#A4AFB5"></path>
		<path d="M537.824 81.3862V101.887" stroke="#A4AFB5"></path>
		<path d="M563.904 81.3862V101.887" stroke="#A4AFB5"></path>
		<path d="M589.983 81.3862V101.887" stroke="#A4AFB5"></path>
		<path
			d="M136.321 60.0166L169.888 101.255L211.127 60.0166L252.365 101.255L293.604 60.0166L334.843 101.255L376.082 60.0166L417.32 101.255L431.523 87.0531"
			stroke="#A4AFB5"></path>
		<path
			d="M106.461 114.85L133.701 101.678L163.372 114.996L192.612 101.678L224.843 114.996L252.137 101.678L289.963 114.996L334.735 101.678L361.003 114.996L417.344 101.678L435.551 114.996"
			stroke="#A4AFB5"></path>
		<path
			d="M182.96 119.289L177.802 101.149H241.829L235.457 119.289H182.96Z"
			fill="#414141"></path>
		<path
			d="M182.96 119.289L177.802 101.149H241.829L235.457 119.289H182.96Z"
			fill="url(#pattern7)"></path>
		<path
			d="M182.96 119.289L177.802 101.149H241.829L235.457 119.289H182.96Z"
			stroke="#A4AFB5"></path>
		<path
			d="M184.947 75.0474L177.802 101.14H241.829L235.559 75.0474H184.947Z"
			fill="#262625"
			stroke="#A4AFB5"></path>
		<path d="M200.438 108.346V182.793" stroke="#A4AFB5"></path>
		<path d="M218.512 108.346V182.793" stroke="#A4AFB5"></path>
		<path d="M202.697 108.346V182.793" stroke="#A4AFB5"></path>
		<path d="M220.771 108.346V182.793" stroke="#A4AFB5"></path>
		<path d="M200.438 119.289V193.62" stroke="#262625"></path>
		<path d="M218.512 119.289V190.273" stroke="#262625"></path>
		<path d="M202.697 119.289V193.62" stroke="#262625"></path>
		<path d="M220.771 119.289V190.273" stroke="#262625"></path>
		<path
			d="M79.7288 233.388C80.1173 233.388 80.4321 233.074 80.4321 232.688V196.204H338.676V205.303C338.676 205.691 338.991 206.004 339.379 206.004C339.767 206.004 340.082 205.69 340.082 205.303V188.182C340.082 185.206 337.649 182.793 334.671 182.793H84.4353C81.458 182.793 79.0244 185.206 79.0244 188.182C79.0255 201.669 79.0244 217.299 79.0244 232.688C79.0244 233.074 79.3392 233.388 79.7277 233.388H79.7288ZM87.0175 191.993C85.6322 191.993 84.4958 190.861 84.4958 189.517C84.4958 188.172 85.6322 187.006 87.0175 187.006C88.4029 187.006 89.5382 188.137 89.5382 189.517C89.5382 190.896 88.4018 191.993 87.0175 191.993ZM98.9321 191.993C97.5468 191.993 96.4103 190.861 96.4103 189.517C96.4103 188.172 97.5468 187.006 98.9321 187.006C100.317 187.006 101.453 188.137 101.453 189.517C101.453 190.896 100.316 191.993 98.9321 191.993ZM110.847 191.993C109.461 191.993 108.325 190.861 108.325 189.517C108.325 188.172 109.461 187.006 110.847 187.006C112.232 187.006 113.367 188.137 113.367 189.517C113.367 190.896 112.231 191.993 110.847 191.993Z"
			fill="#262625"></path>
		<g clip-path="url(#clip1_308_28304)">
			<path
				d="M79.0244 196.055H339.998V365.806C339.998 369.749 336.801 372.945 332.859 372.945H86.1635C82.2207 372.945 79.0244 369.749 79.0244 365.806V196.055Z"
				fill="#A4AFB5"></path>
			<path
				d="M79.8174 365.806V228.417V196.055H339.204V204.852V365.806C339.204 369.311 336.363 372.152 332.858 372.152H86.1632C82.6585 372.152 79.8174 369.311 79.8174 365.806Z"
				stroke="#262625"
				stroke-width="1.58646"></path>
			<rect x="222" y="287" width="112" height="96" rx="6.29303" fill="#262625"
			></rect>
			<rect
				x="85.0439"
				y="201"
				width="32.296"
				height="184.578"
				rx="6.29303"
				fill="#262625"></rect>
			<path
				d="M108.368 215.454L102.519 209.584C101.654 208.805 100.343 208.805 99.4785 209.584L93.6293 215.447C92.7902 216.289 92.7902 217.655 93.6293 218.497L99.4785 224.36C99.6758 224.564 99.9122 224.726 100.173 224.836C100.435 224.946 100.715 225.002 100.999 225C101.281 225.003 101.561 224.95 101.822 224.842C102.083 224.735 102.32 224.576 102.519 224.374L108.368 218.504L108.377 218.496C109.211 217.653 109.207 216.291 108.368 215.454Z"
				fill="#A4AFB5"></path>
			<circle cx="101.174" cy="271.173" r="3.17293" fill="#A4AFB5"></circle>
			<circle opacity="0.4" cx="101.174" cy="285.519" r="3.17293" fill="#A4AFB5"
			></circle>
			<circle opacity="0.4" cx="101.174" cy="299.864" r="3.17293" fill="#A4AFB5"
			></circle>
			<circle opacity="0.4" cx="101.174" cy="314.21" r="3.17293" fill="#A4AFB5"
			></circle>
			<path
				opacity="0.1"
				d="M232.541 350.481C229.591 350.94 230.215 351.311 228.388 352.225V378.273H327.532V301.277C317.325 301.278 321.995 319.208 291.672 319.999C281.652 320.79 282.706 313.23 277.96 312.352C268.384 310.581 278.523 336.543 268.838 335.53C266.399 335.275 265.37 333.035 262.941 333.37C259.94 333.785 260.188 337.796 257.293 338.686C253.508 339.849 251.527 334.691 247.658 335.53C243.951 336.333 244.141 341.915 240.348 341.925C235.24 341.94 237.588 349.694 232.541 350.481Z"
				fill="url(#paint0_linear_308_28304)"></path>
			<path
				d="M228.388 352.225C230.215 351.311 229.591 350.94 232.541 350.481C237.588 349.694 235.24 341.94 240.348 341.925C244.141 341.915 243.951 336.333 247.658 335.53C251.527 334.691 253.508 339.849 257.293 338.686C260.188 337.796 259.94 333.785 262.941 333.37C265.37 333.035 266.399 335.275 268.838 335.53C278.523 336.543 268.384 310.581 277.96 312.352C282.706 313.23 281.652 320.79 291.672 319.999C321.995 319.208 317.325 301.278 327.532 301.277"
				stroke="#A4AFB5"
				stroke-width="0.830601"
				stroke-linecap="round"></path>
			<rect
				opacity="0.5"
				x="283"
				y="301"
				width="16"
				height="82"
				rx="8"
				fill="url(#paint1_linear_308_28304)"></rect>
			<g filter="url(#filter0_d_308_28304)">
				<circle cx="291.015" cy="320.157" r="3.32241" fill="#56575B"></circle>
				<circle
					cx="291.015"
					cy="320.157"
					r="2.40874"
					stroke="#A4AFB5"
					stroke-width="1.82732"></circle>
			</g>
			<path
				d="M292.094 368.552C292.094 368.51 292.076 368.477 292.054 368.432L291.459 367.203C291.417 367.117 291.373 367.084 291.314 367.084C291.254 367.084 291.211 367.117 291.168 367.203L290.574 368.432C290.552 368.478 290.534 368.511 290.534 368.552C290.534 368.631 290.594 368.686 290.689 368.686L291.939 368.685C292.033 368.685 292.094 368.63 292.094 368.552Z"
				fill="#A4AFB5"></path>
			<path
				d="M292.094 354.606C292.094 354.564 292.076 354.531 292.054 354.485L291.459 353.257C291.417 353.17 291.373 353.138 291.314 353.138C291.254 353.138 291.211 353.17 291.168 353.257L290.574 354.485C290.552 354.532 290.534 354.565 290.534 354.606C290.534 354.685 290.594 354.739 290.689 354.739L291.939 354.738C292.033 354.738 292.094 354.684 292.094 354.606Z"
				fill="#A4AFB5"></path>
			<path
				d="M292.094 343.31C292.094 343.268 292.076 343.235 292.054 343.189L291.459 341.961C291.417 341.874 291.373 341.842 291.314 341.842C291.254 341.842 291.211 341.874 291.168 341.961L290.574 343.189C290.552 343.236 290.534 343.269 290.534 343.31C290.534 343.389 290.594 343.443 290.689 343.443L291.939 343.442C292.033 343.442 292.094 343.388 292.094 343.31Z"
				fill="#A4AFB5"></path>
			<path
				d="M292.094 360.253C292.094 360.212 292.076 360.179 292.054 360.133L291.459 358.904C291.417 358.818 291.373 358.786 291.314 358.786C291.254 358.786 291.211 358.818 291.168 358.904L290.574 360.133C290.552 360.179 290.534 360.213 290.534 360.253C290.534 360.332 290.594 360.387 290.689 360.387L291.939 360.386C292.033 360.386 292.094 360.331 292.094 360.253Z"
				fill="#A4AFB5"></path>
			<path
				d="M292.094 348.958C292.094 348.916 292.076 348.883 292.054 348.837L291.459 347.608C291.417 347.522 291.373 347.49 291.314 347.49C291.254 347.49 291.211 347.522 291.168 347.608L290.574 348.837C290.552 348.884 290.534 348.917 290.534 348.958C290.534 349.036 290.594 349.091 290.689 349.091L291.939 349.09C292.033 349.09 292.094 349.035 292.094 348.958Z"
				fill="#A4AFB5"></path>
			<path
				d="M292.094 337.662C292.094 337.62 292.076 337.587 292.054 337.541L291.459 336.313C291.417 336.226 291.373 336.194 291.314 336.194C291.254 336.194 291.211 336.226 291.168 336.313L290.574 337.541C290.552 337.588 290.534 337.621 290.534 337.662C290.534 337.741 290.594 337.796 290.689 337.796L291.939 337.795C292.033 337.795 292.094 337.74 292.094 337.662Z"
				fill="#A4AFB5"></path>
			<path
				d="M292.094 332.014C292.094 331.972 292.076 331.939 292.054 331.893L291.459 330.665C291.417 330.578 291.373 330.546 291.314 330.546C291.254 330.546 291.211 330.578 291.168 330.665L290.574 331.893C290.552 331.94 290.534 331.973 290.534 332.014C290.534 332.093 290.594 332.147 290.689 332.147L291.939 332.146C292.033 332.146 292.094 332.092 292.094 332.014Z"
				fill="#A4AFB5"></path>
			<g clip-path="url(#clip2_308_28304)">
				<rect
					x="122.387"
					y="200.814"
					width="66.775"
					height="79.6322"
					rx="6.63822"
					fill="#262625"></rect>
				<rect
					x="128.192"
					y="206.62"
					width="55.1619"
					height="50.1849"
					rx="3.73859"
					fill="#262625"></rect>
				<circle cx="100.706" cy="176.344" r="29.0326" fill="#747474"></circle>
				<circle
					cx="100.706"
					cy="176.344"
					r="25.5072"
					stroke="#262625"
					stroke-width="7.05077"></circle>
				<g opacity="0.2">
					<path
						d="M128.193 267.55C128.193 266.93 128.696 266.427 129.316 266.427H169.935C170.555 266.427 171.058 266.93 171.058 267.55C171.058 268.17 170.555 268.673 169.935 268.673H129.316C128.696 268.673 128.193 268.17 128.193 267.55Z"
						fill="#A4AFB5"></path>
					<path
						d="M128.193 272.673C128.193 272.053 128.696 271.55 129.316 271.55H137.322C137.942 271.55 138.444 272.053 138.444 272.673C138.444 273.293 137.942 273.796 137.322 273.796H129.316C128.696 273.796 128.193 273.293 128.193 272.673Z"
						fill="#A4AFB5"></path>
					<path
						d="M145.301 272.673C145.301 272.053 145.803 271.55 146.424 271.55H164.381C165.001 271.55 165.504 272.053 165.504 272.673C165.504 273.293 165.001 273.796 164.381 273.796H146.424C145.803 273.796 145.301 273.293 145.301 272.673Z"
						fill="#A4AFB5"></path>
				</g>
				<path
					d="M136.748 234.57L140.007 234.001C147.917 232.619 154.11 226.423 155.487 218.513L156.059 215.23L156.63 218.513C158.008 226.423 164.201 232.619 172.111 234.001L175.37 234.57L172.111 235.139C164.201 236.521 158.008 242.716 156.63 250.627L156.059 253.91L155.487 250.627C154.11 242.716 147.917 236.521 140.007 235.139L136.748 234.57Z"
					fill="#A4AFB5"></path>
			</g>
			<path
				d="M122.387 293.068C122.387 289.592 125.204 286.775 128.68 286.775H209.437C212.913 286.775 215.73 289.592 215.73 293.068V371.366H122.387V293.068Z"
				fill="#262625"></path>
			<path
				opacity="0.3"
				d="M205.431 347.615C205.824 339.438 203.451 331.367 198.694 324.705C193.936 318.043 187.073 313.178 179.211 310.896L169.058 345.867L205.431 347.615Z"
				fill="#A4AFB5"></path>
			<path
				opacity="0.3"
				d="M205.195 350.362C204.347 357.18 201.587 363.619 197.235 368.935C192.882 374.251 187.114 378.228 180.598 380.405C174.081 382.582 167.082 382.871 160.408 381.239C153.734 379.607 147.658 376.12 142.882 371.181L168.892 348.31L205.195 350.362Z"
				fill="#A4AFB5"></path>
			<path
				d="M175.382 310.005C168.073 308.716 160.544 309.692 153.804 312.801C147.065 315.91 141.436 321.005 137.672 327.402C133.909 333.799 132.19 341.194 132.746 348.595C133.302 355.996 136.106 363.051 140.784 368.814L168.237 345.593L175.382 310.005Z"
				fill="#A4AFB5"></path>
			<circle cx="169.059" cy="345.867" r="21.8491" fill="#262625"></circle>
			<circle
				cx="169.059"
				cy="345.867"
				r="19.1476"
				stroke="#262625"
				stroke-width="0.547597"></circle>
			<g opacity="0.2">
				<path
					d="M162.044 343.305C162.044 342.685 162.547 342.182 163.167 342.182H176.044C176.665 342.182 177.167 342.685 177.167 343.305C177.167 343.925 176.665 344.428 176.044 344.428H163.167C162.547 344.428 162.044 343.925 162.044 343.305Z"
					fill="#A4AFB5"></path>
				<path
					d="M162.044 348.428C162.044 347.808 162.547 347.305 163.167 347.305H164.538C165.158 347.305 165.661 347.808 165.661 348.428C165.661 349.048 165.158 349.551 164.538 349.551H163.167C162.547 349.551 162.044 349.048 162.044 348.428Z"
					fill="#A4AFB5"></path>
				<path
					d="M168.08 348.428C168.08 347.808 168.583 347.305 169.203 347.305H174.085C174.705 347.305 175.208 347.808 175.208 348.428C175.208 349.048 174.705 349.551 174.085 349.551H169.203C168.583 349.551 168.08 349.048 168.08 348.428Z"
					fill="#A4AFB5"></path>
			</g>
			<path
				opacity="0.2"
				d="M129.205 294.123C129.205 293.503 129.708 293 130.328 293H170.947C171.567 293 172.069 293.503 172.069 294.123C172.069 294.743 171.567 295.246 170.947 295.246H130.328C129.708 295.246 129.205 294.743 129.205 294.123Z"
				fill="#A4AFB5"></path>
			<path
				opacity="0.2"
				d="M129.205 299.246C129.205 298.626 129.708 298.123 130.328 298.123H138.333C138.953 298.123 139.456 298.626 139.456 299.246C139.456 299.866 138.953 300.369 138.333 300.369H130.328C129.708 300.369 129.205 299.866 129.205 299.246Z"
				fill="#A4AFB5"></path>
			<path
				opacity="0.2"
				d="M146.312 299.246C146.312 298.626 146.815 298.123 147.435 298.123H165.392C166.013 298.123 166.515 298.626 166.515 299.246C166.515 299.866 166.013 300.369 165.392 300.369H147.435C146.815 300.369 146.312 299.866 146.312 299.246Z"
				fill="#A4AFB5"></path>
			<rect
				x="194.636"
				y="200.814"
				width="139.752"
				height="79.6322"
				rx="6.29303"
				fill="#262625"></rect>
			<g opacity="0.2">
				<path
					d="M201.25 208.743C201.25 208.123 201.753 207.62 202.373 207.62H242.992C243.612 207.62 244.114 208.123 244.114 208.743C244.114 209.363 243.612 209.866 242.992 209.866H202.373C201.753 209.866 201.25 209.363 201.25 208.743Z"
					fill="#A4AFB5"></path>
				<path
					d="M201.25 213.866C201.25 213.246 201.753 212.743 202.373 212.743H210.378C210.998 212.743 211.501 213.246 211.501 213.866C211.501 214.486 210.998 214.989 210.378 214.989H202.373C201.753 214.989 201.25 214.486 201.25 213.866Z"
					fill="#A4AFB5"></path>
				<path
					d="M218.357 213.866C218.357 213.246 218.86 212.743 219.48 212.743H237.437C238.058 212.743 238.56 213.246 238.56 213.866C238.56 214.486 238.058 214.989 237.437 214.989H219.48C218.86 214.989 218.357 214.486 218.357 213.866Z"
					fill="#A4AFB5"></path>
			</g>
			<rect
				opacity="0.2"
				x="207.819"
				y="225.117"
				width="2.10946"
				height="47.2201"
				rx="1.05473"
				fill="#A4AFB5"></rect>
			<rect
				x="206.765"
				y="261.984"
				width="4.21893"
				height="10.3524"
				rx="2.10946"
				fill="#A4AFB5"></rect>
			<rect
				opacity="0.2"
				x="226.277"
				y="225.117"
				width="2.10946"
				height="47.2201"
				rx="1.05473"
				fill="#A4AFB5"></rect>
			<rect
				x="225.223"
				y="251.631"
				width="4.21893"
				height="20.7048"
				rx="2.10946"
				fill="#A4AFB5"></rect>
			<rect
				opacity="0.2"
				x="244.735"
				y="225.117"
				width="2.10946"
				height="47.2201"
				rx="1.05473"
				fill="#A4AFB5"></rect>
			<rect
				x="243.681"
				y="243.745"
				width="4.21893"
				height="28.5924"
				rx="2.10946"
				fill="#A4AFB5"></rect>
			<rect
				opacity="0.2"
				x="263.192"
				y="225.117"
				width="2.10946"
				height="47.2201"
				rx="1.05473"
				fill="#A4AFB5"></rect>
			<rect
				x="262.138"
				y="259.52"
				width="4.21893"
				height="12.8173"
				rx="2.10946"
				fill="#A4AFB5"></rect>
			<rect
				opacity="0.2"
				x="281.65"
				y="225.117"
				width="2.10946"
				height="47.2201"
				rx="1.05473"
				fill="#A4AFB5"></rect>
			<rect
				x="280.596"
				y="246.209"
				width="4.21893"
				height="26.1275"
				rx="2.10946"
				fill="#A4AFB5"></rect>
			<rect
				opacity="0.2"
				x="300.108"
				y="225.117"
				width="2.10946"
				height="47.2201"
				rx="1.05473"
				fill="#A4AFB5"></rect>
			<rect
				x="299.054"
				y="233.392"
				width="4.21893"
				height="38.9448"
				rx="2.10946"
				fill="#A4AFB5"></rect>
			<rect
				opacity="0.2"
				x="318.566"
				y="225.117"
				width="2.10946"
				height="47.2201"
				rx="1.05473"
				fill="#A4AFB5"></rect>
			<rect
				x="317.512"
				y="250.153"
				width="4.21893"
				height="22.1838"
				rx="2.10946"
				fill="#A4AFB5"></rect>
			<g opacity="0.2">
				<path
					d="M228.387 294.123C228.387 293.503 228.889 293 229.51 293H270.128C270.748 293 271.251 293.503 271.251 294.123C271.251 294.743 270.748 295.246 270.128 295.246H229.51C228.889 295.246 228.387 294.743 228.387 294.123Z"
					fill="#A4AFB5"></path>
				<path
					d="M228.387 299.246C228.387 298.626 228.889 298.123 229.51 298.123H237.515C238.135 298.123 238.638 298.626 238.638 299.246C238.638 299.866 238.135 300.369 237.515 300.369H229.51C228.889 300.369 228.387 299.866 228.387 299.246Z"
					fill="#A4AFB5"></path>
				<path
					d="M245.494 299.246C245.494 298.626 245.997 298.123 246.617 298.123H264.574C265.194 298.123 265.697 298.626 265.697 299.246C265.697 299.866 265.194 300.369 264.574 300.369H246.617C245.997 300.369 245.494 299.866 245.494 299.246Z"
					fill="#A4AFB5"></path>
			</g>
			<rect
				x="122.54"
				y="371.066"
				width="93.1899"
				height="1.87937"
				fill="#262625"></rect>
		</g>
		<path
			fill-rule="evenodd"
			clip-rule="evenodd"
			d="M649.572 486.428C651.949 490.435 654.101 495.044 655.855 500.074C662.519 519.179 660.913 537.111 652.268 540.126C646.149 542.26 638.144 536.349 631.625 525.937C622.562 534.357 612.504 533.706 605.736 522.525C604.125 519.862 602.801 516.77 601.763 513.36C599.421 513.181 596.521 509.836 594.801 505.153C594.745 505.174 594.688 505.194 594.631 505.214C586.528 508.04 575.118 496.758 568.232 479.6C567.036 481.492 565.502 482.831 563.642 483.48C559.35 484.977 554.131 482.516 549.147 477.32C548.547 479.824 547.364 481.585 545.634 482.188C544.072 482.733 542.27 482.261 540.442 480.993C538.91 482.221 536.893 482.932 534.525 482.933C532.271 482.934 529.987 482.29 527.878 481.17C521.262 483.711 511.492 483.831 500.449 481.579C519.392 498.184 527.965 517.472 519.648 526.244C510.653 535.731 485.305 529.324 463.033 511.932C459.72 509.345 456.662 506.661 453.885 503.934C449.539 506.847 444.115 508.503 438.276 508.334C429.95 508.094 422.68 504.197 418.289 498.398C413.581 504.034 406.029 507.578 397.617 507.335C392.805 507.196 388.346 505.836 384.591 503.593C381.161 506.692 376.379 508.549 371.142 508.397C366.585 508.266 362.46 506.636 359.327 504.047C355.637 507.021 350.728 508.768 345.387 508.614C334.278 508.292 325.508 499.867 325.799 489.795C326.065 480.594 333.801 473.201 343.607 472.237C346.393 469.708 351.477 467.674 357.484 466.991C360.877 466.606 364.108 466.704 366.892 467.191C368.902 466.133 371.255 465.556 373.756 465.628C376.523 465.708 379.064 466.571 381.127 467.975C385.769 464.049 392.063 461.723 398.93 461.921C401.906 462.007 404.747 462.561 407.37 463.501C408.987 452.091 419.91 443.468 432.875 443.842C432.966 443.845 433.057 443.848 433.148 443.852C433.361 440.763 435.907 438.286 439.176 437.796C439.024 435.582 439.434 433.513 440.462 431.654C444.783 423.847 458.878 421.819 475.908 425.392C480.241 418.087 488.867 413.239 498.658 413.522C506.377 413.745 513.189 417.11 517.64 422.22C518.582 419.711 520.054 417.96 522.028 417.271C525.301 416.13 529.313 418.137 533.097 422.277C534.349 418.197 536.504 415.343 539.512 414.294C544.768 412.46 551.418 416.565 557.32 424.36C557.155 414.734 559.808 407.515 565.012 405.701C568.66 404.428 572.98 406.016 577.255 409.713C577.633 405.064 578.212 400.43 579.005 395.9C584.335 365.446 597.266 351.247 607.887 364.185C617.706 376.147 622.113 407.119 618.51 435.792C627.502 427.633 637.428 428.381 644.129 439.452C650.763 450.413 652.518 468.654 649.572 486.428Z"
			fill="#262625"></path>
		<path
			d="M655.855 500.074L655.383 500.238L655.855 500.074ZM649.572 486.428L649.079 486.346L649.049 486.526L649.142 486.683L649.572 486.428ZM652.268 540.126L652.103 539.654L652.268 540.126ZM631.625 525.937L632.049 525.671L631.728 525.159L631.285 525.57L631.625 525.937ZM605.736 522.525L606.164 522.266L605.736 522.525ZM601.763 513.36L602.241 513.214L602.142 512.888L601.801 512.862L601.763 513.36ZM594.801 505.153L595.271 504.98L595.097 504.507L594.625 504.684L594.801 505.153ZM594.631 505.214L594.796 505.686H594.796L594.631 505.214ZM568.232 479.6L568.696 479.413L568.331 478.506L567.809 479.332L568.232 479.6ZM563.642 483.48L563.477 483.008L563.642 483.48ZM549.147 477.32L549.508 476.974L548.874 476.313L548.661 477.203L549.147 477.32ZM545.634 482.188L545.799 482.66L545.634 482.188ZM540.442 480.993L540.727 480.582L540.42 480.369L540.129 480.603L540.442 480.993ZM534.525 482.933L534.525 483.433L534.525 482.933ZM527.878 481.17L528.112 480.728L527.911 480.621L527.698 480.703L527.878 481.17ZM500.449 481.579L500.549 481.089L498.702 480.712L500.12 481.955L500.449 481.579ZM519.648 526.244L519.285 525.9L519.648 526.244ZM463.033 511.932L462.725 512.326L463.033 511.932ZM453.885 503.934L454.236 503.577L453.945 503.292L453.607 503.519L453.885 503.934ZM438.276 508.334L438.291 507.835L438.276 508.334ZM418.289 498.398L418.688 498.096L418.309 497.595L417.906 498.078L418.289 498.398ZM397.617 507.335L397.603 507.835L397.617 507.335ZM384.591 503.593L384.848 503.164L384.531 502.975L384.256 503.222L384.591 503.593ZM371.142 508.397L371.127 508.897L371.142 508.397ZM359.327 504.047L359.646 503.662L359.331 503.402L359.014 503.658L359.327 504.047ZM345.387 508.614L345.402 508.114H345.402L345.387 508.614ZM325.799 489.795L326.299 489.81L325.799 489.795ZM343.607 472.237L343.656 472.735L343.821 472.718L343.943 472.607L343.607 472.237ZM357.484 466.991L357.54 467.488L357.484 466.991ZM366.892 467.191L366.806 467.684L366.974 467.713L367.125 467.634L366.892 467.191ZM373.756 465.628L373.742 466.128L373.756 465.628ZM381.127 467.975L380.846 468.389L381.16 468.602L381.45 468.357L381.127 467.975ZM398.93 461.921L398.915 462.421L398.93 461.921ZM407.37 463.501L407.201 463.971L407.779 464.178L407.865 463.571L407.37 463.501ZM432.875 443.842L432.889 443.343H432.889L432.875 443.842ZM433.148 443.852L433.129 444.351L433.614 444.37L433.647 443.886L433.148 443.852ZM439.176 437.796L439.25 438.291L439.706 438.222L439.675 437.762L439.176 437.796ZM440.462 431.654L440.9 431.896L440.462 431.654ZM475.908 425.392L475.805 425.881L476.155 425.954L476.338 425.647L475.908 425.392ZM498.658 413.522L498.673 413.022L498.658 413.522ZM517.64 422.22L517.262 422.549L517.813 423.181L518.108 422.396L517.64 422.22ZM522.028 417.271L522.193 417.743L522.028 417.271ZM533.097 422.277L532.728 422.614L533.318 423.26L533.575 422.424L533.097 422.277ZM539.512 414.294L539.676 414.766L539.512 414.294ZM557.32 424.36L556.922 424.662L557.846 425.884L557.82 424.352L557.32 424.36ZM565.012 405.701L565.176 406.173L565.012 405.701ZM577.255 409.713L576.927 410.092L577.673 410.736L577.753 409.754L577.255 409.713ZM579.005 395.9L579.498 395.986L579.005 395.9ZM607.887 364.185L607.5 364.502L607.887 364.185ZM618.51 435.792L618.014 435.73L617.845 437.07L618.846 436.163L618.51 435.792ZM644.129 439.452L644.557 439.193L644.129 439.452ZM656.327 499.909C654.563 494.85 652.397 490.21 650.002 486.173L649.142 486.683C651.501 490.66 653.64 495.239 655.383 500.238L656.327 499.909ZM652.432 540.598C657.055 538.986 659.648 533.462 660.3 526.178C660.957 518.844 659.677 509.513 656.327 499.909L655.383 500.238C658.697 509.74 659.946 518.927 659.304 526.089C658.658 533.301 656.125 538.251 652.103 539.654L652.432 540.598ZM631.201 526.202C634.483 531.444 638.157 535.583 641.809 538.145C645.454 540.703 649.157 541.74 652.432 540.598L652.103 539.654C649.26 540.645 645.9 539.794 642.384 537.327C638.874 534.864 635.286 530.841 632.049 525.671L631.201 526.202ZM605.308 522.784C608.746 528.462 613.071 531.548 617.764 532.078C622.449 532.608 627.367 530.575 631.966 526.303L631.285 525.57C626.82 529.719 622.178 531.571 617.876 531.085C613.582 530.599 609.495 527.769 606.164 522.266L605.308 522.784ZM601.285 513.506C602.333 516.948 603.672 520.079 605.308 522.784L606.164 522.266C604.578 519.645 603.27 516.593 602.241 513.214L601.285 513.506ZM594.332 505.325C595.209 507.712 596.391 509.773 597.669 511.27C598.929 512.747 600.353 513.753 601.725 513.859L601.801 512.862C600.831 512.787 599.634 512.032 598.429 510.621C597.241 509.23 596.114 507.277 595.271 504.98L594.332 505.325ZM594.796 505.686C594.856 505.665 594.917 505.643 594.977 505.621L594.625 504.684C594.573 504.704 594.52 504.723 594.466 504.742L594.796 505.686ZM567.768 479.786C571.229 488.412 575.838 495.586 580.626 500.259C585.385 504.903 590.461 507.198 594.796 505.686L594.466 504.742C590.698 506.056 586.017 504.123 581.324 499.543C576.66 494.991 572.12 487.945 568.696 479.413L567.768 479.786ZM563.807 483.952C565.795 483.259 567.412 481.833 568.654 479.867L567.809 479.332C566.66 481.151 565.208 482.404 563.477 483.008L563.807 483.952ZM548.786 477.666C553.795 482.888 559.217 485.553 563.807 483.952L563.477 483.008C559.484 484.401 554.466 482.143 549.508 476.974L548.786 477.666ZM545.799 482.66C547.765 481.975 549.017 480.009 549.633 477.436L548.661 477.203C548.077 479.64 546.963 481.196 545.47 481.716L545.799 482.66ZM540.157 481.403C542.05 482.717 544.022 483.28 545.799 482.66L545.47 481.716C544.121 482.187 542.49 481.805 540.727 480.582L540.157 481.403ZM534.525 483.433C536.996 483.432 539.126 482.689 540.755 481.383L540.129 480.603C538.694 481.753 536.791 482.432 534.525 482.433L534.525 483.433ZM527.643 481.611C529.812 482.764 532.176 483.434 534.525 483.433L534.525 482.433C532.365 482.434 530.161 481.817 528.112 480.728L527.643 481.611ZM527.698 480.703C521.211 483.195 511.55 483.332 500.549 481.089L500.349 482.069C511.433 484.329 521.313 484.227 528.057 481.637L527.698 480.703ZM500.12 481.955C509.553 490.224 516.378 499.14 519.812 507.048C523.258 514.983 523.231 521.738 519.285 525.9L520.011 526.588C524.381 521.978 524.226 514.703 520.729 506.65C517.221 498.569 510.288 489.539 500.779 481.203L500.12 481.955ZM519.285 525.9C517.14 528.162 513.993 529.506 510.082 529.959C506.17 530.412 501.525 529.968 496.442 528.683C486.276 526.113 474.433 520.199 463.34 511.537L462.725 512.326C473.906 521.056 485.872 527.042 496.197 529.652C501.359 530.957 506.13 531.423 510.197 530.953C514.264 530.482 517.658 529.069 520.011 526.588L519.285 525.9ZM463.34 511.537C460.042 508.962 456.998 506.29 454.236 503.577L453.535 504.291C456.325 507.031 459.398 509.727 462.725 512.326L463.34 511.537ZM453.607 503.519C449.347 506.374 444.025 508 438.291 507.835L438.262 508.834C444.204 509.006 449.73 507.321 454.164 504.349L453.607 503.519ZM438.291 507.835C430.111 507.598 422.984 503.771 418.688 498.096L417.891 498.7C422.375 504.623 429.789 508.589 438.262 508.834L438.291 507.835ZM417.906 498.078C413.298 503.592 405.895 507.074 397.631 506.836L397.603 507.835C406.163 508.083 413.863 504.476 418.673 498.719L417.906 498.078ZM397.631 506.836C392.905 506.699 388.529 505.363 384.848 503.164L384.335 504.023C388.163 506.309 392.705 507.694 397.603 507.835L397.631 506.836ZM384.256 503.222C380.923 506.233 376.267 508.045 371.156 507.897L371.127 508.897C376.492 509.052 381.399 507.151 384.927 503.964L384.256 503.222ZM371.156 507.897C366.71 507.769 362.692 506.18 359.646 503.662L359.009 504.432C362.228 507.093 366.46 508.762 371.127 508.897L371.156 507.897ZM359.014 503.658C355.417 506.557 350.624 508.265 345.402 508.114L345.373 509.113C350.831 509.271 355.857 507.486 359.641 504.436L359.014 503.658ZM345.402 508.114C334.521 507.799 326.017 499.561 326.299 489.81L325.299 489.781C324.999 500.174 334.035 508.786 345.373 509.113L345.402 508.114ZM326.299 489.81C326.556 480.9 334.059 473.678 343.656 472.735L343.558 471.739C333.544 472.724 325.574 480.288 325.299 489.781L326.299 489.81ZM343.943 472.607C346.624 470.174 351.593 468.164 357.54 467.488L357.427 466.494C351.361 467.184 346.162 469.243 343.271 471.867L343.943 472.607ZM357.54 467.488C360.89 467.108 364.073 467.205 366.806 467.684L366.978 466.699C364.143 466.202 360.864 466.104 357.427 466.494L357.54 467.488ZM367.125 467.634C369.059 466.615 371.327 466.058 373.742 466.128L373.77 465.129C371.184 465.054 368.745 465.65 366.659 466.749L367.125 467.634ZM373.742 466.128C376.413 466.205 378.862 467.038 380.846 468.389L381.408 467.562C379.266 466.104 376.633 465.211 373.77 465.129L373.742 466.128ZM381.45 468.357C385.997 464.511 392.17 462.226 398.915 462.421L398.944 461.422C391.955 461.22 385.541 463.586 380.804 467.594L381.45 468.357ZM398.915 462.421C401.839 462.506 404.628 463.049 407.201 463.971L407.539 463.03C404.866 462.072 401.973 461.509 398.944 461.422L398.915 462.421ZM407.865 463.571C409.441 452.448 420.113 443.974 432.861 444.342L432.889 443.343C419.706 442.961 408.533 451.734 406.875 463.431L407.865 463.571ZM432.861 444.342C432.95 444.345 433.04 444.348 433.129 444.351L433.168 443.352C433.075 443.348 432.982 443.345 432.889 443.343L432.861 444.342ZM433.647 443.886C433.841 441.067 436.176 438.751 439.25 438.291L439.102 437.302C435.638 437.82 432.881 440.46 432.65 443.817L433.647 443.886ZM439.675 437.762C439.529 435.634 439.923 433.662 440.9 431.896L440.025 431.412C438.945 433.364 438.519 435.531 438.677 437.831L439.675 437.762ZM440.9 431.896C442.953 428.186 447.375 425.774 453.501 424.749C459.614 423.726 467.33 424.103 475.805 425.881L476.01 424.902C467.456 423.108 459.609 422.713 453.336 423.762C447.077 424.81 442.292 427.315 440.025 431.412L440.9 431.896ZM476.338 425.647C480.573 418.507 489.024 413.743 498.644 414.021L498.673 413.022C488.711 412.734 479.909 417.667 475.478 425.137L476.338 425.647ZM498.644 414.021C506.226 414.24 512.906 417.546 517.262 422.549L518.017 421.892C513.472 416.674 506.528 413.249 498.673 413.022L498.644 414.021ZM521.863 416.799C519.7 417.554 518.144 419.455 517.171 422.044L518.108 422.396C519.02 419.967 520.409 418.365 522.193 417.743L521.863 416.799ZM533.466 421.94C531.546 419.838 529.545 418.253 527.582 417.34C525.616 416.426 523.656 416.174 521.863 416.799L522.193 417.743C523.673 417.227 525.356 417.408 527.16 418.247C528.967 419.087 530.864 420.575 532.728 422.614L533.466 421.94ZM539.347 413.822C536.128 414.945 533.894 417.974 532.619 422.131L533.575 422.424C534.804 418.419 536.881 415.741 539.676 414.766L539.347 413.822ZM557.719 424.059C554.742 420.128 551.557 417.099 548.424 415.284C545.292 413.469 542.16 412.841 539.347 413.822L539.676 414.766C542.12 413.914 544.941 414.421 547.923 416.149C550.905 417.877 553.995 420.798 556.922 424.662L557.719 424.059ZM564.847 405.229C562.062 406.2 560.014 408.6 558.688 411.916C557.363 415.232 556.737 419.514 556.82 424.369L557.82 424.352C557.738 419.58 558.356 415.441 559.617 412.287C560.878 409.133 562.758 407.016 565.176 406.173L564.847 405.229ZM577.582 409.335C573.261 405.598 568.752 403.867 564.847 405.229L565.176 406.173C568.568 404.99 572.699 406.434 576.927 410.092L577.582 409.335ZM578.513 395.814C577.717 400.36 577.135 405.009 576.756 409.673L577.753 409.754C578.13 405.118 578.708 400.5 579.498 395.986L578.513 395.814ZM608.273 363.868C605.562 360.565 602.635 358.913 599.645 358.899C596.662 358.886 593.759 360.506 591.092 363.434C585.769 369.279 581.183 380.557 578.513 395.814L579.498 395.986C582.158 380.789 586.702 369.74 591.832 364.107C594.392 361.296 597.046 359.888 599.641 359.899C602.229 359.911 604.901 361.336 607.5 364.502L608.273 363.868ZM619.006 435.855C620.813 421.474 620.612 406.518 618.727 393.649C616.844 380.803 613.272 369.957 608.273 363.868L607.5 364.502C612.321 370.375 615.862 380.996 617.737 393.794C619.609 406.571 619.81 421.437 618.014 435.73L619.006 435.855ZM644.557 439.193C641.154 433.571 636.88 430.49 632.241 429.915C627.607 429.34 622.739 431.281 618.174 435.422L618.846 436.163C623.274 432.145 627.865 430.38 632.117 430.907C636.364 431.434 640.404 434.263 643.701 439.711L644.557 439.193ZM650.065 486.51C653.02 468.68 651.279 450.3 644.557 439.193L643.701 439.711C650.247 450.526 652.015 468.627 649.079 486.346L650.065 486.51Z"
			fill="#A4AFB5"></path>
		<path
			d="M492.97 101.953L524.211 115.087L568.424 101.953L610.255 115.087L648.115 101.953L679.621 115.087L706.89 101.953L740.548 115.087"
			stroke="#A4AFB5"></path>
		<path d="M187.544 74.9455L184.029 77.9006" stroke="#A4AFB5"></path>
		<path d="M195.389 74.9456L182.042 85.8978" stroke="#A4AFB5"></path>
		<path d="M203.234 74.9454L179.866 94.3329" stroke="#A4AFB5"></path>
		<path d="M211.079 74.9456L178.774 101.298" stroke="#A4AFB5"></path>
		<path d="M218.924 74.9456L186.619 101.298" stroke="#A4AFB5"></path>
		<path d="M226.77 74.9456L194.465 101.298" stroke="#A4AFB5"></path>
		<path d="M234.614 74.9456L202.31 101.298" stroke="#A4AFB5"></path>
		<path d="M236.619 79.7272L210.154 101.298" stroke="#A4AFB5"></path>
		<path d="M238.012 85.1449L218 101.298" stroke="#A4AFB5"></path>
		<path d="M239.351 90.9294L225.844 101.298" stroke="#A4AFB5"></path>
		<path d="M240.61 96.3136L233.689 101.298" stroke="#A4AFB5"></path>
		<path
			d="M487.196 162.5H482.402C479.859 162.5 478 160.602 478 158V153.5H480.935V158.157C480.935 159.135 481.639 159.859 482.598 159.859C483.557 159.859 484.261 159.135 484.261 158.157V153.5H487.196V162.5Z"
			fill="#A4AFB5"></path>
	</g>
	<defs>
		<pattern
			id="pattern0"
			patternContentUnits="objectBoundingBox"
			width="0.271405"
			height="0.480286">
			<use
				xlink:href="#image0_308_28304"
				transform="scale(0.00123366 0.00218312)"></use>
		</pattern>
		<pattern
			id="pattern1"
			patternContentUnits="objectBoundingBox"
			width="0.462337"
			height="4.1791">
			<use
				xlink:href="#image0_308_28304"
				transform="scale(0.00210153 0.0189959)"></use>
		</pattern>
		<pattern
			id="pattern2"
			patternContentUnits="objectBoundingBox"
			width="9.09732"
			height="0.262951">
			<use
				xlink:href="#image0_308_28304"
				transform="scale(0.0413514 0.00119523)"></use>
		</pattern>
		<pattern
			id="pattern3"
			patternContentUnits="objectBoundingBox"
			width="2.9017"
			height="0.667788">
			<use xlink:href="#image0_308_28304" transform="scale(0.0131895 0.0030354)"
			></use>
		</pattern>
		<pattern
			id="pattern4"
			patternContentUnits="objectBoundingBox"
			width="3.12449"
			height="0.783678">
			<use
				xlink:href="#image0_308_28304"
				transform="scale(0.0142022 0.00356217)"></use>
		</pattern>
		<pattern
			id="pattern5"
			patternContentUnits="objectBoundingBox"
			width="5.88151"
			height="1.61678">
			<use
				xlink:href="#image0_308_28304"
				transform="scale(0.0267341 0.00734901)"></use>
		</pattern>
		<pattern
			id="pattern6"
			patternContentUnits="objectBoundingBox"
			width="0.264755"
			height="6.90575">
			<use
				xlink:href="#image0_308_28304"
				transform="scale(0.00120343 0.0313898)"></use>
		</pattern>
		<pattern
			id="pattern7"
			patternContentUnits="objectBoundingBox"
			width="1.06401"
			height="3.75553">
			<use xlink:href="#image0_308_28304" transform="scale(0.0048364 0.0170706)"
			></use>
		</pattern>
		<filter
			id="filter0_d_308_28304"
			x="283.539"
			y="313.512"
			width="14.9505"
			height="14.951"
			filterUnits="userSpaceOnUse"
			color-interpolation-filters="sRGB">
			<feFlood flood-opacity="0" result="BackgroundImageFix"></feFlood>
			<feColorMatrix
				in="SourceAlpha"
				type="matrix"
				values="0 0 0 0 0 0 0 0 0 0 0 0 0 0 0 0 0 0 127 0"
				result="hardAlpha"></feColorMatrix>
			<feOffset dy="0.830601"></feOffset>
			<feGaussianBlur stdDeviation="2.0765"></feGaussianBlur>
			<feColorMatrix
				type="matrix"
				values="0 0 0 0 0 0 0 0 0 0 0 0 0 0 0 0 0 0 0.1 0"></feColorMatrix>
			<feBlend
				mode="normal"
				in2="BackgroundImageFix"
				result="effect1_dropShadow_308_28304"></feBlend>
			<feBlend
				mode="normal"
				in="SourceGraphic"
				in2="effect1_dropShadow_308_28304"
				result="shape"></feBlend>
		</filter>
		<linearGradient
			id="paint0_linear_308_28304"
			x1="277.96"
			y1="301.277"
			x2="277.96"
			y2="378.273"
			gradientUnits="userSpaceOnUse">
			<stop stop-color="#A7ABB9"></stop>
			<stop offset="1" stop-color="#A7ABB9" stop-opacity="0"></stop>
		</linearGradient>
		<linearGradient
			id="paint1_linear_308_28304"
			x1="291"
			y1="301"
			x2="291"
			y2="383"
			gradientUnits="userSpaceOnUse">
			<stop offset="0.0104167" stop-color="#A7ABB9" stop-opacity="0"></stop>
			<stop offset="0.28125" stop-color="#A7ABB9"></stop>
			<stop offset="0.666667" stop-color="#A7ABB9"></stop>
			<stop offset="0.984375" stop-color="#A7ABB9" stop-opacity="0"></stop>
		</linearGradient>
		<clipPath id="clip0_308_28304">
			<rect width="590" height="468" rx="12" fill="white"></rect>
		</clipPath>
		<clipPath id="clip1_308_28304">
			<path
				d="M79.0244 196.055H339.998V365.806C339.998 369.749 336.801 372.945 332.859 372.945H86.1635C82.2207 372.945 79.0244 369.749 79.0244 365.806V196.055Z"
				fill="white"></path>
		</clipPath>
		<clipPath id="clip2_308_28304">
			<rect
				x="121.859"
				y="200.814"
				width="66.9755"
				height="79.6322"
				rx="6.63602"
				fill="white"></rect>
		</clipPath>
	</defs>
</svg>
