<svg xmlns="http://www.w3.org/2000/svg" xmlns:xlink="http://www.w3.org/1999/xlink" width="590" height="468" fill="none" class="size-full rounded-xl" preserveAspectRatio="xMidYMid slice"><g clip-path="url(#a)"><rect width="590" height="468" fill="#A4AFB5" rx="12"/><g opacity=".1"><path fill="#414141" d="M-17.146 447.873h-35.23l20 55.208H603.47V142.545H493.724v305.328h-47.452v-88.676h-49.376v88.676h-17.709V132.469h-72.982V322.92h-14.108v-63.483h-60.171v176.344h-72.843V291.682H117.39v67.515H66.377V248.352h-83.523z"/><path fill="url(#b)" d="M-17.146 447.873h-35.23l20 55.208H603.47V142.545H493.724v305.328h-47.452v-88.676h-49.376v88.676h-17.709V132.469h-72.982V322.92h-14.108v-63.483h-60.171v176.344h-72.843V291.682H117.39v67.515H66.377V248.352h-83.523z"/></g><path stroke="#262625" stroke-width="2" d="M136.851 60.389 470.054-3.962"/><path fill="#A4AFB5" fill-rule="evenodd" d="M-37.813 63.052a24.3 24.3 0 0 0-1.693 10.026c.57 13.446 11.932 23.883 25.377 23.313 9.517-.404 17.527-6.214 21.193-14.343 16.78 2.595 30.302-.592 33.919-9.258.86-2.063 1.106-4.307.796-6.665a7.08 7.08 0 0 0 5.4-6.914l.267-.01c12.603-.534 22.563-10.55 23.292-22.875a24.3 24.3 0 0 0 8.302 1.08 24.3 24.3 0 0 0 16.822-7.762 12.5 12.5 0 0 0 7.322 1.98 12.53 12.53 0 0 0 8.86-4.207c1.982 3.995 6.182 6.662 10.925 6.46 6.392-.27 11.361-5.647 11.139-12.03 8.315-2.544 14.197-10.45 13.811-19.542-.457-10.798-9.582-19.181-20.381-18.723a19.5 19.5 0 0 0-13.185 5.892 17.75 17.75 0 0 0-11.778-3.803 17.77 17.77 0 0 0-12.691 6.11 24.2 24.2 0 0 0-7.234-2.645c-3.055-11.625-12.174-22.713-25.458-29.202C35.63-50.6 11.262-45.033 2.76-27.634c-3.826 7.831-3.785 16.724-.618 25.097-18.507-6.327-35.802-3.959-40.902 6.48-2.703 5.534-1.512 12.375 2.641 19.179-9.091.863-15.782 4.195-18.166 9.908-3.545 8.494 3.345 20.052 16.47 30.022" clip-rule="evenodd"/><path fill="#262625" d="m-37.813 63.052.464.184.14-.353-.302-.23zM7.064 82.048l.076-.494-.376-.058-.156.347zm33.919-9.258.46.193zm.796-6.665-.118-.486-.436.106.058.445zm5.4-6.914-.016-.5-.487.016.003.487zm23.56-22.885.148-.477-.61-.191-.038.639zm25.123-6.682.27-.42-.352-.227-.285.307zm16.182-2.227.448-.222-.329-.664-.493.554zm22.064-5.57-.146-.477-.367.112.013.383zm-19.755-32.373-.309.392.353.279.315-.322zM89.883-8.22l-.243.437.354.198.267-.306zm-7.233-2.645-.484.127.08.304.31.06zM57.192-40.066l-.22.449zM2.76-27.634l.45.22zM2.143-2.537l-.162.473 1.006.344-.376-.994zm-40.902 6.48-.449-.219zm2.641 19.179.048.497.796-.075-.417-.683zm-18.166 9.908.461.193zm15.278 40.027a23.8 23.8 0 0 1 1.657-9.82l-.929-.37A24.8 24.8 0 0 0-40.005 73.1zm24.856 22.834c-13.17.559-24.298-9.664-24.856-22.834l-1 .043c.582 13.72 12.177 24.372 25.898 23.79zM6.608 81.843C3.017 89.806-4.829 95.496-14.15 95.89l.042 1c9.713-.412 17.887-6.343 21.628-14.637zm33.913-9.245c-1.725 4.133-5.84 7.026-11.688 8.56-5.844 1.533-13.347 1.687-21.693.396l-.153.989c8.435 1.304 16.083 1.16 22.1-.417 6.01-1.577 10.465-4.611 12.357-9.143zm.762-6.408c.3 2.282.061 4.436-.762 6.408l.923.385c.9-2.155 1.15-4.489.83-6.923zm5.396-6.976a6.58 6.58 0 0 1-5.018 6.425l.236.972a7.58 7.58 0 0 0 5.782-7.403zm.746-.512-.262.01.032.999.272-.01zM70.24 36.297c-.715 12.072-10.47 21.881-22.814 22.405l.042.999c12.862-.546 23.026-10.766 23.77-23.345zm8.78.61a23.8 23.8 0 0 1-8.132-1.058l-.298.954a24.8 24.8 0 0 0 8.472 1.103zm16.476-7.603a23.8 23.8 0 0 1-16.476 7.603l.042 1a24.8 24.8 0 0 0 17.167-7.922zm7.667 1.82a12 12 0 0 1-7.03-1.9l-.54.84a13 13 0 0 0 7.613 2.06zm8.508-4.04a12.03 12.03 0 0 1-8.508 4.04l.043 1a13.03 13.03 0 0 0 9.213-4.375zm11.278 6.294a11.14 11.14 0 0 1-10.456-6.183l-.896.444c2.067 4.166 6.447 6.948 11.394 6.738zm10.66-11.513c.212 6.108-4.543 11.254-10.66 11.513l.042 1c6.667-.283 11.849-5.891 11.618-12.548zM147.42 2.326c.375 8.86-5.356 16.564-13.458 19.044l.293.956c8.526-2.61 14.559-10.717 14.164-20.042zm-19.861-18.245c10.523-.446 19.415 7.723 19.861 18.245l.999-.042c-.47-11.075-9.828-19.671-20.902-19.202zm-12.847 5.742a19 19 0 0 1 12.847-5.742l-.042-.999a20 20 0 0 0-13.522 6.043zm-12.116-3.652a17.25 17.25 0 0 1 11.448 3.695l.619-.785a18.25 18.25 0 0 0-12.109-3.91zM90.261-7.89a17.27 17.27 0 0 1 12.335-5.94l-.042-.999a18.27 18.27 0 0 0-13.047 6.282zm-7.706-2.483a23.7 23.7 0 0 1 7.085 2.59l.488-.872a24.7 24.7 0 0 0-7.383-2.7zM56.972-39.617c13.169 6.433 22.18 17.411 25.194 28.88l.968-.254C80.037-22.773 70.81-33.969 57.41-40.516zM3.21-27.414c8.338-17.066 32.355-22.661 53.762-12.203l.439-.899c-21.714-10.608-46.436-5.07-55.1 12.663zm-.6 24.7c-3.125-8.265-3.156-17.012.6-24.7l-.898-.44C-1.583-19.88-1.533-10.841 1.675-2.36zm-40.92 6.877c2.452-5.017 7.866-8.16 15.05-9.253 7.177-1.09 16.045-.118 25.241 3.026l.324-.946C-7.005-6.193-16.04-7.2-23.41-6.078c-7.365 1.12-13.149 4.38-15.798 9.802zm2.62 18.698c-4.108-6.728-5.217-13.38-2.62-18.698l-.898-.439c-2.808 5.748-1.535 12.78 2.664 19.658zm-18.133 10.362c2.276-5.452 8.72-8.746 17.753-9.604l-.095-.995c-9.15.869-16.087 4.238-18.58 10.214zm16.312 29.43c-6.528-4.958-11.477-10.29-14.353-15.41-2.879-5.124-3.65-9.968-1.959-14.02l-.923-.385c-1.854 4.442-.952 9.623 2.01 14.894 2.963 5.275 8.022 10.706 14.62 15.718z"/><path fill="#A4AFB5" fill-rule="evenodd" d="M30.255 193.219a15.6 15.6 0 0 0-2.958 5.803c-2.23 8.327 2.71 16.885 11.037 19.116 5.893 1.579 11.903-.435 15.703-4.7 9.757 4.805 18.633 5.451 22.505.849.922-1.095 1.503-2.42 1.766-3.92a4.53 4.53 0 0 0 4.626-3.19l.165.046c7.805 2.091 15.813-2.119 18.623-9.512 1.441 1 3.075 1.773 4.867 2.253a15.56 15.56 0 0 0 11.769-1.516 8 8 0 0 0 4.094 2.614 8.03 8.03 0 0 0 6.223-.872 7.458 7.458 0 0 0 14.553.83c5.569.039 10.68-3.664 12.189-9.294 1.792-6.687-2.177-13.561-8.864-15.352a12.5 12.5 0 0 0-9.188 1.071 11.37 11.37 0 0 0-6.468-4.584 11.4 11.4 0 0 0-8.929 1.3 15.5 15.5 0 0 0-3.913-3.004c.364-7.691-3.082-16.216-9.956-22.731-11.156-10.574-27.117-11.847-35.65-2.844-3.84 4.052-5.521 9.494-5.192 15.219-10.097-7.417-21.121-9.288-26.24-3.886-2.714 2.863-3.299 7.272-2.066 12.227-5.721-1.217-10.449-.464-13.002 2.57-3.796 4.511-1.803 12.896 4.306 21.507" clip-rule="evenodd"/><path fill="#262625" d="m30.255 193.219.388.316.24-.295-.22-.31zm23.782 20.219.221-.448-.341-.168-.253.284zm22.505.849-.382-.322zm1.766-3.92.033-.499-.448-.03-.078.443zm4.626-3.19.135-.481-.47-.131-.143.466zm18.788-9.466.286-.411-.526-.364-.227.597zm16.636.737.384-.321-.268-.321-.364.207zm10.317 1.742.494-.078-.115-.732-.636.381zm14.553.83.004-.5-.384-.003-.102.37zm-5.863-23.575-.413.282.254.372.396-.214zm-15.397-3.284-.363.343.279.296.346-.213zm-3.913-3.004-.499-.024-.015.314.277.15zm-9.956-22.731.344-.363zm-35.65-2.844.363.344zm-5.192 15.219-.296.403.856.629-.06-1.06zm-26.24-3.886.362.344zm-2.066 12.227-.104.489.783.166-.194-.776zm-13.002 2.57.382.322zm1.831 27.44a15.05 15.05 0 0 1 2.863-5.617l-.776-.631a16.05 16.05 0 0 0-3.053 5.989zm10.683 18.503c-8.06-2.159-12.842-10.444-10.683-18.503l-.966-.259c-2.302 8.593 2.797 17.426 11.39 19.728zm15.2-4.549c-3.678 4.129-9.496 6.078-15.2 4.549l-.259.966c6.083 1.63 12.286-.45 16.206-4.85zm22.497.859c-1.798 2.136-4.801 3.109-8.64 2.926-3.833-.183-8.423-1.518-13.262-3.901l-.442.897c4.919 2.422 9.645 3.812 13.656 4.003 4.007.191 7.377-.814 9.453-3.281zm1.655-3.684c-.25 1.424-.797 2.664-1.655 3.684l.765.644c.985-1.171 1.599-2.58 1.875-4.156zm4.64-3.25a4.03 4.03 0 0 1-4.114 2.837l-.067.998a5.034 5.034 0 0 0 5.138-3.542zm.774-.291-.16-.044-.27.963.17.047zm18.026-9.207c-2.72 7.156-10.472 11.231-18.026 9.207l-.26.966c8.056 2.158 16.32-2.187 19.221-9.817zm5.463 1.948a15 15 0 0 1-4.71-2.181l-.571.822a16.1 16.1 0 0 0 5.022 2.325zm11.392-1.468a15.06 15.06 0 0 1-11.392 1.468l-.259.966a16.06 16.06 0 0 0 12.146-1.565zm4.472 2.566a7.5 7.5 0 0 1-3.84-2.452l-.768.641a8.5 8.5 0 0 0 4.349 2.777zm5.836-.818a7.53 7.53 0 0 1-5.836.818l-.259.966a8.53 8.53 0 0 0 6.609-.926zm5.824 5.992a6.96 6.96 0 0 1-5.073-5.641l-.988.156a7.96 7.96 0 0 0 5.802 6.45zm8.504-4.866a6.955 6.955 0 0 1-8.504 4.866l-.259.965a7.955 7.955 0 0 0 9.727-5.565zm12.188-9.29c-1.448 5.405-6.355 8.961-11.702 8.923l-.007 1c5.791.041 11.106-3.809 12.675-9.664zm-8.51-14.74c6.42 1.72 10.23 8.319 8.51 14.74l.966.259c1.863-6.954-2.264-14.102-9.218-15.965zm-8.822 1.028a12 12 0 0 1 8.822-1.028l.258-.966a13 13 0 0 0-9.554 1.114zm-6.835-4.541a10.87 10.87 0 0 1 6.185 4.383l.826-.564a11.87 11.87 0 0 0-6.752-4.785zm-8.537 1.243a10.88 10.88 0 0 1 8.537-1.243l.259-.966a11.88 11.88 0 0 0-9.319 1.357zm-4.412-2.99a15 15 0 0 1 3.787 2.907l.727-.686a16 16 0 0 0-4.039-3.101zm-10.063-22.808c6.781 6.426 10.157 14.815 9.801 22.344l.999.047c.371-7.852-3.145-16.514-10.112-23.117zm-34.943-2.863c8.278-8.734 23.911-7.593 34.943 2.863l.688-.726c-11.28-10.691-27.568-12.097-36.356-2.825zm-5.056 14.847c-.322-5.61 1.325-10.91 5.056-14.847l-.725-.688c-3.95 4.167-5.665 9.752-5.329 15.592zm-26.377-3.514c2.405-2.538 6.247-3.42 10.815-2.714 4.561.705 9.768 2.986 14.767 6.659l.592-.806c-5.097-3.744-10.451-6.107-15.206-6.841-4.749-.734-8.979.149-11.694 3.014zm-1.942 11.762c-1.212-4.869-.606-9.073 1.942-11.762l-.726-.688c-2.877 3.036-3.441 7.651-2.187 12.691zm-13.106 3.013c2.37-2.817 6.852-3.608 12.516-2.403l.208-.979c-5.778-1.228-10.753-.513-13.489 2.738zm4.332 20.896c-3.029-4.269-5.017-8.456-5.786-12.105-.77-3.653-.307-6.697 1.454-8.791l-.765-.644c-2.034 2.418-2.473 5.822-1.668 9.641.806 3.824 2.87 8.136 5.95 12.478z"/><path fill="#A4AFB5" fill-rule="evenodd" d="M544.37 5.01a15.85 15.85 0 0 0-1.103 6.54c.372 8.768 7.782 15.575 16.55 15.204 6.207-.264 11.431-4.053 13.822-9.354 10.944 1.692 19.762-.387 22.121-6.038.562-1.346.722-2.81.519-4.348a4.615 4.615 0 0 0 3.522-4.509l.175-.006c8.219-.349 14.715-6.88 15.191-14.92 1.704.533 3.528.785 5.414.705a15.84 15.84 0 0 0 10.971-5.062 8.16 8.16 0 0 0 4.775 1.291 8.17 8.17 0 0 0 5.779-2.744 7.59 7.59 0 0 0 14.39-3.632c5.423-1.659 9.259-6.815 9.008-12.745-.299-7.043-6.25-12.51-13.293-12.212a12.72 12.72 0 0 0-8.598 3.843 11.58 11.58 0 0 0-7.682-2.48 11.6 11.6 0 0 0-8.278 3.985 15.8 15.8 0 0 0-4.717-1.725c-1.993-7.582-7.94-14.813-16.604-19.046-14.062-6.87-29.956-3.24-35.499 8.109-2.495 5.107-2.469 10.907-.403 16.368-12.07-4.126-23.35-2.582-26.676 4.227-1.763 3.608-.986 8.07 1.722 12.507-5.929.563-10.293 2.736-11.848 6.463-2.312 5.54 2.182 13.077 10.742 19.58" clip-rule="evenodd"/><path fill="#262625" d="m544.37 5.01.465.185.141-.353-.303-.23zm29.269 12.39.077-.494-.376-.058-.157.346zm22.121-6.038.461.192zm.519-4.348-.117-.486-.437.106.059.445zm3.522-4.509-.015-.5-.488.016.003.487zm15.366-14.925.149-.478-.611-.19-.038.638zm16.385-4.358.27-.42-.352-.227-.284.307zm10.554-1.453.448-.222-.33-.664-.492.554zm14.39-3.631-.146-.479-.367.113.013.383zm-12.883-21.115-.31.393.353.278.315-.322zm-15.96 1.505-.244.436.355.199.267-.307zm-4.717-1.725-.484.127.08.304.309.06zm-16.604-19.046.219-.45zm-35.499 8.109-.45-.22zm-.403 16.368-.162.473 1.005.344-.376-.994zm-26.676 4.227-.45-.22zm1.722 12.507.047.498.797-.076-.417-.683zm-11.848 6.463.461.192zm10.138 26.097a15.4 15.4 0 0 1 1.069-6.333l-.929-.37a16.3 16.3 0 0 0-1.139 6.745zm16.03 14.726c-8.493.36-15.67-6.233-16.03-14.726l-.999.042c.384 9.045 8.027 16.067 17.072 15.683zm13.387-9.06c-2.316 5.136-7.376 8.805-13.387 9.06l.043 1c6.402-.272 11.79-4.182 14.256-9.649zm22.116-6.025c-1.096 2.626-3.721 4.489-7.507 5.482-3.781.992-8.649 1.094-14.076.255l-.153.988c5.516.853 10.529.761 14.483-.276 3.948-1.036 6.913-3.039 8.175-6.064zm.485-4.09c.192 1.462.038 2.836-.485 4.09l.922.385c.6-1.437.766-2.99.554-4.605zm3.517-4.57a4.115 4.115 0 0 1-3.139 4.02l.235.971a5.115 5.115 0 0 0 3.904-4.998zm.653-.51-.168.007.031.999.18-.007zm14.713-14.45c-.46 7.786-6.752 14.113-14.713 14.45l.043 1c8.478-.36 15.178-7.098 15.669-15.39zm5.893.236a15.4 15.4 0 0 1-5.244-.683l-.299.955c1.759.55 3.64.81 5.585.727zm10.626-4.903a15.34 15.34 0 0 1-10.626 4.903l.042.999c4.49-.19 8.482-2.17 11.316-5.222zm5.12 1.132a7.66 7.66 0 0 1-4.484-1.212l-.541.84a8.66 8.66 0 0 0 5.067 1.37zm5.426-2.577a7.67 7.67 0 0 1-5.426 2.577l.042.999a8.67 8.67 0 0 0 6.131-2.911zm7.478 4.047a7.09 7.09 0 0 1-6.656-3.937l-.896.445a8.09 8.09 0 0 0 7.594 4.49zm6.786-7.33a7.09 7.09 0 0 1-6.786 7.33l.042.999a8.09 8.09 0 0 0 7.744-8.363zm9.008-12.741c.242 5.697-3.444 10.652-8.654 12.246l.292.957c5.635-1.725 9.623-7.082 9.361-13.245zM652.233-46.32c6.766-.287 12.484 4.966 12.771 11.733l.999-.042c-.31-7.32-6.494-13-13.813-12.69zm-8.262 3.692a12.22 12.22 0 0 1 8.262-3.692l-.043-1a13.22 13.22 0 0 0-8.936 3.994zm-8.019-2.33a11.07 11.07 0 0 1 7.351 2.374l.619-.785a12.08 12.08 0 0 0-8.013-2.588zm-7.921 3.814a11.1 11.1 0 0 1 7.921-3.814l-.043-.999a12.1 12.1 0 0 0-8.633 4.157zm-5.19-1.562c1.625.314 3.163.885 4.568 1.67l.488-.872a16.3 16.3 0 0 0-4.867-1.78zm-16.729-19.088c8.549 4.176 14.388 11.298 16.34 18.724l.967-.255c-2.034-7.738-8.088-15.078-16.868-19.367zm-34.83 7.88c5.381-11.016 20.922-14.674 34.83-7.88l.439-.898c-14.215-6.945-30.461-3.343-36.168 8.338zm-.385 15.97c-2.024-5.352-2.041-11.006.385-15.97l-.899-.44c-2.564 5.25-2.528 11.195-.421 16.765zm-26.694 4.624c1.564-3.202 5.031-5.231 9.685-5.94 4.647-.706 10.402-.077 16.38 1.967l.324-.946c-6.093-2.083-12.013-2.745-16.854-2.009-4.835.735-8.671 2.882-10.434 6.49zm1.7 12.028c-2.663-4.362-3.358-8.634-1.7-12.028l-.899-.439c-1.867 3.824-1.009 8.475 1.745 12.988zm-11.814 6.915c1.446-3.464 5.563-5.6 11.434-6.157l-.094-.996c-5.987.569-10.598 2.78-12.263 6.768zm10.584 18.99c-4.245-3.225-7.454-6.686-9.315-9.998-1.863-3.316-2.343-6.417-1.269-8.992l-.923-.385c-1.237 2.965-.626 6.403 1.32 9.866 1.948 3.468 5.266 7.027 9.582 10.305z"/><path stroke="#262625" stroke-width="2" d="M278.16 62.082 470.054-3.962m68.61 66.044L463.658-3.962M603.47 58.674 463.657-3.962"/><path fill="#262625" stroke="#A4AFB5" d="m483.655 86.464 8.219-5.168a.2.2 0 0 1 .307.16l.93 20.262h-9.456z"/><path fill="#414141" d="m592.269 115.735 16.315-13.931H491.673l-9.02 13.931z"/><path fill="url(#c)" d="m592.269 115.735 16.315-13.931H491.673l-9.02 13.931z"/><path stroke="#A4AFB5" d="m592.269 115.735 16.315-13.931H491.673l-9.02 13.931z"/><path fill="#262625" d="m446.211 101.339-10.329 5.91-.333 362.979h10.662z"/><path fill="#414141" d="m446.211 101.339-10.329 5.91-.333 362.979h10.662z"/><path fill="url(#d)" d="m446.211 101.339-10.329 5.91-.333 362.979h10.662z"/><path fill="#262625" d="M446.092 101.289h46.868v396.022h-46.868z"/><path stroke="#A4AFB5" d="M446.092 101.289h46.868v396.022h-46.868zm0 0-10.353 6.017v372.841"/><path stroke="#A4AFB5" d="M447.42 101.289h44.875l-45.371 46.826h45.371l-45.371 46.826h45.371l-45.371 46.826h45.371m-44.875 0h44.875l-45.371 46.826h45.371l-45.371 46.826h45.371l-45.371 46.826h45.371"/><path stroke="#A4AFB5" d="M447.42 382.245h44.875l-45.371 46.826h45.371l-45.371 46.826h45.371l-45.371 46.827h45.371m-46.832-420.285-9.914 50.721 11.375-5-11.375 51.82 11.375-5-11.375 51.821 11.375-5"/><path stroke="#A4AFB5" d="m435.673 246.801 11.251-5-11.375 51.82 11.375-5-11.375 51.821 11.375-5-11.375 51.82 11.375-5m-11.251 5 11.251-5-11.375 51.821 11.375-5-11.375 51.82 11.375-5-11.375 46.821h11.375"/><path fill="#262625" d="M423.986 249.445h91.682l-12.41 7.028-9.795 1.56v-3.904l-47.133.528-17.317 3.241-17.366-1.425z"/><path fill="#262625" d="m493.096 255.659 17.435-2.974-12.41 7.027h-5.025z"/><path fill="#262625" stroke="#A4AFB5" d="M424.324 126.348h107.339a7 7 0 0 1 7 7v54.365l-21.79 30.683v30.683h-92.549z"/><path stroke="#A4AFB5" d="m517.119 249.13-13.175 7.466"/><path fill="#262625" d="m413.114 255.46-6.199 4.104-.971.28 29.271.327v-4.712z"/><path fill="#414141" d="m404.982 139.433 19.574-13.346.205 122.782-19.779 11.199z"/><path fill="url(#e)" d="m404.982 139.433 19.574-13.346.205 122.782-19.779 11.199z"/><path stroke="#A4AFB5" d="M404.982 260.068V141.547c0-1.322.654-2.559 1.747-3.305l17.203-11.729a.4.4 0 0 1 .625.329l.204 122.027zm0 0h30.835m69.966-4.513-7.617 4.523h-5.287m-46.817-2.07v-3.862"/><path stroke="#A4AFB5" d="m435.525 257.198 10.45-2.992h47.04v6.108m23.875-41.964h-92.126l-19.626 11.429"/><rect width="101.445" height="52.601" x="430.797" y="132.469" fill="#262625" stroke="#A4AFB5" rx="4"/><ellipse cx="14.562" cy="40.415" stroke="#777981" rx="14.562" ry="40.415" transform="matrix(.21986 .97553 -.9591 .28307 518.215 133.128)"/><ellipse cx="14.593" cy="40.309" stroke="#777981" rx="14.593" ry="40.309" transform="matrix(-.24151 .9704 -.95502 -.29655 524.673 156.562)"/><path fill="#262625" stroke="#A4AFB5" d="m464.151-18.478-17.974 120.291h46.838z"/><path fill="#414141" d="M462.51-5.749 435.908 107.22l10.33-5.37L464.243-5.749z"/><path fill="url(#f)" d="M462.51-5.749 435.908 107.22l10.33-5.37L464.243-5.749z"/><path stroke="#A4AFB5" d="M462.51-5.749 435.908 107.22l10.33-5.37L464.243-5.749zm-16.155 107.647 37.586-36.902-27.676-21.868 15.888-27.677"/><path stroke="#A4AFB5" d="m436.158 106.592 14.322-30.49-3.696-14.784 9.355-18.364-.924-17.67"/><path fill="#262625" stroke="#A4AFB5" d="M505.783 51.816v49.763h58.313V51.816z"/><path fill="#414141" d="m496.041 58.96 9.714-6.96v32.124l-9.714 3.213z"/><path fill="url(#g)" d="m496.041 58.96 9.714-6.96v32.124l-9.714 3.213z"/><path stroke="#A4AFB5" d="m496.041 58.96 9.714-6.96v32.124l-9.714 3.213z"/><path fill="#262625" stroke="#A4AFB5" d="m567.842 58.96 9.714-6.96v32.124l-9.714 3.213zm9.714-7.144v49.763h41.155V51.816zM94.874 101.579h351.338l-41.713-41.713H136.587z"/><path fill="#414141" d="m435.745 115.087 10.592-13.381-351.651-.101 11.713 13.482z"/><path fill="url(#h)" d="m435.745 115.087 10.592-13.381-351.651-.101 11.713 13.482z"/><path stroke="#A4AFB5" d="m435.745 115.087 10.592-13.381-351.651-.101 11.713 13.482z"/><path fill="#262625" stroke="#A4AFB5" d="M492.295 101.579h351.337l-41.712-20.3H492.295z"/><path stroke="#A4AFB5" d="M492.412 91.247h100.167m-80.834-9.861v20.501m26.079-20.501v20.501m26.08-20.501v20.501m26.079-20.501v20.501m-453.662-41.87 33.567 41.238 41.239-41.238 41.238 41.238 41.239-41.238 41.239 41.238 41.239-41.238 41.238 41.238 14.203-14.202M106.461 114.85l27.24-13.172 29.671 13.318 29.24-13.318 32.231 13.318 27.294-13.318 37.826 13.318 44.772-13.318 26.268 13.318 56.341-13.318 18.207 13.318"/><path fill="#414141" d="m182.96 119.289-5.158-18.14h64.027l-6.372 18.14z"/><path fill="url(#i)" d="m182.96 119.289-5.158-18.14h64.027l-6.372 18.14z"/><path stroke="#A4AFB5" d="m182.96 119.289-5.158-18.14h64.027l-6.372 18.14z"/><path fill="#262625" stroke="#A4AFB5" d="m184.947 75.047-7.145 26.093h64.027l-6.27-26.093z"/><path stroke="#A4AFB5" d="M200.438 108.346v74.447m18.074-74.447v74.447m-15.815-74.447v74.447m18.074-74.447v74.447"/><path stroke="#262625" d="M200.438 119.289v74.331m18.074-74.331v70.984m-15.815-70.984v74.331m18.074-74.331v70.984"/><path fill="#262625" d="M79.729 233.388a.7.7 0 0 0 .703-.7v-36.484h258.244v9.099a.702.702 0 0 0 1.406 0v-17.121c0-2.976-2.433-5.389-5.411-5.389H84.435c-2.977 0-5.41 2.413-5.41 5.389v44.506c0 .386.314.7.703.7m7.288-41.395c-1.385 0-2.521-1.132-2.521-2.476s1.136-2.511 2.522-2.511a2.525 2.525 0 0 1 2.52 2.511c0 1.379-1.136 2.476-2.52 2.476m11.915 0c-1.385 0-2.522-1.132-2.522-2.476s1.137-2.511 2.522-2.511a2.525 2.525 0 0 1 2.521 2.511c0 1.379-1.137 2.476-2.52 2.476m11.915 0c-1.386 0-2.522-1.132-2.522-2.476s1.136-2.511 2.522-2.511a2.524 2.524 0 0 1 2.52 2.511c0 1.379-1.136 2.476-2.52 2.476"/><g clip-path="url(#j)"><path fill="#A4AFB5" d="M79.024 196.055h260.974v169.751a7.14 7.14 0 0 1-7.139 7.139H86.164a7.14 7.14 0 0 1-7.14-7.139z"/><path stroke="#262625" stroke-width="1.586" d="M79.817 365.806V196.055h259.387v169.751a6.346 6.346 0 0 1-6.346 6.346H86.163a6.346 6.346 0 0 1-6.346-6.346Z"/><rect width="112" height="96" x="222" y="287" fill="#262625" rx="6.293"/><rect width="32.296" height="184.578" x="85.044" y="201" fill="#262625" rx="6.293"/><path fill="#A4AFB5" d="m108.368 215.454-5.849-5.87a2.27 2.27 0 0 0-3.04 0l-5.85 5.863a2.16 2.16 0 0 0 0 3.05l5.85 5.863a2.1 2.1 0 0 0 1.52.64 2.1 2.1 0 0 0 1.52-.626l5.849-5.87.009-.008a2.157 2.157 0 0 0-.009-3.042"/><circle cx="101.174" cy="271.173" r="3.173" fill="#A4AFB5"/><circle cx="101.174" cy="285.519" r="3.173" fill="#A4AFB5" opacity=".4"/><circle cx="101.174" cy="299.864" r="3.173" fill="#A4AFB5" opacity=".4"/><circle cx="101.174" cy="314.21" r="3.173" fill="#A4AFB5" opacity=".4"/><path fill="url(#k)" d="M232.541 350.481c-2.95.459-2.326.83-4.153 1.744v26.048h99.144v-76.996c-10.207.001-5.537 17.931-35.86 18.722-10.02.791-8.966-6.769-13.712-7.647-9.576-1.771.563 24.191-9.122 23.178-2.439-.255-3.468-2.495-5.897-2.16-3.001.415-2.753 4.426-5.648 5.316-3.785 1.163-5.766-3.995-9.635-3.156-3.707.803-3.517 6.385-7.31 6.395-5.108.015-2.76 7.769-7.807 8.556" opacity=".1"/><path stroke="#A4AFB5" stroke-linecap="round" stroke-width=".831" d="M228.388 352.225c1.827-.914 1.203-1.285 4.153-1.744 5.047-.787 2.699-8.541 7.807-8.556 3.793-.01 3.603-5.592 7.31-6.395 3.869-.839 5.85 4.319 9.635 3.156 2.895-.89 2.647-4.901 5.648-5.316 2.429-.335 3.458 1.905 5.897 2.16 9.685 1.013-.454-24.949 9.122-23.178 4.746.878 3.692 8.438 13.712 7.647 30.323-.791 25.653-18.721 35.86-18.722"/><rect width="16" height="82" x="283" y="301" fill="url(#l)" opacity=".5" rx="8"/><g filter="url(#m)"><circle cx="291.015" cy="320.157" r="3.322" fill="#56575B"/><circle cx="291.015" cy="320.157" r="2.409" stroke="#A4AFB5" stroke-width="1.827"/></g><path fill="#A4AFB5" d="M292.094 368.552c0-.042-.018-.075-.04-.12l-.595-1.229c-.042-.086-.086-.119-.145-.119-.06 0-.103.033-.146.119l-.594 1.229c-.022.046-.04.079-.04.12 0 .079.06.134.155.134l1.25-.001c.094 0 .155-.055.155-.133m0-13.946c0-.042-.018-.075-.04-.121l-.595-1.228c-.042-.087-.086-.119-.145-.119-.06 0-.103.032-.146.119l-.594 1.228c-.022.047-.04.08-.04.121 0 .079.06.133.155.133l1.25-.001c.094 0 .155-.054.155-.132m0-11.296c0-.042-.018-.075-.04-.121l-.595-1.228c-.042-.087-.086-.119-.145-.119-.06 0-.103.032-.146.119l-.594 1.228c-.022.047-.04.08-.04.121 0 .079.06.133.155.133l1.25-.001c.094 0 .155-.054.155-.132m0 16.943c0-.041-.018-.074-.04-.12l-.595-1.229c-.042-.086-.086-.118-.145-.118-.06 0-.103.032-.146.118l-.594 1.229c-.022.046-.04.08-.04.12 0 .079.06.134.155.134l1.25-.001c.094 0 .155-.055.155-.133m0-11.295c0-.042-.018-.075-.04-.121l-.595-1.229c-.042-.086-.086-.118-.145-.118-.06 0-.103.032-.146.118l-.594 1.229c-.022.047-.04.08-.04.121 0 .078.06.133.155.133l1.25-.001c.094 0 .155-.055.155-.132m0-11.296c0-.042-.018-.075-.04-.121l-.595-1.228c-.042-.087-.086-.119-.145-.119-.06 0-.103.032-.146.119l-.594 1.228c-.022.047-.04.08-.04.121 0 .079.06.134.155.134l1.25-.001c.094 0 .155-.055.155-.133m0-5.648c0-.042-.018-.075-.04-.121l-.595-1.228c-.042-.087-.086-.119-.145-.119-.06 0-.103.032-.146.119l-.594 1.228c-.022.047-.04.08-.04.121 0 .079.06.133.155.133l1.25-.001c.094 0 .155-.054.155-.132"/><g clip-path="url(#n)"><rect width="66.775" height="79.632" x="122.387" y="200.814" fill="#262625" rx="6.638"/><rect width="55.162" height="50.185" x="128.192" y="206.62" fill="#262625" rx="3.739"/><circle cx="100.706" cy="176.344" r="29.033" fill="#747474"/><circle cx="100.706" cy="176.344" r="25.507" stroke="#262625" stroke-width="7.051"/><path fill="#A4AFB5" d="M128.193 267.55c0-.62.503-1.123 1.123-1.123h40.619a1.123 1.123 0 0 1 0 2.246h-40.619c-.62 0-1.123-.503-1.123-1.123m0 5.123c0-.62.503-1.123 1.123-1.123h8.006a1.122 1.122 0 0 1 0 2.246h-8.006c-.62 0-1.123-.503-1.123-1.123m17.108 0c0-.62.502-1.123 1.123-1.123h17.957a1.123 1.123 0 0 1 0 2.246h-17.957a1.123 1.123 0 0 1-1.123-1.123" opacity=".2"/><path fill="#A4AFB5" d="m136.748 234.57 3.259-.569a19.04 19.04 0 0 0 15.48-15.488l.572-3.283.571 3.283a19.04 19.04 0 0 0 15.481 15.488l3.259.569-3.259.569a19.04 19.04 0 0 0-15.481 15.488l-.571 3.283-.572-3.283a19.04 19.04 0 0 0-15.48-15.488z"/></g><path fill="#262625" d="M122.387 293.068a6.29 6.29 0 0 1 6.293-6.293h80.757a6.29 6.29 0 0 1 6.293 6.293v78.298h-93.343z"/><path fill="#A4AFB5" d="M205.431 347.615a36.416 36.416 0 0 0-26.22-36.719l-10.153 34.971zm-.236 2.747a36.416 36.416 0 0 1-62.313 20.819l26.01-22.871z" opacity=".3"/><path fill="#A4AFB5" d="M175.382 310.005a36.417 36.417 0 0 0-42.636 38.59 36.4 36.4 0 0 0 8.038 20.219l27.453-23.221z"/><circle cx="169.059" cy="345.867" r="21.849" fill="#262625"/><circle cx="169.059" cy="345.867" r="19.148" stroke="#262625" stroke-width=".548"/><path fill="#A4AFB5" d="M162.044 343.305c0-.62.503-1.123 1.123-1.123h12.877a1.123 1.123 0 1 1 0 2.246h-12.877c-.62 0-1.123-.503-1.123-1.123m0 5.123c0-.62.503-1.123 1.123-1.123h1.371a1.123 1.123 0 0 1 0 2.246h-1.371c-.62 0-1.123-.503-1.123-1.123m6.036 0c0-.62.503-1.123 1.123-1.123h4.882a1.123 1.123 0 0 1 0 2.246h-4.882c-.62 0-1.123-.503-1.123-1.123m-38.875-54.305c0-.62.503-1.123 1.123-1.123h40.619a1.122 1.122 0 0 1 0 2.246h-40.619c-.62 0-1.123-.503-1.123-1.123m0 5.123c0-.62.503-1.123 1.123-1.123h8.005a1.123 1.123 0 0 1 0 2.246h-8.005c-.62 0-1.123-.503-1.123-1.123m17.107 0c0-.62.503-1.123 1.123-1.123h17.957a1.123 1.123 0 1 1 0 2.246h-17.957c-.62 0-1.123-.503-1.123-1.123" opacity=".2"/><rect width="139.752" height="79.632" x="194.636" y="200.814" fill="#262625" rx="6.293"/><path fill="#A4AFB5" d="M201.25 208.743c0-.62.503-1.123 1.123-1.123h40.619a1.122 1.122 0 0 1 0 2.246h-40.619c-.62 0-1.123-.503-1.123-1.123m0 5.123c0-.62.503-1.123 1.123-1.123h8.005a1.123 1.123 0 0 1 0 2.246h-8.005c-.62 0-1.123-.503-1.123-1.123m17.107 0c0-.62.503-1.123 1.123-1.123h17.957a1.123 1.123 0 1 1 0 2.246H219.48c-.62 0-1.123-.503-1.123-1.123" opacity=".2"/><rect width="2.109" height="47.22" x="207.819" y="225.117" fill="#A4AFB5" opacity=".2" rx="1.055"/><rect width="4.219" height="10.352" x="206.765" y="261.984" fill="#A4AFB5" rx="2.109"/><rect width="2.109" height="47.22" x="226.277" y="225.117" fill="#A4AFB5" opacity=".2" rx="1.055"/><rect width="4.219" height="20.705" x="225.223" y="251.631" fill="#A4AFB5" rx="2.109"/><rect width="2.109" height="47.22" x="244.735" y="225.117" fill="#A4AFB5" opacity=".2" rx="1.055"/><rect width="4.219" height="28.592" x="243.681" y="243.745" fill="#A4AFB5" rx="2.109"/><rect width="2.109" height="47.22" x="263.192" y="225.117" fill="#A4AFB5" opacity=".2" rx="1.055"/><rect width="4.219" height="12.817" x="262.138" y="259.52" fill="#A4AFB5" rx="2.109"/><rect width="2.109" height="47.22" x="281.65" y="225.117" fill="#A4AFB5" opacity=".2" rx="1.055"/><rect width="4.219" height="26.128" x="280.596" y="246.209" fill="#A4AFB5" rx="2.109"/><rect width="2.109" height="47.22" x="300.108" y="225.117" fill="#A4AFB5" opacity=".2" rx="1.055"/><rect width="4.219" height="38.945" x="299.054" y="233.392" fill="#A4AFB5" rx="2.109"/><rect width="2.109" height="47.22" x="318.566" y="225.117" fill="#A4AFB5" opacity=".2" rx="1.055"/><rect width="4.219" height="22.184" x="317.512" y="250.153" fill="#A4AFB5" rx="2.109"/><path fill="#A4AFB5" d="M228.387 294.123c0-.62.502-1.123 1.123-1.123h40.618a1.123 1.123 0 0 1 0 2.246H229.51a1.123 1.123 0 0 1-1.123-1.123m0 5.123c0-.62.502-1.123 1.123-1.123h8.005a1.123 1.123 0 0 1 0 2.246h-8.005a1.123 1.123 0 0 1-1.123-1.123m17.107 0c0-.62.503-1.123 1.123-1.123h17.957a1.123 1.123 0 0 1 0 2.246h-17.957c-.62 0-1.123-.503-1.123-1.123" opacity=".2"/><path fill="#262625" d="M122.54 371.066h93.19v1.879h-93.19z"/></g><path fill="#262625" fill-rule="evenodd" d="M649.572 486.428c2.377 4.007 4.529 8.616 6.283 13.646 6.664 19.105 5.058 37.037-3.587 40.052-6.119 2.134-14.124-3.777-20.643-14.189-9.063 8.42-19.121 7.769-25.889-3.412-1.611-2.663-2.935-5.755-3.973-9.165-2.342-.179-5.242-3.524-6.962-8.207l-.17.061c-8.103 2.826-19.513-8.456-26.399-25.614-1.196 1.892-2.73 3.231-4.59 3.88-4.292 1.497-9.511-.964-14.495-6.16-.6 2.504-1.783 4.265-3.513 4.868-1.562.545-3.364.073-5.192-1.195-1.532 1.228-3.549 1.939-5.917 1.94-2.254.001-4.538-.643-6.647-1.763-6.616 2.541-16.386 2.661-27.429.409 18.943 16.605 27.516 35.893 19.199 44.665-8.995 9.487-34.343 3.08-56.615-14.312a108 108 0 0 1-9.148-7.998c-4.346 2.913-9.77 4.569-15.609 4.4-8.326-.24-15.596-4.137-19.987-9.936-4.708 5.636-12.26 9.18-20.672 8.937-4.812-.139-9.271-1.499-13.026-3.742-3.43 3.099-8.212 4.956-13.449 4.804-4.557-.131-8.682-1.761-11.815-4.35-3.69 2.974-8.599 4.721-13.94 4.567-11.109-.322-19.879-8.747-19.588-18.819.266-9.201 8.002-16.594 17.808-17.558 2.786-2.529 7.87-4.563 13.877-5.246 3.393-.385 6.624-.287 9.408.2 2.01-1.058 4.363-1.635 6.864-1.563 2.767.08 5.308.943 7.371 2.347 4.642-3.926 10.936-6.252 17.803-6.054 2.976.086 5.817.64 8.44 1.58 1.617-11.41 12.54-20.033 25.505-19.659l.273.01c.213-3.089 2.759-5.566 6.028-6.056-.152-2.214.258-4.283 1.286-6.142 4.321-7.807 18.416-9.835 35.446-6.262 4.333-7.305 12.959-12.153 22.75-11.87 7.719.223 14.531 3.588 18.982 8.698.942-2.509 2.414-4.26 4.388-4.949 3.273-1.141 7.285.866 11.069 5.006 1.252-4.08 3.407-6.934 6.415-7.983 5.256-1.834 11.906 2.271 17.808 10.066-.165-9.626 2.488-16.845 7.692-18.659 3.648-1.273 7.968.315 12.243 4.012.378-4.649.957-9.283 1.75-13.813 5.33-30.454 18.261-44.653 28.882-31.715 9.819 11.962 14.226 42.934 10.623 71.607 8.992-8.159 18.918-7.411 25.619 3.66 6.634 10.961 8.389 29.202 5.443 46.976" clip-rule="evenodd"/><path fill="#A4AFB5" d="m655.855 500.074-.472.164zm-6.283-13.646-.493-.082-.03.18.093.157zm2.696 53.698-.165-.472zm-20.643-14.189.424-.266-.321-.512-.443.411zm-25.889-3.412.428-.259zm-3.973-9.165.478-.146-.099-.326-.341-.026zm-6.962-8.207.47-.173-.174-.473-.472.177zm-.17.061.165.472zM568.232 479.6l.464-.187-.365-.907-.522.826zm-4.59 3.88-.165-.472zm-14.495-6.16.361-.346-.634-.661-.213.89zm-3.513 4.868.165.472zm-5.192-1.195.285-.411-.307-.213-.291.234zm-5.917 1.94v.5zm-6.647-1.763.234-.442-.201-.107-.213.082zm-27.429.409.1-.49-1.847-.377 1.418 1.243zm19.199 44.665-.363-.344zm-56.615-14.312-.308.394zm-9.148-7.998.351-.357-.291-.285-.338.227zm-15.609 4.4.015-.499zm-19.987-9.936.399-.302-.379-.501-.403.483zm-20.672 8.937-.014.5zm-13.026-3.742.257-.429-.317-.189-.275.247zm-13.449 4.804-.015.5zm-11.815-4.35.319-.385-.315-.26-.317.256zm-13.94 4.567.015-.5zm-19.588-18.819.5.015zm17.808-17.558.049.498.165-.017.122-.111zm13.877-5.246.056.497zm9.408.2-.086.493.168.029.151-.079zm6.864-1.563-.014.5zm7.371 2.347-.281.414.314.213.29-.245zm17.803-6.054-.015.5zm8.44 1.58-.169.47.578.207.086-.607zm25.505-19.659.014-.499zm.273.01-.019.499.485.019.033-.484zm6.028-6.056.074.495.456-.069-.031-.46zm1.286-6.142.438.242zm35.446-6.262-.103.489.35.073.183-.307zm22.75-11.87.015-.5zm18.982 8.698-.378.329.551.632.295-.785zm4.388-4.949.165.472zm11.069 5.006-.369.337.59.646.257-.836zm6.415-7.983.164.472zm17.808 10.066-.398.302.924 1.222-.026-1.532zm7.692-18.659.164.472zm12.243 4.012-.328.379.746.644.08-.982zm1.75-13.813.493.086zm28.882-31.715-.387.317zm10.623 71.607-.496-.062-.169 1.34 1.001-.907zm25.619 3.66.428-.259zm12.198 60.457c-1.764-5.059-3.93-9.699-6.325-13.736l-.86.51c2.359 3.977 4.498 8.556 6.241 13.555zm-3.895 40.689c4.623-1.612 7.216-7.136 7.868-14.42.657-7.334-.623-16.665-3.973-26.269l-.944.329c3.314 9.502 4.563 18.689 3.921 25.851-.646 7.212-3.179 12.162-7.201 13.565zm-21.231-14.396c3.282 5.242 6.956 9.381 10.608 11.943 3.645 2.558 7.348 3.595 10.623 2.453l-.329-.944c-2.843.991-6.203.14-9.719-2.327-3.51-2.463-7.098-6.486-10.335-11.656zm-25.893-3.418c3.438 5.678 7.763 8.764 12.456 9.294 4.685.53 9.603-1.503 14.202-5.775l-.681-.733c-4.465 4.149-9.107 6.001-13.409 5.515-4.294-.486-8.381-3.316-11.712-8.819zm-4.023-9.278c1.048 3.442 2.387 6.573 4.023 9.278l.856-.518c-1.586-2.621-2.894-5.673-3.923-9.052zm-6.953-8.181c.877 2.387 2.059 4.448 3.337 5.945 1.26 1.477 2.684 2.483 4.056 2.589l.076-.997c-.97-.075-2.167-.83-3.372-2.241-1.188-1.391-2.315-3.344-3.158-5.641zm.464.361.181-.065-.352-.937-.159.058zm-27.028-25.9c3.461 8.626 8.07 15.8 12.858 20.473 4.759 4.644 9.835 6.939 14.17 5.427l-.33-.944c-3.768 1.314-8.449-.619-13.142-5.199-4.664-4.552-9.204-11.598-12.628-20.13zm-3.961 4.166c1.988-.693 3.605-2.119 4.847-4.085l-.845-.535c-1.149 1.819-2.601 3.072-4.332 3.676zm-15.021-6.286c5.009 5.222 10.431 7.887 15.021 6.286l-.33-.944c-3.993 1.393-9.011-.865-13.969-6.034zm-2.987 4.994c1.966-.685 3.218-2.651 3.834-5.224l-.972-.233c-.584 2.437-1.698 3.993-3.191 4.513zm-5.642-1.257c1.893 1.314 3.865 1.877 5.642 1.257l-.329-.944c-1.349.471-2.98.089-4.743-1.134zm-5.632 2.03c2.471-.001 4.601-.744 6.23-2.05l-.626-.78c-1.435 1.15-3.338 1.829-5.604 1.83zm-6.882-1.822c2.169 1.153 4.533 1.823 6.882 1.822v-1c-2.16.001-4.364-.616-6.413-1.705zm.055-.908c-6.487 2.492-16.148 2.629-27.149.386l-.2.98c11.084 2.26 20.964 2.158 27.708-.432zm-27.578 1.252c9.433 8.269 16.258 17.185 19.692 25.093 3.446 7.935 3.419 14.69-.527 18.852l.726.688c4.37-4.61 4.215-11.885.718-19.938-3.508-8.081-10.441-17.111-19.95-25.447zm19.165 43.945c-2.145 2.262-5.292 3.606-9.203 4.059-3.912.453-8.557.009-13.64-1.276-10.166-2.57-22.009-8.484-33.102-17.146l-.615.789c11.181 8.73 23.147 14.716 33.472 17.326 5.162 1.305 9.933 1.771 14 1.301 4.067-.471 7.461-1.884 9.814-4.365zm-55.945-14.363a107 107 0 0 1-9.104-7.96l-.701.714c2.79 2.74 5.863 5.436 9.19 8.035zm-9.733-8.018c-4.26 2.855-9.582 4.481-15.316 4.316l-.029.999c5.942.172 11.468-1.513 15.902-4.485zm-15.316 4.316c-8.18-.237-15.307-4.064-19.603-9.739l-.797.604c4.484 5.923 11.898 9.889 20.371 10.134zm-20.385-9.757c-4.608 5.514-12.011 8.996-20.275 8.758l-.028.999c8.56.248 16.26-3.359 21.07-9.116zm-20.275 8.758c-4.726-.137-9.102-1.473-12.783-3.672l-.513.859c3.828 2.286 8.37 3.671 13.268 3.812zm-13.375-3.614c-3.333 3.011-7.989 4.823-13.1 4.675l-.029 1c5.365.155 10.272-1.746 13.8-4.933zm-13.1 4.675c-4.446-.128-8.464-1.717-11.51-4.235l-.637.77c3.219 2.661 7.451 4.33 12.118 4.465zm-12.142-4.239c-3.597 2.899-8.39 4.607-13.612 4.456l-.029.999c5.458.158 10.484-1.627 14.268-4.677zm-13.612 4.456c-10.881-.315-19.385-8.553-19.103-18.304l-1-.029c-.3 10.393 8.736 19.005 20.074 19.332zm-19.103-18.304c.257-8.91 7.76-16.132 17.357-17.075l-.098-.996c-10.014.985-17.984 8.549-18.259 18.042zm17.644-17.203c2.681-2.433 7.65-4.443 13.597-5.119l-.113-.994c-6.066.69-11.265 2.749-14.156 5.373zm13.597-5.119c3.35-.38 6.533-.283 9.266.196l.172-.985c-2.835-.497-6.114-.595-9.551-.205zm9.585.146c1.934-1.019 4.202-1.576 6.617-1.506l.028-.999c-2.586-.075-5.025.521-7.111 1.62zm6.617-1.506c2.671.077 5.12.91 7.104 2.261l.562-.827c-2.142-1.458-4.775-2.351-7.638-2.433zm7.708 2.229c4.547-3.846 10.72-6.131 17.465-5.936l.029-.999c-6.989-.202-13.403 2.164-18.14 6.172zm17.465-5.936c2.924.085 5.713.628 8.286 1.55l.338-.941a27.8 27.8 0 0 0-8.595-1.608zm8.95 1.15c1.576-11.123 12.248-19.597 24.996-19.229l.028-.999c-13.183-.382-24.356 8.391-26.014 20.088zm24.996-19.229.268.009.039-.999-.279-.009zm.786-.456c.194-2.819 2.529-5.135 5.603-5.595l-.148-.989c-3.464.518-6.221 3.158-6.452 6.515zm6.028-6.124c-.146-2.128.248-4.1 1.225-5.866l-.875-.484c-1.08 1.952-1.506 4.119-1.348 6.419zm1.225-5.866c2.053-3.71 6.475-6.122 12.601-7.147 6.113-1.023 13.829-.646 22.304 1.132l.205-.979c-8.554-1.794-16.401-2.189-22.674-1.14-6.259 1.048-11.044 3.553-13.311 7.65zm35.438-6.249c4.235-7.14 12.686-11.904 22.306-11.626l.029-.999c-9.962-.288-18.764 4.645-23.195 12.115zm22.306-11.626c7.582.219 14.262 3.525 18.618 8.528l.755-.657c-4.545-5.218-11.489-8.643-19.344-8.87zm23.219 2.778c-2.163.755-3.719 2.656-4.692 5.245l.937.352c.912-2.429 2.301-4.031 4.085-4.653zm11.603 5.141c-1.92-2.102-3.921-3.687-5.884-4.6-1.966-.914-3.926-1.166-5.719-.541l.33.944c1.48-.516 3.163-.335 4.967.504 1.807.84 3.704 2.328 5.568 4.367zm5.881-8.118c-3.219 1.123-5.453 4.152-6.728 8.309l.956.293c1.229-4.005 3.306-6.683 6.101-7.658zm18.372 10.237c-2.977-3.931-6.162-6.96-9.295-8.775s-6.264-2.443-9.077-1.462l.329.944c2.444-.852 5.265-.345 8.247 1.383s6.072 4.649 8.999 8.513zm7.128-18.83c-2.785.971-4.833 3.371-6.159 6.687s-1.951 7.598-1.868 12.453l1-.017c-.082-4.772.536-8.911 1.797-12.065s3.141-5.271 5.559-6.114zm12.735 4.106c-4.321-3.737-8.83-5.468-12.735-4.106l.329.944c3.392-1.183 7.523.261 11.751 3.919zm.931-13.521a152 152 0 0 0-1.757 13.859l.997.081c.377-4.636.955-9.254 1.745-13.768zm29.76-31.946c-2.711-3.303-5.638-4.955-8.628-4.969-2.983-.013-5.886 1.607-8.553 4.535-5.323 5.845-9.909 17.123-12.579 32.38l.985.172c2.66-15.197 7.204-26.246 12.334-31.879 2.56-2.811 5.214-4.219 7.809-4.208 2.588.012 5.26 1.437 7.859 4.603zm10.733 71.987c1.807-14.381 1.606-29.337-.279-42.206-1.883-12.846-5.455-23.692-10.454-29.781l-.773.634c4.821 5.873 8.362 16.494 10.237 29.292 1.872 12.777 2.073 27.643.277 41.936zm25.551 3.338c-3.403-5.622-7.677-8.703-12.316-9.278-4.634-.575-9.502 1.366-14.067 5.507l.672.741c4.428-4.018 9.019-5.783 13.271-5.256 4.247.527 8.287 3.356 11.584 8.804zm5.508 47.317c2.955-17.83 1.214-36.21-5.508-47.317l-.856.518c6.546 10.815 8.314 28.916 5.378 46.635z"/><path stroke="#A4AFB5" d="m492.97 101.953 31.241 13.134 44.213-13.134 41.831 13.134 37.86-13.134 31.506 13.134 27.269-13.134 33.658 13.134M187.544 74.946l-3.515 2.955m11.36-2.955-13.347 10.952m21.192-10.953-23.368 19.388m31.213-19.387-32.305 26.352m40.15-26.352-32.305 26.352m40.151-26.352-32.305 26.352m40.149-26.352-32.304 26.352m34.309-21.571-26.465 21.571m27.858-16.153L218 101.298m21.351-10.368-13.507 10.368m14.766-4.984-6.921 4.984"/><path fill="#A4AFB5" d="M487.196 162.5h-4.794c-2.543 0-4.402-1.898-4.402-4.5v-4.5h2.935v4.657c0 .978.704 1.702 1.663 1.702s1.663-.724 1.663-1.702V153.5h2.935z"/></g><defs><pattern id="b" width=".271" height=".48" patternContentUnits="objectBoundingBox"><use xlink:href="#image0_308_28304" transform="scale(.00123 .00218)"/></pattern><pattern id="c" width=".462" height="4.179" patternContentUnits="objectBoundingBox"><use xlink:href="#image0_308_28304" transform="scale(.0021 .019)"/></pattern><pattern id="d" width="9.097" height=".263" patternContentUnits="objectBoundingBox"><use xlink:href="#image0_308_28304" transform="scale(.04135 .0012)"/></pattern><pattern id="e" width="2.902" height=".668" patternContentUnits="objectBoundingBox"><use xlink:href="#image0_308_28304" transform="scale(.01319 .00304)"/></pattern><pattern id="f" width="3.124" height=".784" patternContentUnits="objectBoundingBox"><use xlink:href="#image0_308_28304" transform="scale(.0142 .00356)"/></pattern><pattern id="g" width="5.882" height="1.617" patternContentUnits="objectBoundingBox"><use xlink:href="#image0_308_28304" transform="scale(.02673 .00735)"/></pattern><pattern id="h" width=".265" height="6.906" patternContentUnits="objectBoundingBox"><use xlink:href="#image0_308_28304" transform="scale(.0012 .03139)"/></pattern><pattern id="i" width="1.064" height="3.756" patternContentUnits="objectBoundingBox"><use xlink:href="#image0_308_28304" transform="scale(.00484 .01707)"/></pattern><clipPath id="a"><rect width="590" height="468" fill="#fff" rx="12"/></clipPath><clipPath id="j"><path fill="#fff" d="M79.024 196.055h260.974v169.751a7.14 7.14 0 0 1-7.139 7.139H86.164a7.14 7.14 0 0 1-7.14-7.139z"/></clipPath><clipPath id="n"><rect width="66.975" height="79.632" x="121.859" y="200.814" fill="#fff" rx="6.636"/></clipPath><linearGradient id="k" x1="277.96" x2="277.96" y1="301.277" y2="378.273" gradientUnits="userSpaceOnUse"><stop stop-color="#A7ABB9"/><stop offset="1" stop-color="#A7ABB9" stop-opacity="0"/></linearGradient><linearGradient id="l" x1="291" x2="291" y1="301" y2="383" gradientUnits="userSpaceOnUse"><stop offset=".01" stop-color="#A7ABB9" stop-opacity="0"/><stop offset=".281" stop-color="#A7ABB9"/><stop offset=".667" stop-color="#A7ABB9"/><stop offset=".984" stop-color="#A7ABB9" stop-opacity="0"/></linearGradient><filter id="m" width="14.95" height="14.951" x="283.539" y="313.512" color-interpolation-filters="sRGB" filterUnits="userSpaceOnUse"><feFlood flood-opacity="0" result="BackgroundImageFix"/><feColorMatrix in="SourceAlpha" result="hardAlpha" values="0 0 0 0 0 0 0 0 0 0 0 0 0 0 0 0 0 0 127 0"/><feOffset dy=".831"/><feGaussianBlur stdDeviation="2.076"/><feColorMatrix values="0 0 0 0 0 0 0 0 0 0 0 0 0 0 0 0 0 0 0.1 0"/><feBlend in2="BackgroundImageFix" result="effect1_dropShadow_308_28304"/><feBlend in="SourceGraphic" in2="effect1_dropShadow_308_28304" result="shape"/></filter></defs></svg>