<svg xmlns="http://www.w3.org/2000/svg" viewBox="0 0 1200 1200"><g style="clip-path:url(#uuid-3095630e-479e-4847-bd66-1f9da0487052)"><path d="M0 0h1200v1204.68H0z" style="fill:#baaeb4;stroke-width:0"/><path d="M1299.44 118.27c-8.89-42.88-46.88-75.11-92.39-75.11-52.12 0-94.36 42.25-94.36 94.36 0 6.92.75 13.67 2.17 20.17a60.17 60.17 0 0 0-24.5 25.65c-6.79-1.45-13.83-2.21-21.06-2.21-55.56 0-100.6 45.04-100.6 100.6 0 25.63 9.59 49.02 25.37 66.78-15.38 11.33-25.37 29.56-25.37 50.13 0 3.79.36 7.49 1.01 11.09-27.76 2.23-51.69 17.98-65.19 40.69a60.5 60.5 0 0 0-28.8-7.25c-26.62 0-49.23 17.13-57.44 40.97-3.29-.5-6.64-.79-10.06-.79-35.92 0-65.91 28.78-73 67.1-2.4-.19-4.83-.29-7.29-.29-46.55 0-84.92 35-90.26 80.11-2.92-.39-5.89-.61-8.92-.61-36.65 0-66.37 29.71-66.37 66.37v369.14h739.04V116.84l-1.97 1.44Z" style="fill:none;stroke:#262625;stroke-miterlimit:10"/><path d="M1299.44 452.76c-8.89-37.56-46.88-65.79-92.39-65.79-52.12 0-94.36 37-94.36 82.65 0 6.07.75 11.98 2.17 17.67-10.53 5.14-19.1 12.99-24.5 22.47-6.79-1.27-13.83-1.94-21.06-1.94-55.56 0-100.6 39.45-100.6 88.12 0 22.45 9.59 42.93 25.37 58.49-15.38 9.92-25.37 25.89-25.37 43.91 0 3.32.36 6.56 1.01 9.72-27.76 1.95-51.69 15.75-65.19 35.64-8.57-4.05-18.38-6.35-28.8-6.35-26.62 0-49.23 15-57.44 35.88-3.29-.44-6.64-.69-10.06-.69-35.92 0-65.91 25.21-73 58.77-2.4-.17-4.83-.26-7.29-.26-46.55 0-84.92 30.65-90.26 70.17a77 77 0 0 0-8.92-.54c-36.65 0-66.37 26.03-66.37 58.13v323.33h739.04V451.5l-1.97 1.26Z" style="fill:none;stroke:#262625;stroke-miterlimit:10"/><path d="M657.4 704.12c-10.26-35.22-44.57-61.11-85.35-61.11-.31 0-.61.02-.91.02-4.16-29.06-22.71-53.83-48.7-67.8 1.22-3.86 1.89-7.95 1.89-12.19 0-23.6-20.38-42.72-45.52-42.72-2.5 0-4.94.2-7.33.56-16.44-45.55-58.75-77.98-108.35-77.98-26.73 0-51.34 9.42-70.93 25.23-12.65-11.53-29.15-19.36-47.51-21.66-6.07-27.69-21.76-51.23-42.96-66.07 2.96-9.8 4.55-20.15 4.55-30.84 0-41.2-23.56-77.24-58.72-96.9.89-36.15-17.45-67.39-48.04-76.16-16.12-4.62-33.12-2.28-48.64 5.41-5.77-11.46-14.02-21.59-24.09-29.82.49-4.37.75-8.81.75-13.31-.02-68.9-59.52-124.75-132.93-124.75S-238.3 69.88-238.3 138.76c0 0-13.87 839.85 0 839.85h898.84V705.57l-3.14-1.46Z" style="fill:none;stroke:#262625;stroke-miterlimit:10"/><path d="M578.09 971.47c-8.67-31.74-37.7-55.07-72.18-55.07-.26 0-.51.02-.77.02-3.52-26.19-19.2-48.51-41.19-61.1 1.03-3.48 1.6-7.17 1.6-10.98 0-21.26-17.24-38.5-38.5-38.5-2.11 0-4.18.18-6.2.5-13.91-41.05-49.68-70.27-91.64-70.27-22.61 0-43.42 8.49-59.98 22.74-10.7-10.39-24.65-17.45-40.18-19.51-5.13-24.95-18.4-46.17-36.33-59.54 2.51-8.83 3.85-18.15 3.85-27.79 0-37.13-19.92-69.6-49.66-87.32.75-32.58-14.76-60.73-40.63-68.64-13.63-4.16-28.01-2.05-41.14 4.88a82.1 82.1 0 0 0-20.37-26.87c.42-3.94.64-7.94.64-11.99 0-62.08-50.32-112.4-112.4-112.4s-112.4 50.32-112.4 112.4c0 0-11.73 658.86 0 658.86h760.15V972.81l-2.66-1.31Z" style="fill:none;stroke:#262625;stroke-miterlimit:10"/><path d="M72.03 461c-58.04 0-105.1 47.05-105.1 105.1v259.19h210.2V566.1c0-58.04-47.05-105.1-105.1-105.1Z" style="fill:#414141;stroke:#b9adb3;stroke-miterlimit:10;stroke-width:2px"/><path d="m119.64 515.27 112.27-256.14c11.46-22.12 2.82-49.35-19.3-60.82-22.12-11.46-49.35-2.82-60.82 19.3L7.27 457.04a64 64 0 0 0-4.17 6.91c-16.21 31.29-3.99 69.8 27.3 86.01s69.8 3.99 86.01-27.3c1.26-2.43 2.32-4.9 3.24-7.4Z" style="fill:#414141;stroke:#baaeb4;stroke-miterlimit:10;stroke-width:2px"/><path d="m458.53 160.74-284.09 56.52c-.58.1-1.17.21-1.75.35-16.13 3.75-26.16 19.87-22.41 35.99 3.75 16.13 19.87 26.16 35.99 22.41.58-.14 1.16-.29 1.73-.46l279.86-74.68c11.08-2.58 17.97-13.65 15.39-24.73s-13.65-17.97-24.73-15.39Z" style="fill:#414141;stroke:#baaeb4;stroke-miterlimit:10;stroke-width:2px"/><path d="m451.46 154.63-284.9 52.26c-.59.09-1.17.2-1.76.32-16.18 3.51-26.45 19.47-22.94 35.65s19.47 26.45 35.65 22.94c.59-.13 1.16-.28 1.73-.43l280.95-70.49c11.12-2.41 18.17-13.38 15.76-24.5s-13.38-18.17-24.5-15.76Z" style="fill:#262625;stroke:#b9adb3;stroke-miterlimit:10;stroke-width:2px"/><path d="m94.71 515.27 112.27-256.14c11.46-22.12 2.82-49.35-19.3-60.82-22.12-11.46-49.35-2.82-60.82 19.3L-17.66 457.04a64 64 0 0 0-4.17 6.91c-16.21 31.29-3.99 69.8 27.3 86.01s69.8 3.99 86.01-27.3c1.26-2.43 2.32-4.9 3.24-7.4Z" style="fill:#262625;stroke:#baaeb4;stroke-miterlimit:10;stroke-width:2px"/><circle cx="166.08" cy="239.09" r="34.35" style="fill:#262625;stroke:#baaeb4;stroke-miterlimit:10"/><circle cx="455.74" cy="174.85" r="14.65" style="fill:#262625;stroke:#b9adb3;stroke-miterlimit:10"/><path d="M24.9 461c-58.04 0-105.1 47.05-105.1 105.1v259.19H130V566.1C130 508.06 82.95 461 24.9 461Z" style="fill:#262625;stroke:#b9adb3;stroke-miterlimit:10;stroke-width:2px"/><circle cx="24.9" cy="560.66" r="88.97" style="fill:#262625;stroke:#baaeb4;stroke-miterlimit:10"/><path d="M1135.18 443.19c62.03 0 112.31 50.28 112.31 112.31v276.97h-224.62V555.5c0-62.03 50.28-112.31 112.31-112.31Z" style="fill:#414141;stroke:#b9adb3;stroke-miterlimit:10;stroke-width:2px"/><path d="M1094.94 512.06 948.01 272.45c-14.45-20.45-9.58-48.75 10.87-63.2s48.75-9.58 63.2 10.87l176.75 218.54c1.81 1.98 3.52 4.07 5.1 6.31 20.44 28.93 13.55 68.94-15.37 89.38-28.93 20.44-68.94 13.55-89.38-15.37a66 66 0 0 1-4.24-6.92Z" style="fill:#414141;stroke:#b9adb3;stroke-miterlimit:10;stroke-width:2px"/><path d="m703.79 156.87 287.36 67.19c.59.12 1.18.26 1.77.41 16.29 4.37 25.96 21.12 21.59 37.41s-21.12 25.96-37.41 21.59c-.59-.16-1.17-.34-1.74-.53L692.91 197.4c-11.2-3-17.84-14.51-14.84-25.7 3-11.2 14.51-17.84 25.7-14.84Z" style="fill:#414141;stroke:#b9adb3;stroke-miterlimit:10;stroke-width:2px"/><path d="m709.39 148.59 288.32 62.96c.59.11 1.19.24 1.78.39 16.36 4.13 26.27 20.73 22.14 37.09s-20.73 26.27-37.09 22.14c-.59-.15-1.17-.32-1.75-.5l-283.67-81.38c-11.24-2.84-18.05-14.25-15.21-25.48 2.84-11.24 14.25-18.05 25.48-15.21Z" style="fill:#262625;stroke:#baaeb4;stroke-miterlimit:10;stroke-width:2px"/><path d="M1114.47 510.19 967.54 270.58c-14.45-20.45-9.58-48.75 10.87-63.2s48.75-9.58 63.2 10.87l176.75 218.54c1.81 1.98 3.52 4.07 5.1 6.31 20.44 28.93 13.55 68.94-15.37 89.38s-68.94 13.55-89.38-15.37a66 66 0 0 1-4.24-6.92Z" style="fill:#262625;stroke:#b9adb3;stroke-miterlimit:10;stroke-width:2px"/><path d="M1178.26 446.43c62.03 0 112.31 50.28 112.31 112.31v276.97h-224.62V558.74c0-62.03 50.28-112.31 112.31-112.31Z" style="fill:#262625;stroke:#b9adb3;stroke-miterlimit:10;stroke-width:2px"/><circle cx="1181.5" cy="560.66" r="98.98" style="fill:#262625;stroke:#baaeb4;stroke-miterlimit:10"/><circle cx="704.79" cy="168.14" r="15.68" style="fill:#262625;stroke:#b9adb3;stroke-miterlimit:10"/><circle cx="1005.19" cy="242.35" r="34.35" style="fill:#262625;stroke:#baaeb4;stroke-miterlimit:10"/><path d="M776.44 970.56c2.98-36.76 33.74-65.67 71.27-65.67.74 0 1.47.03 2.21.06 12.45-40.8 50.39-70.47 95.26-70.47 19.94 0 38.51 5.86 54.08 15.96 7.58-6.72 16.57-11.87 26.48-14.94 10.26-38.05 45.01-66.06 86.31-66.06 2.94 0 5.84.15 8.71.42 15.03-32.49 47.91-55.04 86.06-55.04 43.65 0 80.4 29.52 91.4 69.68 3.81-.59 7.71-.91 11.69-.91 41.55 0 75.24 33.68 75.24 75.24v434.58H776.2V970.62l.26-.06Zm-428.51-59.37c-8.96-49.84-52.55-87.66-104.97-87.66-15.45 0-30.14 3.29-43.39 9.2-12.91-21.44-36.41-35.79-63.26-35.79-.2 0-.4.01-.61.02-4.28-31.76-31.48-56.25-64.41-56.25-3.74 0-7.39.33-10.95.94-15.35-34.14-49.65-57.92-89.51-57.92-54.17 0-98.09 43.92-98.09 98.09 0 14.92 3.33 29.05 9.29 41.71v355.15h416.42v-88.71a92.7 92.7 0 0 0 25.53 3.56c51.22 0 92.73-41.52 92.73-92.73 0-42.93-29.17-79.04-68.78-89.6Z" style="fill:#262625;stroke:#b9adb3;stroke-miterlimit:10;stroke-width:2px"/><path d="M765.65 845a21.25 21.25 0 0 0-13.02-4.45H447.37c-4.71 0-9.29 1.57-13.02 4.45l-575.05 445.5c-16.02 12.41-7.24 38.07 13.02 38.07h1455.35c20.26 0 29.04-25.66 13.02-38.07L765.64 845Z" style="fill:#262625;stroke:#b9adb3;stroke-miterlimit:10"/><path d="M962.9 1028.21 744.3 840.55H455.7l-218.6 187.66zm25.08 21.53H212.02l-324.8 278.83h1425.56z" style="fill:#414141;stroke:#baaeb4;stroke-miterlimit:10"/><path d="M968.34 1160.86c7.98-44.37 46.79-78.05 93.46-78.05 13.76 0 26.83 2.93 38.64 8.19 11.5-19.09 32.42-31.86 56.33-31.86.18 0 .36.01.54.01 3.82-28.27 28.03-50.08 57.35-50.08 3.33 0 6.58.3 9.75.83 13.66-30.4 44.21-51.57 79.7-51.57 48.23 0 87.34 39.1 87.34 87.34 0 13.28-2.97 25.86-8.27 37.13v316.21h-370.76v-78.99a82.8 82.8 0 0 1-22.73 3.17c-45.6 0-82.57-36.97-82.57-82.57 0-38.22 25.98-70.38 61.24-79.78Zm-666.27 23.28c-2.42-32.73-27.35-58.47-57.78-58.47-.6 0-1.19.03-1.79.05-10.1-36.32-40.85-62.75-77.23-62.75-16.17 0-31.22 5.22-43.85 14.21-6.14-5.98-13.43-10.57-21.47-13.3-8.32-33.88-36.49-58.82-69.97-58.82-2.38 0-4.74.13-7.06.38-12.18-28.93-38.84-49-69.77-49-35.39 0-65.19 26.28-74.11 62.04a56 56 0 0 0-9.47-.81c-33.69 0-61 29.99-61 66.99v386.94h493.72v-287.4l-.21-.05Z" style="fill:#262625;stroke:#b9adb3;stroke-miterlimit:10;stroke-width:2px"/><path d="M412.76 963.75h374.49v12.19H412.76zm318.38-53.53H468.86l-56.1 53.53h374.48z" style="fill:#262625;stroke:#b9adb3;stroke-miterlimit:10"/><path d="M893.02 368.88c-6.88 22.99-12.45 28.56-35.44 35.44 22.99 6.88 28.56 12.45 35.44 35.44 6.88-22.99 12.45-28.56 35.44-35.44-22.99-6.88-28.56-12.45-35.44-35.44m32.01-15.22c-3.49 11.68-6.32 14.51-18 18 11.68 3.49 14.51 6.32 18 18 3.49-11.68 6.32-14.51 18-18-11.68-3.49-14.51-6.32-18-18" style="fill:#262625;stroke-width:0"/><circle cx="704.79" cy="507.2" r="29.08" style="fill:#262625;stroke:#baaeb4;stroke-miterlimit:10"/><circle cx="704.79" cy="507.2" r="16.56" style="fill:#262625;stroke:#baaeb4;stroke-miterlimit:10"/><circle cx="704.79" cy="507.2" r="3.62" style="fill:#baaeb4;stroke-width:0"/><path d="m697.52 188.57.95 273.91h13.58V192.42s-11.53-2.89-14.53-3.85Z" style="fill:#262625;stroke:#b9adb3;stroke-miterlimit:10;stroke-width:2px"/><path d="M673.23 499.79a3.904 3.904 0 0 1-4.46-4.66l2.3-10.86a9.74 9.74 0 0 1 2.6-4.82l21.68-21.9a3.902 3.902 0 1 1 5.55 5.49l-21.68 21.9c-.26.26-.43.58-.51.94l-2.3 10.86a3.91 3.91 0 0 1-3.18 3.05Zm63.49 0a3.904 3.904 0 0 0 4.46-4.66l-2.3-10.86a9.74 9.74 0 0 0-2.6-4.82l-21.68-21.9a3.902 3.902 0 1 0-5.55 5.49l21.68 21.9c.26.26.43.58.51.94l2.3 10.86a3.91 3.91 0 0 0 3.18 3.05Z" style="fill:#262625;stroke:#b9adb3;stroke-miterlimit:10;stroke-width:2px"/><circle cx="704.79" cy="463.3" r="14.07" style="fill:#262625;stroke:#b9adb3;stroke-miterlimit:10;stroke-width:2px"/><path d="m465.69 193.71-.95 372.33h-13.58V198.06s8.09-2.26 14.53-4.36Z" style="fill:#262625;stroke:#b9adb3;stroke-miterlimit:10;stroke-width:2px"/><path d="M422.25 594.78c-.47 0-.96-.09-1.42-.27a3.9 3.9 0 0 1-2.21-5.06l4.05-10.34a9.63 9.63 0 0 1 3.36-4.33l24.99-18.04a3.903 3.903 0 1 1 4.57 6.33L430.6 581.1c-.3.21-.52.51-.66.85l-4.05 10.34a3.91 3.91 0 0 1-3.64 2.48Z" style="fill:#262625;stroke:#b9adb3;stroke-miterlimit:10;stroke-width:2px"/><path d="M492.16 594.78c.47 0 .96-.09 1.42-.27a3.9 3.9 0 0 0 2.21-5.06l-4.05-10.34a9.63 9.63 0 0 0-3.36-4.33l-24.99-18.04a3.903 3.903 0 1 0-4.57 6.33l24.99 18.03c.3.21.52.51.66.85l4.05 10.34c.6 1.54 2.08 2.48 3.64 2.48Z" style="fill:#262625;stroke:#b9adb3;stroke-miterlimit:10;stroke-width:2px"/><circle cx="457.2" cy="560.58" r="14.07" style="fill:#262625;stroke:#b9adb3;stroke-miterlimit:10;stroke-width:2px"/><path d="M463 182.12c-3.3-6.12-3.3-8.41 0-14.53-6.12 3.3-8.41 3.3-14.53 0 3.3 6.12 3.3 8.41 0 14.53 6.12-3.3 8.41-3.3 14.53 0m-296.92 34.7c-4.32 14.45-7.83 17.95-22.27 22.27 14.45 4.32 17.95 7.83 22.27 22.27 4.32-14.45 7.83-17.95 22.27-22.27-14.45-4.32-17.95-7.83-22.27-22.27M-21.9 513.85c21.28 39.44 21.28 54.17 0 93.61 39.44-21.28 54.17-21.28 93.61 0-21.28-39.44-21.28-54.17 0-93.61-39.44 21.28-54.17 21.28-93.61 0m734.77-337.63c-3.67-6.81-3.67-9.35 0-16.16-6.81 3.67-9.35 3.67-16.16 0 3.67 6.81 3.67 9.35 0 16.16 6.81-3.67 9.35-3.67 16.16 0m526.33 331.84c-45.84 24.73-62.95 24.73-108.79 0 24.73 45.84 24.73 62.95 0 108.79 45.84-24.73 62.95-24.73 108.79 0-24.73-45.84-24.73-62.95 0-108.79m-781.84 43.41c-1.77 5.91-3.2 7.34-9.11 9.11 5.91 1.77 7.34 3.2 9.11 9.11 1.77-5.91 3.2-7.34 9.11-9.11-5.91-1.77-7.34-3.2-9.11-9.11m547.83-331.76c-4.39 14.69-7.96 18.25-22.65 22.65 14.69 4.39 18.25 7.96 22.65 22.65 4.39-14.69 7.96-18.25 22.65-22.65-14.69-4.39-18.25-7.96-22.65-22.65m-300.4 234.48c-1.77 5.91-3.2 7.34-9.11 9.11 5.91 1.77 7.34 3.2 9.11 9.11 1.77-5.91 3.2-7.34 9.11-9.11-5.91-1.77-7.34-3.2-9.11-9.11" style="fill:#baaeb4;stroke-width:0"/><ellipse cx="600" cy="868.72" rx="138.68" ry="22.67" style="fill:#262625;stroke-width:0"/><path d="M534.47 766.93h131.06v97.89H534.47z" style="fill:#262626;stroke:#b9adb3;stroke-miterlimit:10;stroke-width:3px"/><rect width="160.18" height="25.89" x="519.91" y="856.73" rx="11.19" ry="11.19" style="fill:#262626;stroke:#b9adb3;stroke-miterlimit:10;stroke-width:3px"/><rect width="566.7" height="390.74" x="316.65" y="417.85" rx="22.25" ry="22.25" style="fill:#262625;stroke:#b9adb3;stroke-miterlimit:10;stroke-width:2px"/><path d="M350.85 436.01h498.31c8.19 0 14.85 6.65 14.85 14.85v296.48H336V450.86c0-8.19 6.65-14.85 14.85-14.85" style="fill:#baaeb4;stroke-width:0"/><g style="clip-path:url(#uuid-ab7e98f8-9e8d-4a8c-a518-a1a88eec780b)"><path d="M372.15 658.53s189.84 4.27 316.04 88.81H864V426.89S773.91 564.86 566.44 600c-116.74 19.77-194.29 58.53-194.29 58.53" style="fill:#7d777a;stroke-width:0"/><path d="M276.45 659.11s228.98 5.15 381.2 107.11H869.7v-386.5s-108.67 166.42-358.9 208.8c-140.81 23.85-234.35 70.59-234.35 70.59Z" style="fill:none;stroke:#7d777a;stroke-miterlimit:10"/><path d="M434.17 648.01s168.48-5.39 291.75 99.32H864V450.4s-79.43 121.65-262.36 152.63C498.71 620.46 434.16 648 434.16 648Z" style="fill:none;stroke:#262625;stroke-miterlimit:10"/></g><path d="M602.8 598.05s-.74-30.74 28.04-27.1c0 0 9.96 1.21 9.96 9.91v17.19z" style="fill:#262625;stroke:#baaeb4;stroke-miterlimit:10"/><path d="M609.85 577.02s7.94.6 12.36 0l.92 8.91s-9.16 6.26-19.34 2.62" style="fill:none;stroke:#baaeb4;stroke-miterlimit:10"/><path d="M613.17 577.21s3.07 8.22 7.23 10.21l-3.12 1.19s-5.58-5.71-6.38-11.41h2.27Z" style="fill:#baaeb4;stroke-width:0"/><path d="M781.49 567.92h33.44v58.79h-33.44z" style="fill:#262625;stroke:#baaeb4;stroke-miterlimit:10"/><path d="M536.1 640.73s1.62 12.81-4.04 17.8h222.07l18.2-18.2-236.22.4Z" style="fill:#262625;stroke:#b9adb3;stroke-miterlimit:10"/><path d="M819.96 623.47v14.02h-1.25s-18.61 10.52-27.51 10.52H385.63l2.97-7.28c.8 0 39.91-28.58 64.58-34.65s78.88-6.08 78.88-6.08 10.92-11.31 34.38-11.31v15.37h37.21s9.31-16.18 36.41-15.37v-31.56h19.82l131.46 54.21 23.59 12.13z" style="fill:#262625;stroke:#baaeb4;stroke-miterlimit:10"/><path d="M823.9 623.47h-8.97s-7.86 13.03-30.34 13.03v11.51l8.57-.14s5.19.31 25.55-10.37h22.11v-14.02H823.9Zm-451.75 17.26h44.56v17.8h-44.56z" style="fill:#262625;stroke:#b9adb3;stroke-miterlimit:10"/><path d="M695.41 590.25c-60.07.81-74.37 13.81-74.37 13.81h-17.39s9.31-16.18 36.41-15.37zm-244.72 16.5s72.47-15.64 120.2 41.26h50.16s64.33-25.35 118.32-13.48c0 0-111.04-23.59-172.93-24.67 0 0-28.31-1.24-34.38-9.85" style="fill:none;stroke:#baaeb4;stroke-miterlimit:10"/><circle cx="460.98" cy="646.24" r="29.08" style="fill:#262625;stroke:#baaeb4;stroke-miterlimit:10"/><circle cx="460.98" cy="646.24" r="16.56" style="fill:#262625;stroke:#baaeb4;stroke-miterlimit:10"/><circle cx="460.98" cy="646.24" r="3.62" style="fill:#baaeb4;stroke-width:0"/><circle cx="764.24" cy="646.24" r="29.08" style="fill:#262625;stroke:#baaeb4;stroke-miterlimit:10"/><circle cx="764.24" cy="646.24" r="16.56" style="fill:#262625;stroke:#baaeb4;stroke-miterlimit:10"/><circle cx="764.24" cy="646.24" r="3.62" style="fill:#baaeb4;stroke-width:0"/><path d="M565.76 583.35h4.85v20.16h-4.85z" style="fill:#262625;stroke:#baaeb4;stroke-miterlimit:10"/></g></svg>