<svg xmlns="http://www.w3.org/2000/svg" data-name="Layer 2" viewBox="0 0 1200 1200"><defs><clipPath id="a"><path d="M0 0h1200v1200H0z" style="fill:none;stroke-width:0"/></clipPath></defs><g data-name="Layer 3" style="clip-path:url(#a)"><path d="M0 0h1200v1200H0z" style="fill:#a7c1bc;stroke-width:0"/><g data-name="cloud"><path d="M748.69 1084.47c-2.29 0-4.55.08-6.81.21.46-2.99.7-6.05.7-9.17 0-27.4-18.44-50.48-43.58-57.55.04-1.39.07-2.79.07-4.19 0-73.56-59.63-133.19-133.19-133.19-28.93 0-55.7 9.23-77.54 24.89-10.89-30.07-38.36-52.2-71.37-55.36 20.87-25.69 33.38-58.43 33.38-94.11 0-78.31-60.27-142.53-136.95-148.84 7.98-12.42 12.63-27.18 12.63-43.04 0-44.04-35.7-79.74-79.74-79.74-18.14 0-34.85 6.07-48.25 16.27-9.19-16.11-26.52-26.98-46.4-26.98-3.99 0-7.88.45-11.62 1.28.19-2.83.3-5.69.3-8.57 0-68.81-55.78-124.58-124.58-124.58s-124.58 55.78-124.58 124.58v862.38l857.53-21.02c61.66 0 111.64-49.98 111.64-111.64s-49.98-111.64-111.64-111.64Z" style="fill:none;stroke:#262625;stroke-miterlimit:10"/><path d="M641.39 1112.83c-1.88 0-3.75.06-5.6.17.38-2.46.58-4.98.58-7.55 0-22.56-15.18-41.55-35.88-47.37q.06-1.725.06-3.45c0-60.55-49.09-109.64-109.64-109.64-23.81 0-45.85 7.59-63.83 20.49-8.97-24.76-31.58-42.97-58.75-45.57 17.18-21.14 27.48-48.1 27.48-77.47 0-64.46-49.61-117.33-112.74-122.52a65.3 65.3 0 0 0 10.4-35.43c0-36.25-29.39-65.64-65.64-65.64-14.93 0-28.69 4.99-39.72 13.39-7.57-13.26-21.83-22.21-38.19-22.21-3.29 0-6.49.37-9.57 1.06.16-2.33.25-4.68.25-7.05 0-56.64-45.92-102.55-102.55-102.55S-64.5 547.41-64.5 604.04v709.89l705.89-17.31c50.75 0 91.9-41.14 91.9-91.9s-41.14-91.9-91.9-91.9Z" style="fill:#94afaa;stroke-width:0"/></g><g data-name="Hand-handle"><path d="M121.68 887.03h276.93v95.74H121.68z" style="fill:#373835;stroke:#a7c1bc;stroke-miterlimit:10" transform="rotate(60.95 260.137 934.925)"/><path d="M413.91 1148.83c11.34-8.19 18.72-21.51 18.72-36.57 0-24.69-19.84-44.73-44.44-45.08 10.93-10.45 16.78-25.86 14.36-41.94-3.95-26.27-28.45-44.37-54.72-40.42l-75.51 11.35 79.14-66.09c20.39-17.03 23.12-47.36 6.09-67.75s-47.36-23.12-67.75-6.09L166.65 959.08c-.08.06-179.06 142.09-208.18 219.74-29.12 77.66 11.05 114.07 11.05 114.07s320.61 31.21 404.75-61.62l12.4 1.09c24.81 2.18 46.69-16.15 48.88-40.96 1.56-17.73-7.37-33.96-21.64-42.58Z" style="fill:#262625;stroke:#a7c1bc;stroke-miterlimit:10;stroke-width:2px"/><path d="M389.42 1067.05c-22 1.46-43.83 5.58-64.85 12.23m89.24 69.29c-19.48-1.73-39.24-.19-58.22 4.52" style="fill:none;stroke:#a7c1bc;stroke-miterlimit:10;stroke-width:2px"/></g><ellipse cx="422.67" cy="642.31" data-name="speaker-back" rx="73.61" ry="251.75" style="fill:#94afaa;stroke:#262625;stroke-miterlimit:10;stroke-width:2px" transform="rotate(-29.05 422.635 642.27)"/><g data-name="flow"><path d="M405.4 497.92a468 468 0 0 1-28.06 42.73C355 570.93 329 598.54 299.95 622.47c-17.97 14.81-65.55 36.21-50.05 63.82 7.26 12.95 23.83 22.54 32.47 35.37 4.25 6.31 10.57 28.67 16.13 31.94 7.77 4.57 29.9-6.9 38.79-9.03 59.81-14.28 122.98-10.53 182.33 4.11 71.92 17.74 139.07 50.9 203.79 86.95 95.36 53.11 187.83 113.81 262.98 192.97 75.15 79.17 132.4 178.43 147.14 286.59 2.56 18.74 4.23 49.07 23.48 59.6 17.6 9.63 33.48-7.66 47.65-17.35 33.21-22.69 73.07-48.69 91.48-85.78 16.29-32.82 15.77-72.53 13.97-108.22-18.38-363.76-36.77-727.52-55.15-1091.27-1.94-38.37-5.76-80.94-34.12-106.86-26.69-24.39-66.45-25.97-102.6-26.21l-597.42-3.93c-43.06-.28-86.12-.68-129.19-.84-11.99-.04-31.45-2.71-39.04 9.22-10.73 16.86 10.87 35.67 19.96 47.51 24.96 32.5 45.32 68.49 60.66 106.48 30.38 75.22 41.17 158.5 29.26 238.84-8.43 56.87-28.19 111.86-57.07 161.53Z" style="fill:#728e89;stroke-width:0"/><path d="M322.59-35.19c61.59 110.59 91.82 238.42 86.28 364.88S362.03 580.85 291 685.62" style="fill:none;stroke:#262625;stroke-miterlimit:10;stroke-width:2px"/><path d="M543.28-108.39c56.75 120.04 42.83 261.32 11.53 390.36-20 82.46-46.88 164.02-89.95 237.12C422.74 590.57 364.21 653.91 291 692.81" style="fill:none;stroke:#a7c1bc;stroke-miterlimit:10;stroke-width:2px"/><path d="M295 716.55c39.66-14.57 100.38 14.51 141.59 22.88 42.61 8.66 82.64 27 121.03 47.41 213.33 113.43 388.35 297.45 490.98 516.18" style="fill:none;stroke:#262625;stroke-miterlimit:10;stroke-width:2px"/><path d="M1568.18 929.64c-211.6-150.54-479.06-193.08-735.9-231.47-104.31-15.59-209.16-31.22-314.62-29.9-101.02 1.26-194.37 26.25-292.34 65.26m-4.96-4.8c233.65-103.81 442.95-208.55 604.55-406.77 161.87-198.54 266.12-448.27 269.14-704.42" style="fill:none;stroke:#262625;stroke-miterlimit:10;stroke-width:2px"/><path d="M1448.32 647.94c-345.05-118.71-733.48-106.27-1070.22 34.3m-11.76 17.52c209.62-15.45 423.73 37.51 601.98 148.89s319.71 280.6 397.72 475.78" style="fill:none;stroke:#a7c1bc;stroke-miterlimit:10;stroke-width:2px"/></g><g data-name="speaker"><circle cx="390.97" cy="649.84" r="95.94" style="fill:#262625;stroke:#a7c1bc;stroke-miterlimit:10;stroke-width:3px"/><path d="M451.91 630.32c-44.46 4.32-56.41-1.15-82.2-37.62 4.32 44.46-1.15 56.41-37.62 82.2 44.46-4.32 56.41 1.15 82.2 37.62-4.32-44.46 1.15-56.41 37.62-82.2" style="fill:#a7c1bc;stroke-width:0"/><path d="M434.22 779.68c-32.37-41.58-53.49-72.11-72.16-103.84-17.07-32.62-31.83-66.68-50.02-116.14a491.5 491.5 0 0 1-22.85-122.58c-.06-.97-1.41-1.13-1.7-.21-31.09 97.16-74.48 192.97-164.41 289.55a741 741 0 0 1-29.1 29.55l-45.92 25.54c-8.69 4.83-11.81 15.79-6.98 24.48l20.43 36.75 20.4 36.77c4.82 8.69 15.78 11.83 24.47 7.01l45.95-25.49c13.14-3.34 26.63-6.39 40.47-9.09 129.52-25.31 233.78-11.5 332.7 13.45.94.24 1.52-.99.72-1.56a491.3 491.3 0 0 1-91.99-84.18Z" style="fill:#262625;stroke:#a7c1bc;stroke-miterlimit:10;stroke-width:3px"/></g><path d="M236.65 341.8c-8.77 33.06-15.88 40.17-48.94 48.94 33.06 8.77 40.17 15.88 48.94 48.94 8.77-33.06 15.88-40.17 48.94-48.94-33.06-8.77-40.17-15.88-48.94-48.94" style="fill:#262625;stroke-width:0"/><path d="M236.65 341.8c-8.77 33.06-15.88 40.17-48.94 48.94 33.06 8.77 40.17 15.88 48.94 48.94 8.77-33.06 15.88-40.17 48.94-48.94-33.06-8.77-40.17-15.88-48.94-48.94Z" style="fill:none;stroke:#99bbc4;stroke-miterlimit:10"/><g data-name="icons"><circle cx="1036.62" cy="914.26" r="132.82" style="fill:#262625;stroke:#a7c1bc;stroke-miterlimit:10;stroke-width:3px"/><circle cx="1036.62" cy="914.26" r="83.57" style="fill:#a7c1bc;stroke-width:0"/><path d="m1031.16 922.43 53.81 36.02c-4.96 5.35-16.98 16.83-36.27 22.05l-.78.21c-35.83 9.28-71.95-14.9-77.03-51.56-.04-.26-.07-.53-.11-.8-2.53-19.82 3.5-35.3 6.56-41.93l53.81 36.02Z" style="fill:#262625;stroke-width:0"/><circle cx="914.8" cy="140.85" r="112.75" style="fill:#262625;stroke:#a7c1bc;stroke-miterlimit:10;stroke-width:2px"/><path d="M986.53 105.11c-12.4-20.09-38.73-26.33-58.83-13.93l-1.27.79-.86-1.39c-12.4-20.09-38.73-26.33-58.83-13.93-20.09 12.4-26.33 38.73-13.93 58.83l45.6 73.9.13-.08.15.25 73.9-45.6c20.09-12.4 26.33-38.73 13.93-58.83Z" style="fill:#a7c1bc;stroke-width:0"/><circle cx="1088.76" cy="497.59" r="84.27" style="fill:#262625;stroke:#a7c1bc;stroke-miterlimit:10;stroke-width:3px"/><path d="m1047.86 453.78 108.39 12.15c1.45.27 1.76 3.34.4 4l-128.52 61.65c-1.21.59-2.31-1.56-1.62-3.16z" style="fill:#a7c1bc;stroke:#262625;stroke-miterlimit:10;stroke-width:2px"/><path d="m1052.69 519.93 97.95-47.16c1.74-.83-83.3 69.38-83.3 69.38-1.39 1.14-3.19.13-3.87-2.17z" style="fill:#a7c1bc;stroke:#262625;stroke-miterlimit:10;stroke-width:2px"/><path d="m1039.36 483.5 94.17-13.69c.39-.1.33.51-.08.79l-96.78 22.31c-.37.25 1.39-5.39 1.66-5.8l1.03-3.6Z" style="fill:#262625;stroke-width:0"/><circle cx="511.11" cy="341.8" r="78.53" style="fill:#262625;stroke:#a7c1bc;stroke-miterlimit:10;stroke-width:3px"/><path d="M527.03 380.41c-5.92 2.59-11.95 4.29-18.1 5.1-5.15.68-9.7.69-13.63.04-1.29-.21-2.21-1.36-2.2-2.67l.11-10.06c.02-1.6 1.42-2.85 3-2.63 3.29.44 6.84.48 10.66.12 5-.47 9.72-1.67 14.15-3.62 3.38-1.48 5.95-3.03 7.72-4.64s2.89-3.22 3.37-4.81q.72-2.385-.3-4.71c-.86-1.97-2.33-3.2-4.38-3.68-2.06-.48-4.53-.53-7.43-.15-2.89.39-6 .91-9.32 1.57s-6.72 1.18-10.2 1.57-6.85.36-10.12-.1c-3.26-.46-6.22-1.64-8.86-3.55q-3.96-2.865-6.51-8.67c-1.85-4.23-2.41-8.57-1.69-13.05.73-4.47 2.94-8.76 6.64-12.86s9.04-7.67 16.01-10.73c4.65-2.04 9.49-3.48 14.52-4.35 4.11-.7 7.98-.91 11.6-.62 1.37.11 2.43 1.26 2.45 2.64l.17 9.93c.03 1.57-1.29 2.8-2.85 2.72a46.3 46.3 0 0 0-9.22.44c-3.94.59-7.53 1.6-10.77 3.02-3.38 1.48-5.93 3.04-7.65 4.67s-2.78 3.29-3.17 4.98c-.4 1.68-.25 3.3.42 4.85.86 1.97 2.33 3.22 4.41 3.74 2.07.52 4.53.56 7.35.12 2.83-.44 5.94-1.01 9.33-1.69 3.39-.69 6.82-1.2 10.28-1.54q5.19-.51 9.99.09c3.2.4 6.15 1.54 8.86 3.42s4.9 4.72 6.56 8.52c1.82 4.16 2.34 8.46 1.56 12.91q-1.17 6.675-6.75 12.9c-3.72 4.15-9.07 7.75-16.04 10.8Zm.01 10.66-41.34-94.38c-.59-1.36.02-2.94 1.38-3.54l5.75-2.52c1.36-.59 2.94.02 3.54 1.38l41.34 94.38c.59 1.36-.02 2.94-1.38 3.54l-5.75 2.52c-1.36.59-2.94-.02-3.54-1.38" style="fill:#a7c1bc;stroke-width:0"/><circle cx="708.49" cy="619.86" r="77.22" style="fill:#262625;stroke:#a7c1bc;stroke-miterlimit:10;stroke-width:3px"/><path d="m728.51 642.44-.82-.19c4.86 1.15 9.73-1.85 10.88-6.71s-1.86-9.73-6.71-10.88c4.86 1.15 9.73-1.85 10.88-6.71s-1.85-9.73-6.71-10.88l-26.28-6.22 4.64-19.57c1.91-8.05-3.07-16.12-11.12-18.02-8.05-1.91-16.12 3.07-18.02 11.12l-8.46 35.73-2.09 8.82-7.3 30.82c-1.91 8.05 3.07 16.12 11.12 18.02s37.82 8.96 37.82 8.96l-.83-.2c4.86 1.15 9.73-1.86 10.88-6.71 1.15-4.86-1.86-9.73-6.71-10.88l4.68 1.11c4.86 1.15 9.73-1.85 10.88-6.71s-1.85-9.73-6.71-10.88Z" style="fill:#a7c1bc;stroke:#262625;stroke-miterlimit:10;stroke-width:2px"/><rect width="19.04" height="42.68" x="725.18" y="594.65" rx="9.52" ry="9.52" style="fill:#a7c1bc;stroke:#262625;stroke-miterlimit:10;stroke-width:2px" transform="rotate(-76.67 734.759 615.989)"/><rect width="19.04" height="42.68" x="720.77" y="613.28" rx="9.52" ry="9.52" style="fill:#a7c1bc;stroke:#262625;stroke-miterlimit:10;stroke-width:2px" transform="rotate(-76.67 730.342 634.623)"/><rect width="17.52" height="39.27" x="718.97" y="633.16" rx="8.76" ry="8.76" style="fill:#a7c1bc;stroke:#262625;stroke-miterlimit:10;stroke-width:2px" transform="rotate(-76.67 727.795 652.803)"/><rect width="17.52" height="27.89" x="710.16" y="654.77" rx="8.76" ry="8.76" style="fill:#a7c1bc;stroke:#262625;stroke-miterlimit:10;stroke-width:2px" transform="rotate(-76.67 718.98 668.72)"/></g></g></svg>