<svg xmlns="http://www.w3.org/2000/svg" data-name="Layer 2" viewBox="0 0 1200 1200"><defs><clipPath id="a"><path d="M0 0h1200v1200H0z" style="fill:none;stroke-width:0"/></clipPath><clipPath id="b"><path d="M311.16 357h561.79c9.24 0 16.74 7.5 16.74 16.74v334.24H294.43V373.74c0-9.24 7.5-16.74 16.74-16.74Z" style="fill:none;stroke-width:0"/></clipPath><clipPath id="c"><rect width="206.96" height="296.3" x="87.47" y="585.54" rx="5.63" ry="5.63" style="fill:none;stroke-width:0"/></clipPath><clipPath id="d"><path d="M843.64 547.64h227.71v338.52H843.64c-5 0-9.07-4.06-9.07-9.07V556.7c0-5 4.06-9.07 9.07-9.07Z" style="fill:none;stroke-width:0" transform="rotate(90 952.955 716.895)"/></clipPath><clipPath id="e"><path d="M366.94 735.53h-17.49v.1c0 5.69-4.61 10.3-10.3 10.3h-29.71c-5.69 0-10.3-4.61-10.3-10.3v-.1h-18.7c-2.5 0-4.53 2.03-4.53 4.53v155.58c0 2.5 2.03 4.53 4.53 4.53h86.51c2.5 0 4.53-2.03 4.53-4.53V740.06c0-2.5-2.03-4.53-4.53-4.53Z" style="fill:none;stroke-width:0"/></clipPath></defs><g data-name="Layer 2" style="clip-path:url(#a)"><path d="M0 0h1200v1200H0z" style="fill:#99bbc4;stroke-width:0"/><path d="M328.23 380.47c.54-2.99.84-6.07.84-9.22 0-28.56-23.15-51.71-51.71-51.71-5.18 0-10.18.77-14.9 2.19-16.08-24.26-43.61-40.27-74.89-40.27-19.16 0-36.91 6.02-51.49 16.25a70.3 70.3 0 0 0-26.5-28.74 79.4 79.4 0 0 0 2.42-19.51c0-38.61-27.56-70.78-64.08-77.92 1.96-5.2 3.03-10.82 3.03-16.7 0-26.19-21.23-47.41-47.41-47.41-9.43 0-18.21 2.76-25.59 7.51-21.24-26.38-53.78-43.27-90.28-43.27-63.99 0-115.87 51.88-115.87 115.87v574.8h624.78V451.63c0-38.37-30.35-69.64-68.36-71.14Zm480.47-15.58c-.54-2.99-.84-6.07-.84-9.22 0-28.56 23.15-51.71 51.71-51.71 5.18 0 10.18.77 14.9 2.19 16.08-24.26 43.61-40.27 74.89-40.27 19.16 0 36.91 6.02 51.49 16.25a70.3 70.3 0 0 1 26.5-28.74 79.4 79.4 0 0 1-2.42-19.51c0-38.61 27.56-70.78 64.08-77.92a47.2 47.2 0 0 1-3.03-16.7c0-26.19 21.23-47.41 47.41-47.41 9.43 0 18.21 2.76 25.59 7.51 21.24-26.38 53.78-43.27 90.28-43.27 63.99 0 115.87 51.88 115.87 115.87v574.8H740.34V436.05c0-38.37 30.35-69.64 68.36-71.14Z" data-name="Cloud" style="fill:none;stroke:#262625;stroke-miterlimit:10"/><path d="M-77.86 1049.63h1316.39v204.32H-77.86z" style="fill:#637681;stroke:#99bbc4;stroke-miterlimit:10;stroke-width:2px"/><g data-name="city"><rect width="149.38" height="571.18" x="215.14" y="257.67" rx="11.66" ry="11.66" style="fill:#8ca8b5;stroke-width:0"/><rect width="166.44" height="571.18" x="398.28" y="117.79" rx="11.66" ry="11.66" style="fill:#8ca8b5;stroke-width:0"/><rect width="166.44" height="571.18" x="607.65" y="171.92" rx="11.66" ry="11.66" style="fill:#8ca8b5;stroke-width:0"/><rect width="166.44" height="571.18" x="806.47" y="286.76" rx="11.66" ry="11.66" style="fill:#8ca8b5;stroke-width:0"/></g><path d="M563.67 689.4c0-45.49-38.62-82.37-86.27-82.37-22.59 0-43.14 8.3-58.52 21.87-15.02-12.1-34.4-19.4-55.59-19.4-2.94 0-5.85.14-8.72.42-6.61-22.42-27.76-39.01-53.12-39.9-3.76-46.86-44.74-83.78-94.78-83.78-3.87 0-7.68.25-11.43.68-10.8-14.1-28.25-23.26-47.94-23.26-6.31 0-12.38.95-18.08 2.69-21.66-23.57-53.44-38.45-88.87-38.45-60.32 0-110.08 43.14-117.3 98.88h-.9v513.54h648.91l-7.38-350.9Zm75.06 18.02c0-45.49 38.28-82.37 85.5-82.37 22.39 0 42.76 8.3 58 21.87 14.88-12.1 34.1-19.4 55.09-19.4q4.38 0 8.64.42c6.55-22.42 27.51-39.01 52.65-39.9 3.72-46.86 44.34-83.78 93.93-83.78 3.84 0 7.61.25 11.33.68 10.7-14.1 27.99-23.26 47.51-23.26 6.25 0 12.27.95 17.92 2.69 21.47-23.57 52.96-38.45 88.07-38.45 59.78 0 109.1 43.14 116.25 98.88h.9v513.54H631.43l7.31-350.9Z" data-name="Cloud" style="fill:#7a95a4;stroke:#99bbc4;stroke-miterlimit:10;stroke-width:2px"/><g data-name="belt"><path d="M1245.68 865.63c-13.7-37.26-47.92-61.84-86.07-61.84H37.34c-38.16 0-72.37 24.58-86.07 61.84l-60.69 165.03c-23.25 63.21 21.35 131.15 86.07 131.15H1220.3c64.73 0 109.32-67.94 86.07-131.15z" style="fill:#262625;stroke:#99bbc4;stroke-miterlimit:10;stroke-width:2px"/><rect width="1427.36" height="280.98" x="-113.59" y="934.9" rx="140.49" ry="140.49" style="fill:#262625;stroke:#99bbc4;stroke-miterlimit:10;stroke-width:2px"/><circle cx="33.95" cy="1075.39" r="105.52" style="fill:#4b575d;stroke-width:0"/><circle cx="33.95" cy="1075.39" r="105.52" style="fill:none;stroke:#99bbc4;stroke-miterlimit:10"/><circle cx="315.03" cy="1075.39" r="105.52" style="fill:#4b575d;stroke-width:0"/><circle cx="315.03" cy="1075.39" r="105.52" style="fill:none;stroke:#99bbc4;stroke-miterlimit:10"/><circle cx="596.1" cy="1075.39" r="105.52" style="fill:#4b575d;stroke-width:0"/><circle cx="596.1" cy="1075.39" r="105.52" style="fill:none;stroke:#99bbc4;stroke-miterlimit:10"/><circle cx="877.18" cy="1075.39" r="105.52" style="fill:#4b575d;stroke-width:0"/><circle cx="877.18" cy="1075.39" r="105.52" style="fill:none;stroke:#99bbc4;stroke-miterlimit:10"/><circle cx="1158.26" cy="1075.39" r="105.52" style="fill:#4b575d;stroke-width:0"/><circle cx="1158.26" cy="1075.39" r="105.52" style="fill:none;stroke:#99bbc4;stroke-miterlimit:10"/><rect width="1354.33" height="226.76" x="-81.72" y="962.01" rx="110" ry="110" style="fill:none;stroke:#99bbc4;stroke-miterlimit:10;stroke-width:2px"/></g><g data-name="Gadgets"><path d="M518.18 730.07h147.75v110.36H518.18z" style="fill:#262626;stroke:#99bbc4;stroke-miterlimit:10;stroke-width:2px"/><rect width="180.58" height="29.19" x="501.77" y="831.31" rx="12.61" ry="12.61" style="fill:#262626;stroke:#99bbc4;stroke-miterlimit:10;stroke-width:2px"/><rect width="638.88" height="440.52" x="272.62" y="336.53" rx="25.08" ry="25.08" style="fill:#262625;stroke:#99bbc4;stroke-miterlimit:10;stroke-width:2px"/><path d="M311.16 357h561.79c9.24 0 16.74 7.5 16.74 16.74v334.24H294.43V373.74c0-9.24 7.5-16.74 16.74-16.74Z" style="fill:#99bbc4;stroke-width:0"/><g style="clip-path:url(#b)"><path d="M-26.76 716.5c.31-1.42 1.37-2.83 3.91-4.75 8.16-6.15 21.67-.11 30.55-.31a514 514 0 0 0 52.36-3.85c34.81-4.36 69.35-12.3 103.16-23.76C240 657.8 312.29 614.09 385.54 574.7c73.25-39.4 149.02-75 228.16-83.37s162.9 13.18 224.38 77.73c44.29 46.5 94.51 86.92 137.49 135.41 64.8 73.11 189.62 72.49 273.16 44.89-25.3 80.92-113.94 250.6-139.24 331.52-85.52-27.69-140.89-130.79-188.65-226.02-47.76-95.22-92.13-232.35-178-258.14-50.09-15.05-102.56-.82-151.98 17.51-77.37 28.7-153.79 68.56-215.69 134.71-51.12 54.62-90.38 124.99-136.72 186.25S134.63 1050.7 68.4 1058.42c-37.92 4.43-81.9-12.39-97.06-57.25-7.6-22.49-6.62-48.02-5.51-72.5 2.48-54.78 4.97-109.56 7.45-164.34.58-12.74 2.2-26.32 1.22-38.93-.34-4.36-1.76-6.65-1.25-8.91Z" style="fill:#637681;stroke-width:0"/><path d="M-40.4 655.4c93.19 11.72 187.34-12.27 275.26-45.33 87.92-33.05 172.42-75.36 262.28-102.69s187.94-38.97 277.16-9.59c81.55 26.86 148.23 85.11 221.37 130.09s163.97 77.49 243.95 46.26" style="fill:none;stroke:#262625;stroke-miterlimit:10"/><path d="M2.98 1011.55c78.42-5.44 151.29-43.71 213.58-91.66 62.3-47.94 116.15-105.81 174.59-158.39s123.27-100.81 198.38-123.99 162.38-17.94 225.25 29.25c43.25 32.46 71.08 80.93 107.09 121.27 81.9 91.76 210.48 139.52 332.42 123.46" style="fill:none;stroke:#262625;stroke-miterlimit:10"/><path d="M-89.38 869.62c103.99 7.06 204.12-40.65 290.37-99.18 86.24-58.53 164.65-129.17 256.77-177.93 92.12-48.75 204.5-73.61 300.65-33.39 53.38 22.33 97.02 62.54 138.29 103.1 41.28 40.55 82.18 82.84 132.74 110.97s113.55 40.41 166.61 17.33" style="fill:none;stroke:#262625;stroke-miterlimit:10"/></g><rect width="235.94" height="326.61" x="72.98" y="570.38" rx="9.83" ry="9.83" style="fill:#262625;stroke:#99bbc4;stroke-miterlimit:10;stroke-width:2px"/><rect width="206.96" height="296.3" x="87.47" y="585.54" rx="5.63" ry="5.63" style="fill:#99bbc4;stroke-width:0"/><g style="clip-path:url(#c)"><path d="M-26.76 716.5c.31-1.42 1.37-2.83 3.91-4.75 8.16-6.15 21.67-.11 30.55-.31a514 514 0 0 0 52.36-3.85c34.81-4.36 69.35-12.3 103.16-23.76C240 657.8 312.29 614.09 385.54 574.7c73.25-39.4 149.02-75 228.16-83.37s162.9 13.18 224.38 77.73c44.29 46.5 94.51 86.92 137.49 135.41 64.8 73.11 189.62 72.49 273.16 44.89-25.3 80.92-113.94 250.6-139.24 331.52-85.52-27.69-140.89-130.79-188.65-226.02-47.76-95.22-92.13-232.35-178-258.14-50.09-15.05-102.56-.82-151.98 17.51-77.37 28.7-153.79 68.56-215.69 134.71-51.12 54.62-90.38 124.99-136.72 186.25S134.63 1050.7 68.4 1058.42c-37.92 4.43-81.9-12.39-97.06-57.25-7.6-22.49-6.62-48.02-5.51-72.5 2.48-54.78 4.97-109.56 7.45-164.34.58-12.74 2.2-26.32 1.22-38.93-.34-4.36-1.76-6.65-1.25-8.91Z" style="fill:#637681;stroke-width:0"/><path d="M-40.4 655.4c93.19 11.72 187.34-12.27 275.26-45.33 87.92-33.05 172.42-75.36 262.28-102.69s187.94-38.97 277.16-9.59c81.55 26.86 148.23 85.11 221.37 130.09s163.97 77.49 243.95 46.26" style="fill:none;stroke:#262625;stroke-miterlimit:10"/><path d="M2.98 1011.55c78.42-5.44 151.29-43.71 213.58-91.66 62.3-47.94 116.15-105.81 174.59-158.39s123.27-100.81 198.38-123.99 162.38-17.94 225.25 29.25c43.25 32.46 71.08 80.93 107.09 121.27 81.9 91.76 210.48 139.52 332.42 123.46" style="fill:none;stroke:#262625;stroke-miterlimit:10"/><path d="M-89.38 869.62c103.99 7.06 204.12-40.65 290.37-99.18 86.24-58.53 164.65-129.17 256.77-177.93 92.12-48.75 204.5-73.61 300.65-33.39 53.38 22.33 97.02 62.54 138.29 103.1 41.28 40.55 82.18 82.84 132.74 110.97s113.55 40.41 166.61 17.33" style="fill:none;stroke:#262625;stroke-miterlimit:10"/></g><path d="M831.23 534.66h253.37v364.47H831.23c-5.48 0-9.92-4.45-9.92-9.92V544.58c0-5.48 4.45-9.92 9.92-9.92Z" style="fill:#262625;stroke:#99bbc4;stroke-miterlimit:10;stroke-width:2px" transform="rotate(90 952.955 716.895)"/><path d="M843.64 547.64h227.71v338.52H843.64c-5 0-9.07-4.06-9.07-9.07V556.7c0-5 4.06-9.07 9.07-9.07Z" style="fill:#99bbc4;stroke-width:0" transform="rotate(90 952.955 716.895)"/><path d="M944.98 671.47h6.49c5.23 0 9.48 4.25 9.48 9.48v413.31c0 5.23-4.25 9.48-9.48 9.48h-6.49V671.48Z" style="fill:#262625;stroke:#99bbc4;stroke-miterlimit:10;stroke-width:2px" transform="rotate(90 952.955 887.595)"/><path d="m736.83 879.62 33.89-31.08h364.47l33.9 31.08z" style="fill:#262625;stroke:#99bbc4;stroke-miterlimit:10;stroke-width:2px"/><g style="clip-path:url(#d)"><path d="M-26.76 716.5c.31-1.42 1.37-2.83 3.91-4.75 8.16-6.15 21.67-.11 30.55-.31a514 514 0 0 0 52.36-3.85c34.81-4.36 69.35-12.3 103.16-23.76C240 657.8 312.29 614.09 385.54 574.7c73.25-39.4 149.02-75 228.16-83.37s162.9 13.18 224.38 77.73c44.29 46.5 94.51 86.92 137.49 135.41 64.8 73.11 189.62 72.49 273.16 44.89-25.3 80.92-113.94 250.6-139.24 331.52-85.52-27.69-140.89-130.79-188.65-226.02-47.76-95.22-92.13-232.35-178-258.14-50.09-15.05-102.56-.82-151.98 17.51-77.37 28.7-153.79 68.56-215.69 134.71-51.12 54.62-90.38 124.99-136.72 186.25S134.63 1050.7 68.4 1058.42c-37.92 4.43-81.9-12.39-97.06-57.25-7.6-22.49-6.62-48.02-5.51-72.5 2.48-54.78 4.97-109.56 7.45-164.34.58-12.74 2.2-26.32 1.22-38.93-.34-4.36-1.76-6.65-1.25-8.91Z" style="fill:#637681;stroke-width:0"/><path d="M-40.4 655.4c93.19 11.72 187.34-12.27 275.26-45.33 87.92-33.05 172.42-75.36 262.28-102.69s187.94-38.97 277.16-9.59c81.55 26.86 148.23 85.11 221.37 130.09s163.97 77.49 243.95 46.26" style="fill:none;stroke:#262625;stroke-miterlimit:10"/><path d="M2.98 1011.55c78.42-5.44 151.29-43.71 213.58-91.66 62.3-47.94 116.15-105.81 174.59-158.39s123.27-100.81 198.38-123.99 162.38-17.94 225.25 29.25c43.25 32.46 71.08 80.93 107.09 121.27 81.9 91.76 210.48 139.52 332.42 123.46" style="fill:none;stroke:#262625;stroke-miterlimit:10"/><path d="M-89.38 869.62c103.99 7.06 204.12-40.65 290.37-99.18 86.24-58.53 164.65-129.17 256.77-177.93 92.12-48.75 204.5-73.61 300.65-33.39 53.38 22.33 97.02 62.54 138.29 103.1 41.28 40.55 82.18 82.84 132.74 110.97s113.55 40.41 166.61 17.33" style="fill:none;stroke:#262625;stroke-miterlimit:10"/></g><rect width="111.32" height="178.68" x="268.03" y="729.02" rx="8.58" ry="8.58" style="fill:#262625;stroke:#99bbc4;stroke-miterlimit:10;stroke-width:2px"/><path d="M366.94 735.53h-17.49v.1c0 5.69-4.61 10.3-10.3 10.3h-29.71c-5.69 0-10.3-4.61-10.3-10.3v-.1h-18.7c-2.5 0-4.53 2.03-4.53 4.53v155.58c0 2.5 2.03 4.53 4.53 4.53h86.51c2.5 0 4.53-2.03 4.53-4.53V740.06c0-2.5-2.03-4.53-4.53-4.53Z" style="fill:#99bbc4;stroke-width:0"/><g style="clip-path:url(#e)"><path d="M-26.76 716.5c.31-1.42 1.37-2.83 3.91-4.75 8.16-6.15 21.67-.11 30.55-.31a514 514 0 0 0 52.36-3.85c34.81-4.36 69.35-12.3 103.16-23.76C240 657.8 312.29 614.09 385.54 574.7c73.25-39.4 149.02-75 228.16-83.37s162.9 13.18 224.38 77.73c44.29 46.5 94.51 86.92 137.49 135.41 64.8 73.11 189.62 72.49 273.16 44.89-25.3 80.92-113.94 250.6-139.24 331.52-85.52-27.69-140.89-130.79-188.65-226.02-47.76-95.22-92.13-232.35-178-258.14-50.09-15.05-102.56-.82-151.98 17.51-77.37 28.7-153.79 68.56-215.69 134.71-51.12 54.62-90.38 124.99-136.72 186.25S134.63 1050.7 68.4 1058.42c-37.92 4.43-81.9-12.39-97.06-57.25-7.6-22.49-6.62-48.02-5.51-72.5 2.48-54.78 4.97-109.56 7.45-164.34.58-12.74 2.2-26.32 1.22-38.93-.34-4.36-1.76-6.65-1.25-8.91Z" style="fill:#637681;stroke-width:0"/><path d="M-40.4 655.4c93.19 11.72 187.34-12.27 275.26-45.33 87.92-33.05 172.42-75.36 262.28-102.69s187.94-38.97 277.16-9.59c81.55 26.86 148.23 85.11 221.37 130.09s163.97 77.49 243.95 46.26" style="fill:none;stroke:#262625;stroke-miterlimit:10"/><path d="M2.98 1011.55c78.42-5.44 151.29-43.71 213.58-91.66 62.3-47.94 116.15-105.81 174.59-158.39s123.27-100.81 198.38-123.99 162.38-17.94 225.25 29.25c43.25 32.46 71.08 80.93 107.09 121.27 81.9 91.76 210.48 139.52 332.42 123.46" style="fill:none;stroke:#262625;stroke-miterlimit:10"/><path d="M-89.38 869.62c103.99 7.06 204.12-40.65 290.37-99.18 86.24-58.53 164.65-129.17 256.77-177.93 92.12-48.75 204.5-73.61 300.65-33.39 53.38 22.33 97.02 62.54 138.29 103.1 41.28 40.55 82.18 82.84 132.74 110.97s113.55 40.41 166.61 17.33" style="fill:none;stroke:#262625;stroke-miterlimit:10"/></g><path d="m573.13 414.88 166.48 36.93c2.76.7 2.47 5.29-.37 5.96L469.6 520.36c-2.54.6-4.06-2.8-2.25-5l105.79-100.48Z" style="fill:#262625;stroke:#99bbc4;stroke-miterlimit:10;stroke-width:2px"/><path d="m521.08 508.59 205.56-47.95c3.64-.84 4.84 5.01 1.35 6.59l-184.66 77.18c-3.05 1.38-6.29-.5-6.95-4.03z" style="fill:#262625;stroke:#99bbc4;stroke-miterlimit:10;stroke-width:2px"/><path d="m538.32 449.08 155.67 3.48c.8-.06.5.82-.38 1.14l-165.94 4.18c-.79.29-1.09-.24-.45-.78z" style="fill:#99bbc4;stroke-width:0"/><path d="M147.52 618.92c-7.87 29.67-14.25 36.05-43.92 43.92 29.67 7.87 36.05 14.25 43.92 43.92 7.87-29.67 14.25-36.05 43.92-43.92-29.67-7.87-36.05-14.25-43.92-43.92m178.9 173.42c-5.28 19.9-9.56 24.19-29.47 29.47 19.9 5.28 24.19 9.56 29.47 29.47 5.28-19.9 9.56-24.19 29.47-29.47-19.9-5.28-24.19-9.56-29.47-29.47M758.53 401.4c-5.94 22.37-10.75 27.19-33.12 33.12 22.37 5.94 27.19 10.75 33.12 33.12 5.94-22.37 10.75-27.19 33.12-33.12-22.37-5.94-27.19-10.75-33.12-33.12m290.95 229.75c-8.77 33.06-15.88 40.17-48.94 48.94 33.06 8.77 40.17 15.88 48.94 48.94 8.77-33.06 15.88-40.17 48.94-48.94-33.06-8.77-40.17-15.88-48.94-48.94" style="fill:#262625;stroke-width:0"/><path d="M147.52 618.92c-7.87 29.67-14.25 36.05-43.92 43.92 29.67 7.87 36.05 14.25 43.92 43.92 7.87-29.67 14.25-36.05 43.92-43.92-29.67-7.87-36.05-14.25-43.92-43.92Zm178.9 173.42c-5.28 19.9-9.56 24.19-29.47 29.47 19.9 5.28 24.19 9.56 29.47 29.47 5.28-19.9 9.56-24.19 29.47-29.47-19.9-5.28-24.19-9.56-29.47-29.47ZM758.53 401.4c-5.94 22.37-10.75 27.19-33.12 33.12 22.37 5.94 27.19 10.75 33.12 33.12 5.94-22.37 10.75-27.19 33.12-33.12-22.37-5.94-27.19-10.75-33.12-33.12Zm290.95 229.75c-8.77 33.06-15.88 40.17-48.94 48.94 33.06 8.77 40.17 15.88 48.94 48.94 8.77-33.06 15.88-40.17 48.94-48.94-33.06-8.77-40.17-15.88-48.94-48.94Z" style="fill:none;stroke:#99bbc4;stroke-miterlimit:10"/></g></g></svg>