<svg xmlns="http://www.w3.org/2000/svg" data-name="Layer 2" viewBox="0 0 1200 1200"><defs><clipPath id="a"><path d="M0 0h1200v1200H0z" style="fill:none;stroke-width:0"/></clipPath><clipPath id="b"><path d="M145.05 177.07h909.9v520.32h-909.9z" style="fill:none;stroke-width:0"/></clipPath></defs><g data-name="Design 1" style="clip-path:url(#a)"><path d="M0 0h1200v1200H0z" style="fill:#9f9fb7;stroke-width:0"/><path d="M416.73 198.73c0-30.1-18-55.99-43.82-67.52.26-1.91.41-3.86.41-5.84 0-16.58-9.52-30.92-23.38-37.9.08-1.49.13-3 .13-4.51 0-44.84-36.35-81.2-81.2-81.2-20.84 0-39.84 7.86-54.21 20.76-17.84-24.39-46.66-40.24-79.2-40.24-13.51 0-26.39 2.73-38.1 7.68-17.6-39.43-57.14-66.91-103.1-66.91-62.33 0-112.86 50.53-112.86 112.86 0 27.53 9.86 52.76 26.24 72.35l-34.27 221.64 1.09-.05c-.71 4.39-1.09 8.9-1.09 13.49 0 46.45 37.65 84.1 84.1 84.1 31.31 0 58.6-17.12 73.08-42.5a67.5 67.5 0 0 0 16.87 2.13c37.26 0 67.47-30.21 67.47-67.47l292.77-46.95 6.88-55.99c1.43-5.74 2.2-11.75 2.2-17.94Zm320.76 19.45c0-30.1 18-55.99 43.82-67.52a43 43 0 0 1-.41-5.84c0-16.58 9.52-30.92 23.38-37.9-.08-1.49-.13-3-.13-4.51 0-44.84 36.35-81.2 81.2-81.2 20.84 0 39.84 7.86 54.21 20.76 17.84-24.39 46.66-40.24 79.2-40.24 13.51 0 26.39 2.73 38.1 7.68 17.6-39.42 57.14-66.9 103.11-66.9 62.33 0 112.86 50.53 112.86 112.86 0 27.53-9.86 52.76-26.24 72.35l85.94 160.63-1.09-.05c.71 4.39 1.09 8.9 1.09 13.49 0 46.45-37.65 84.1-84.1 84.1-31.31 0-58.6-17.12-73.08-42.5a67.5 67.5 0 0 1-16.87 2.13c-37.26 0-67.47-30.21-67.47-67.47l-344.44 14.06-6.88-55.99a74 74 0 0 1-2.2-17.94Z" data-name="cloud" style="fill:none;stroke:#262625;stroke-miterlimit:10;stroke-width:2px"/><g data-name="city"><rect width="231.02" height="938.43" x="893.31" y="111.2" rx="12.31" ry="12.31" style="fill:#9797af;stroke-width:0"/><rect width="234.15" height="820.46" x="1052.54" y="441.65" rx="13.25" ry="13.25" style="fill:#9797af;stroke-width:0"/><rect width="231.74" height="938.43" x="111.75" y="152.74" rx="13.25" ry="13.25" style="fill:#9797af;stroke-width:0"/><rect width="234.15" height="820.46" x="-86.7" y="538.08" rx="13.25" ry="13.25" style="fill:#9797af;stroke-width:0"/></g><path d="M1347.6 846.99c-3.36-66.17-58.08-118.8-125.09-118.8-43.98 0-82.67 22.67-105.01 56.97-9.01-2.33-18.47-3.57-28.21-3.57-62.14 0-112.51 50.37-112.51 112.51 0 5.45.4 10.81 1.15 16.05-.38 0-.76-.03-1.15-.03-23.99 0-45.58 10.32-60.56 26.75-14.98-16.44-36.57-26.75-60.56-26.75-45.25 0-81.93 36.68-81.93 81.93v228.91h574.03V846.98h-.16Zm-1060.36.87c-32.08 0-60.51 15.65-78.07 39.72-13.56-12.22-31.51-19.66-51.2-19.66-5.03 0-9.94.5-14.7 1.43-13.06-42.48-52.61-73.36-99.37-73.36-57.41 0-103.96 46.54-103.96 103.96v296.9h443.88v-252.4c0-53.34-43.24-96.59-96.59-96.59Z" data-name="cloud" style="fill:#6e6e81;stroke:#9f9fb7;stroke-miterlimit:10;stroke-width:2px"/><g data-name="head"><path d="M262.51 669.24v558.15c0 9.41 7.28 17.05 16.27 17.05H929.8c8.99 0 16.27-7.63 16.27-17.05V1110.2c0-6.82 3.88-12.98 9.86-15.67l45.9-20.61c7.6-3.41 11.55-12.25 9.18-20.55L930.99 772.7a17.7 17.7 0 0 1-.56-6.91l8.52-94.53c1.16-10.15-6.4-19.08-16.15-19.08H278.78c-8.99 0-16.27 7.63-16.27 17.05Z" style="fill:#b0adc4;stroke:#262625;stroke-miterlimit:10;stroke-width:4px"/><path d="M798.2 958.4c91.32 0 165.35-83.3 165.35-186.06H632.86c0 102.76 74.03 186.06 165.35 186.06Z" style="fill:#262625;stroke:#b0adc4;stroke-miterlimit:10;stroke-width:2px"/><path d="M747.16 731.96h38.53v241.27h-38.53z" style="fill:#b0adc4;stroke-width:0" transform="rotate(23.12 766.368 852.52)"/><path d="M801.63 741h19.53v241.27h-19.53z" style="fill:#b0adc4;stroke-width:0" transform="rotate(23.12 811.333 861.557)"/><path d="M798.2 958.4c91.32 0 165.35-83.3 165.35-186.06H632.86c0 102.76 74.03 186.06 165.35 186.06Z" style="fill:none;stroke-width:0"/></g><path d="M-67.81 1090.31c2.89-56.89 49.93-102.13 107.54-102.13 37.81 0 71.07 19.49 90.28 48.97 7.75-2 15.87-3.07 24.25-3.07 53.42 0 96.72 43.3 96.72 96.72 0 4.69-.34 9.29-.98 13.8.33 0 .65-.02.98-.02 20.63 0 39.18 8.87 52.06 23 12.88-14.13 31.43-23 52.06-23 38.9 0 70.43 31.53 70.43 70.43v196.79H-67.96v-321.5h.14Zm1295.8-151.72c-38.92 0-71.82 25.75-82.6 61.15-1.24-.05-2.49-.08-3.75-.08-54.06 0-97.89 43.83-97.89 97.89 0 3.87.23 7.69.67 11.44-24.02 11.5-40.62 36-40.71 64.39-12.75-6.08-27.03-9.49-42.1-9.49-54.06 0-97.89 43.83-97.89 97.89v174.32h450.62v-411.14c0-47.69-38.66-86.35-86.35-86.35Z" data-name="cloud" style="fill:#262625;stroke:#9f9fb7;stroke-miterlimit:10;stroke-width:2px"/><g data-name="brain/gear"><path d="M145.05 209.75h909.9v487.63h-909.9z" style="fill:#6e6e81;stroke:#262625;stroke-miterlimit:10;stroke-width:3px"/><path d="M134.31 686.78h21.2v21.2h-21.2zM589.4 199.15h21.2v21.2h-21.2zm-455.09 0h21.2v21.2h-21.2zm910.18 0h21.2v21.2h-21.2zM134.31 447.83h21.2v21.2h-21.2zm910.18 0h21.2v21.2h-21.2zm0 238.95h21.2v21.2h-21.2z" style="fill:#262625;stroke-width:0"/><g style="clip-path:url(#b)"><path d="M527.5 295.77c-3.29 0-5.96 2.67-5.96 5.96v47.48c0 2.88-2.07 5.33-4.9 5.86a320 320 0 0 0-47.16 12.59c-2.72.95-5.73-.13-7.17-2.62l-23.72-41.08a5.956 5.956 0 0 0-8.14-2.18l-84.51 48.79a5.956 5.956 0 0 0-2.18 8.14l23.76 41.16c1.44 2.49.87 5.64-1.31 7.52a325 325 0 0 0-34.5 34.5c-1.88 2.18-5.02 2.75-7.52 1.31l-41.16-23.76a5.956 5.956 0 0 0-8.14 2.18l-48.79 84.51a5.956 5.956 0 0 0 2.18 8.14l41.08 23.72c2.49 1.44 3.58 4.45 2.62 7.17a320 320 0 0 0-12.59 47.16c-.53 2.83-2.97 4.9-5.86 4.9h-47.48c-3.29 0-5.96 2.67-5.96 5.96v97.59c0 3.29 2.67 5.96 5.96 5.96h47.48c2.88 0 5.33 2.07 5.86 4.9 3.02 16.18 7.25 31.93 12.59 47.16.95 2.72-.13 5.73-2.62 7.17l-41.08 23.72a5.956 5.956 0 0 0-2.18 8.14l48.79 84.51a5.956 5.956 0 0 0 8.14 2.18l41.16-23.76c2.49-1.44 5.64-.87 7.52 1.31a325 325 0 0 0 34.5 34.5c2.18 1.88 2.75 5.02 1.31 7.52l-23.76 41.16a5.956 5.956 0 0 0 2.18 8.14l84.51 48.79c2.85 1.65 6.49.67 8.14-2.18l23.72-41.08c1.44-2.49 4.45-3.58 7.17-2.62 15.23 5.34 30.98 9.57 47.16 12.59 2.83.53 4.9 2.97 4.9 5.86v47.48c0 3.29 2.67 5.96 5.96 5.96h85.18V295.77z" style="fill:#262625;stroke:#b0adc4;stroke-miterlimit:10;stroke-width:2px"/><path d="M588.68 467.49c-26.49 99.84-47.96 121.31-147.8 147.8 99.84 26.49 121.31 47.96 147.8 147.8 26.49-99.84 47.96-121.31 147.8-147.8-99.84-26.49-121.31-47.96-147.8-147.8Z" style="fill:#b0adc4;stroke:#262625;stroke-miterlimit:10;stroke-width:4px"/><path d="M592.15 307.49c-1.92 3.66-3.1 8.2-3.31 13.67-.35 8.99 0 18.06 0 27.06v752.11c59.22 0 118.19-13.25 171.6-38.87 82.08-39.38 149.33-107.13 188.07-189.52 19.82-42.15 32.28-87.98 36.1-134.42.82-10.04-.46-21.07 2.34-30.75 3.03-10.48 10.29-18.3 12.12-29.65 1.86-11.56.56-23.94-3.94-34.76-.95-2.28-16.69-25.33-17.81-23.33 9.86-17.73 1.73-43.02-16.61-51.7 16.92-36.76-6.61-86.09-45.83-96.08-4.61-20.52-19.03-37.34-37.72-46.52-5.7-2.8-5.61-2.91-6.26-9.39-.56-5.62-1.55-11.13-3.24-16.54-3.24-10.38-8.66-20.1-15.92-28.21-10.3-11.51-24.06-19.49-39-23.24-7.19-1.81-8.92-2.72-13.49-8.27-4.22-5.13-9.22-9.49-15.42-12.02-9.39-3.83-16.99-2.12-26.52-1.11-8.66.91-11.63-7.55-18.19-12.72-10.81-8.52-23.63-14.51-37.14-17.17-11.66-2.3-23.78-2.11-35.38.41-5.79 1.26-11.5 3.08-16.91 5.51-5.99 2.7-6.38 4.55-12.18 1.52-14.13-7.38-35.81-14.19-45.37 3.99Z" style="fill:#262625;stroke:#b0adc4;stroke-miterlimit:10;stroke-width:2px"/><path d="M695.71 511.66c15.33-4.1 33.4-9.85 41.74-24.58 5.23-9.24 4.47-19.81 4.43-30.03-.05-11.32.79-22.65 2.58-33.83.78-4.85 1.54-9.97 3.75-14.41 2.09-4.19 5.46-7.2 9.51-9.46 7.4-4.14 16.06-6.54 24.37-8.02 15.05-2.68 32.63-1.76 45.07 8.12 3.22 2.56 5.92 5.62 8.24 9 2.67 3.9 5.03 8 8.03 11.67s6.69 6.63 11.19 8.17c4.15 1.42 8.89 1.54 13.1.26 1.95-.59 3.82-1.48 5.45-2.71 1.07-.81 1.64-2.16.9-3.42-.62-1.06-2.34-1.72-3.42-.9-3.1 2.35-6.96 3.21-10.8 2.83-4.28-.42-7.99-2.56-10.95-5.6-3.13-3.22-5.42-7.12-7.86-10.85s-5.03-7.24-8.28-10.23c-12.34-11.32-30.06-13.92-46.16-12.01-8.46 1-16.78 3.08-24.68 6.26-4.43 1.78-8.72 3.91-12.35 7.07s-6.21 7.66-7.69 12.41c-1.56 5.03-2.27 10.36-2.97 15.57-.78 5.7-1.35 11.43-1.67 17.17s-.38 11.26-.29 16.9c.09 5.22.24 10.55-.87 15.69-3.64 16.87-21.04 24.11-35.93 28.52-1.91.57-3.83 1.1-5.75 1.61-3.11.83-1.79 5.65 1.33 4.82Z" style="fill:#b0adc4;stroke-width:0"/><path d="M783.16 453.77c9.52 21.31 13.56 46.88 1.92 68.23-2.91 5.34-6.69 10.09-11.31 14.05-1.03.88-.9 2.63 0 3.54 1.02 1.02 2.51.88 3.54 0 8.8-7.53 14.73-18.01 17.68-29.14 3.27-12.32 2.78-25.3-.08-37.65-1.72-7.42-4.33-14.6-7.43-21.55-.55-1.23-2.35-1.53-3.42-.9-1.27.74-1.45 2.18-.9 3.42" style="fill:#b0adc4;stroke-width:0"/><path d="M815.86 559.25c-12.88-15.42-33.1-24.66-53.22-23.89-10.76.41-21.06 3.79-30.53 8.81-4.82 2.55-9.33 5.49-13.55 8.94s-7.77 6.91-11.69 10.33c-8.55 7.45-19.35 14.31-31.21 11.64-3.13-.71-4.47 4.11-1.33 4.82 10.77 2.42 21.48-1.61 30.06-8.04s15.12-14.13 23.85-19.69c8.74-5.57 18.55-9.86 28.87-11.33s19.9-.01 29.15 3.44c10.12 3.78 19.14 10.23 26.06 18.51.87 1.04 2.64.89 3.54 0 1.03-1.03.87-2.5 0-3.54m-19.83-59.82c20.14-14.39 47.95-16.36 69.91-4.91 10.18 5.31 19.04 13.14 25.61 22.56 7.24 10.36 11.43 22.25 12.95 34.77 2.01 16.49.37 33.13.62 49.68.05 3.21 5.05 3.22 5 0-.23-15.32 1.14-30.68-.23-45.98-1.21-13.55-4.83-26.65-12.16-38.2-6.54-10.31-15.49-19.13-26.02-25.34-11.15-6.58-24-9.99-36.95-9.92-14.64.08-29.32 4.49-41.26 13.02-1.1.78-1.62 2.18-.9 3.42.63 1.08 2.32 1.69 3.42.9Z" style="fill:#b0adc4;stroke-width:0"/><path d="M958.81 569.19c-4.72 16.39-21.63 23.99-36.98 27.51-4.68 1.07-9.42 1.83-14.2 2.33-1.34.14-2.5 1.05-2.5 2.5 0 1.24 1.15 2.64 2.5 2.5 9.19-.97 18.38-2.68 27.05-5.94 8.22-3.09 16.26-7.59 21.95-14.43 3.22-3.87 5.61-8.3 7-13.15.89-3.1-3.93-4.42-4.82-1.33ZM590.78 670.27c4.61-.36 8.88-2.03 12.16-5.35 3.04-3.08 4.95-7.03 6.55-10.99s2.92-8.31 4.55-12.41c.65-1.63 1.5-3.52 2.55-5.35 1.13-1.96 1.87-3.01 3.44-4.54.33-.32.68-.63 1.04-.92.09-.07.18-.15.27-.22-.04.03-.27.21-.04.04s.44-.32.67-.47c1.36-.89 2.83-1.64 4.28-2.37 3.26-1.66 6.63-3.07 10.09-4.26 7.06-2.43 14.43-4.01 21.85-4.84q5.595-.615 11.22-.75c5.625-.135 7.69-.19 11.44.53 7.36 1.4 13.22 6.42 19.08 10.77 10.92 8.09 23.23 17.15 37.47 17.05 1.81-.01 3.61-.21 5.4-.5 1.33-.22 2.08-1.87 1.75-3.08-.39-1.42-1.74-1.96-3.08-1.75-13.61 2.22-26.11-6.59-36.5-14.19-5.92-4.33-11.68-9.37-18.63-11.97-7.19-2.69-15.58-2.1-23.1-1.57-14.89 1.05-30.13 4.52-43.09 12.17-7.8 4.61-10.66 13.86-13.49 21.9-1.45 4.13-2.58 7.51-4.91 11.19-.25.39-.51.77-.77 1.15-.09.12-.18.25-.27.37.03-.04.22-.28.04-.05-.16.21-.33.41-.5.61-.61.71-1.28 1.35-1.99 1.97-.08.07-.17.14-.26.21.03-.03.29-.22.06-.05-.21.16-.43.31-.64.45a16 16 0 0 1-2.21 1.21c.04-.02.32-.13.05-.03-.49.19-.99.36-1.5.5-.53.15-1.07.26-1.62.37-.37.07-.27.05-.39.07q-.48.06-.96.09c-1.35.1-2.5 1.07-2.5 2.5 0 1.27 1.15 2.61 2.5 2.5Zm.37-298.47c7.51-1.99 12.85-7.88 17.95-13.36 2.51-2.7 5.06-5.43 7.98-7.7 3.25-2.52 6.79-3.9 10.7-5.07 9.19-2.76 19.21-4.7 28.78-2.88 4.67.89 9.03 2.68 12.92 5.43s7.33 6.56 10.43 10.32c6.69 8.14 14.25 17.58 14.75 28.57.15 3.2 5.15 3.22 5 0-.49-10.79-6.62-19.89-13.05-28.14s-13.46-16.13-23.62-19.64-20.52-2.45-30.39-.12c-4.7 1.11-9.66 2.33-13.95 4.6-3.58 1.89-6.71 4.59-9.57 7.44-5.79 5.78-11.13 13.59-19.25 15.74-3.11.82-1.79 5.65 1.33 4.82Z" style="fill:#b0adc4;stroke-width:0"/><path d="M743.43 413.54c-14.69-13.28-32.65-27.81-53.77-25.9-8.61.78-17.23 3.98-23.47 10.11a28.2 28.2 0 0 0-6.94 11.05c-1.87 5.5-1.95 11.46-1.66 17.2.51 10.33 2.58 23.4-5.62 31.47-2.3 2.26 1.24 5.8 3.54 3.54 7.04-6.93 8.03-17.42 7.57-26.78-.5-9.98-2.2-20.92 3.85-29.66 4.42-6.39 11.95-10.03 19.4-11.45 8.71-1.66 17.53.07 25.51 3.75 10.56 4.87 19.51 12.47 28.07 20.2 2.38 2.15 5.93-1.37 3.54-3.54ZM591.44 538.85c9.86-3.62 14.37-14.04 19.64-22.3 2.57-4.03 5.49-8.02 9.49-10.42 2.29-1.38 4.65-2 7.46-2.52 3.41-.64 6.88-.9 10.34-1.18 7.87-.65 16.19-1.32 22.96-5.8 2.67-1.77.17-6.1-2.52-4.32-5.63 3.73-12.47 4.45-19.04 5s-13.8.71-19.93 3.55c-9.46 4.39-13.88 15.02-19.27 23.25-1.51 2.31-2.78 4.09-4.71 6.02-.94.95-1.76 1.65-2.63 2.24-.52.36-1.06.68-1.62.98-.68.36-1.01.49-1.5.67-1.27.47-2.13 1.7-1.75 3.08.34 1.22 1.8 2.21 3.08 1.75m383.04 77.43c-16.39 1.34-32.32 6.91-46.02 16.01-6.83 4.53-13.13 9.89-18.61 15.99-5.64 6.27-10.04 13.32-14.52 20.42s-9.09 13.82-16.04 18.3-15.23 6.3-23.4 6.95c-4.37.35-8.75.4-13.13.34s-8.73-.08-13.07-.49-8.68-1.5-12.38-3.94-6.4-5.62-9.44-8.56c-5.96-5.74-13.17-9.86-21.23-11.82-7.89-1.92-16.31-1.86-24.12.41-1.96.57-3.87 1.31-5.74 2.13-1.24.54-1.52 2.35-.9 3.42.75 1.27 2.18 1.44 3.42.9 14.05-6.19 31.74-3.4 43.21 6.8 3.24 2.88 6.08 6.2 9.46 8.94s7.49 4.87 11.95 5.85 9.15 1.15 13.74 1.26c4.23.11 8.46.18 12.69.05 8.44-.25 17.05-1.26 24.9-4.54 8.12-3.39 14.34-9.13 19.49-16.16s8.77-14.13 13.76-20.8 10.47-12.07 16.72-16.98c12.57-9.88 27.79-16.43 43.59-18.83 1.88-.29 3.77-.49 5.67-.64 1.35-.11 2.5-1.07 2.5-2.5 0-1.27-1.15-2.61-2.5-2.5Z" style="fill:#b0adc4;stroke-width:0"/><path d="M804.84 677.94c5.94-14.49 7.08-31.2 2.29-46.19-4.35-13.62-13.74-25.36-26.24-32.38-6.89-3.87-14.57-6.18-22.47-6.58-3.22-.16-3.21 4.84 0 5 12.75.65 24.66 7.09 33.13 16.48 9.4 10.42 13.79 24.36 13.53 38.28-.15 8.27-1.94 16.42-5.07 24.06-.51 1.25.56 2.75 1.75 3.08 1.43.39 2.56-.49 3.08-1.75m-52.4-349.8c1.31 5.94 2.19 12.05 1.36 18.13-.78 5.76-2.77 11.53-5.77 16.51-6.14 10.18-16.35 16.64-27.85 19.14-6.95 1.51-14.11 1.52-21.19 1.58-3.22.02-3.22 5.02 0 5 6.86-.05 13.74-.14 20.52-1.36s13-3.51 18.57-7.12c10.77-6.97 17.98-18.28 20.28-30.85 1.37-7.51.52-14.96-1.11-22.35-.69-3.14-5.51-1.81-4.82 1.33Zm161.52 144.52c-1.78 11.16-5.76 22.75-13.62 31.13-2.29 2.44-4.86 4.52-7.77 6.18s-.28 5.92 2.52 4.32c11.26-6.46 17.97-18.45 21.51-30.57.93-3.19 1.65-6.44 2.17-9.72.21-1.33-.34-2.69-1.75-3.08-1.19-.33-2.86.41-3.08 1.75Z" style="fill:#b0adc4;stroke-width:0"/><path d="M321.75 672.95c0 147.69 119.73 267.41 267.41 267.41V405.54c-147.69 0-267.41 119.73-267.41 267.41Z" style="fill:none;stroke:#b0adc4;stroke-miterlimit:10;stroke-width:2px"/></g><path d="m90.77 754.86-46.22-10.1c-1.36-.3-1.51-2.17-.21-2.68l47.52-18.69 48.83-19.2c1.14-.45 2.27.68 1.82 1.82l-19.2 48.83-18.69 47.52c-.51 1.29-2.38 1.14-2.68-.21l-10.1-46.22c-.12-.54-.54-.96-1.07-1.07Z" style="fill:#262625;stroke:#9f9fb7;stroke-miterlimit:10;stroke-width:2px"/></g><g data-name="pen"><path d="m814.37 148.67 36.77 29.17L887.91 207l235.55-270.94-49.45-39.22-49.45-39.22zm-35 43.68a165.66 165.66 0 0 1-17.52 79.16l8.95 7.1 8.95 7.1c8.19-6.82 19.68-15.06 34.59-22.19a165.7 165.7 0 0 1 38.51-12.89l10.58-29.83 8.03 6.37 16.16-20.38-36.74-29.14-36.74-29.14-16.16 20.38 8.03 6.37-26.64 17.1Z" style="fill:#262625;stroke:#9f9fb7;stroke-miterlimit:10;stroke-width:2px"/><circle cx="806.66" cy="233.41" r="8.21" style="fill:#9f9fb7;stroke-width:0"/><path d="m770.81 278.62 36.78-46.38m55.86-11.44-57.43-45.55" style="fill:none;stroke:#9f9fb7;stroke-miterlimit:10;stroke-width:2px"/></g><path d="M834.73 276.2c-5.15 19.4-9.32 23.57-28.72 28.72 19.4 5.15 23.57 9.32 28.72 28.72 5.15-19.4 9.32-23.57 28.72-28.72-19.4-5.15-23.57-9.32-28.72-28.72" style="fill:#b0adc4;stroke-width:0"/></g></svg>